G04 EAGLE Gerber X2 export*
%TF.Part,Single*%
%TF.FileFunction,Copper,L2,Bot,Mixed*%
%TF.FilePolarity,Positive*%
%TF.GenerationSoftware,Autodesk,EAGLE,8.7.0*%
%TF.CreationDate,2019-01-30T20:35:29Z*%
G75*
%MOMM*%
%FSLAX34Y34*%
%LPD*%
%AMOC8*
5,1,8,0,0,1.08239X$1,22.5*%
G01*
%ADD10P,2.089446X8X202.500000*%
%ADD11C,1.790700*%
%ADD12P,1.924489X8X112.500000*%
%ADD13C,1.778000*%
%ADD14P,1.732040X8X292.500000*%
%ADD15P,1.924489X8X292.500000*%
%ADD16P,1.732040X8X112.500000*%
%ADD17C,1.320800*%
%ADD18C,1.981200*%
%ADD19P,1.814519X8X202.500000*%
%ADD20P,1.429621X8X112.500000*%
%ADD21P,1.429621X8X292.500000*%
%ADD22P,1.429621X8X202.500000*%
%ADD23C,1.524000*%
%ADD24P,1.429621X8X22.500000*%
%ADD25R,2.500000X2.500000*%
%ADD26C,1.400000*%
%ADD27C,1.308000*%
%ADD28C,1.458000*%
%ADD29C,3.316000*%
%ADD30P,1.814519X8X112.500000*%
%ADD31C,1.016000*%
%ADD32C,0.756400*%
%ADD33C,0.406400*%

G36*
X1117650Y50431D02*
X1117650Y50431D01*
X1117701Y50433D01*
X1117733Y50451D01*
X1117769Y50459D01*
X1117808Y50492D01*
X1117853Y50516D01*
X1117874Y50546D01*
X1117902Y50569D01*
X1117923Y50616D01*
X1117953Y50658D01*
X1117961Y50700D01*
X1117973Y50728D01*
X1117972Y50758D01*
X1117980Y50800D01*
X1117980Y355600D01*
X1117963Y355674D01*
X1117950Y355749D01*
X1117943Y355759D01*
X1117941Y355769D01*
X1117917Y355798D01*
X1117869Y355869D01*
X1105169Y368569D01*
X1105104Y368609D01*
X1105042Y368653D01*
X1105030Y368655D01*
X1105022Y368660D01*
X1104985Y368664D01*
X1104900Y368680D01*
X1028700Y368680D01*
X1028650Y368669D01*
X1028599Y368667D01*
X1028567Y368649D01*
X1028531Y368641D01*
X1028492Y368608D01*
X1028447Y368584D01*
X1028426Y368554D01*
X1028398Y368531D01*
X1028377Y368484D01*
X1028347Y368442D01*
X1028339Y368400D01*
X1028327Y368372D01*
X1028328Y368342D01*
X1028320Y368300D01*
X1028320Y342900D01*
X1028331Y342850D01*
X1028333Y342799D01*
X1028351Y342767D01*
X1028359Y342731D01*
X1028392Y342692D01*
X1028416Y342647D01*
X1028446Y342626D01*
X1028469Y342598D01*
X1028516Y342577D01*
X1028558Y342547D01*
X1028600Y342539D01*
X1028628Y342527D01*
X1028658Y342528D01*
X1028700Y342520D01*
X1041243Y342520D01*
X1066262Y317500D01*
X1053943Y305180D01*
X1003300Y305180D01*
X1003226Y305163D01*
X1003151Y305150D01*
X1003141Y305143D01*
X1003131Y305141D01*
X1003102Y305117D01*
X1003031Y305069D01*
X990331Y292369D01*
X990291Y292304D01*
X990247Y292242D01*
X990245Y292230D01*
X990240Y292222D01*
X990236Y292185D01*
X990220Y292100D01*
X990220Y241300D01*
X990232Y241249D01*
X990233Y241205D01*
X990244Y241184D01*
X990250Y241151D01*
X990257Y241141D01*
X990259Y241131D01*
X990283Y241102D01*
X990313Y241058D01*
X990316Y241052D01*
X990317Y241051D01*
X990331Y241031D01*
X1003031Y228331D01*
X1003096Y228291D01*
X1003158Y228247D01*
X1003170Y228245D01*
X1003178Y228240D01*
X1003215Y228236D01*
X1003300Y228220D01*
X1053943Y228220D01*
X1066420Y215743D01*
X1066420Y50800D01*
X1066431Y50750D01*
X1066433Y50699D01*
X1066451Y50667D01*
X1066459Y50631D01*
X1066492Y50592D01*
X1066516Y50547D01*
X1066546Y50526D01*
X1066569Y50498D01*
X1066616Y50477D01*
X1066658Y50447D01*
X1066700Y50439D01*
X1066728Y50427D01*
X1066758Y50428D01*
X1066800Y50420D01*
X1117600Y50420D01*
X1117650Y50431D01*
G37*
G36*
X1028774Y558437D02*
X1028774Y558437D01*
X1028849Y558450D01*
X1028859Y558457D01*
X1028869Y558459D01*
X1028898Y558483D01*
X1028969Y558531D01*
X1041669Y571231D01*
X1041696Y571274D01*
X1041730Y571312D01*
X1041741Y571347D01*
X1041760Y571378D01*
X1041765Y571429D01*
X1041780Y571478D01*
X1041773Y571514D01*
X1041777Y571551D01*
X1041759Y571599D01*
X1041750Y571649D01*
X1041726Y571684D01*
X1041715Y571713D01*
X1041693Y571734D01*
X1041669Y571769D01*
X1028969Y584469D01*
X1028904Y584509D01*
X1028842Y584553D01*
X1028830Y584555D01*
X1028822Y584560D01*
X1028785Y584564D01*
X1028700Y584580D01*
X1016158Y584580D01*
X952769Y647969D01*
X952704Y648009D01*
X952642Y648053D01*
X952630Y648055D01*
X952622Y648060D01*
X952585Y648064D01*
X952500Y648080D01*
X863600Y648080D01*
X863526Y648063D01*
X863451Y648050D01*
X863441Y648043D01*
X863431Y648041D01*
X863402Y648017D01*
X863331Y647969D01*
X850631Y635269D01*
X850604Y635226D01*
X850570Y635188D01*
X850559Y635153D01*
X850540Y635122D01*
X850535Y635071D01*
X850520Y635022D01*
X850527Y634986D01*
X850523Y634949D01*
X850541Y634902D01*
X850550Y634851D01*
X850574Y634816D01*
X850585Y634787D01*
X850607Y634766D01*
X850631Y634731D01*
X863331Y622031D01*
X863396Y621991D01*
X863458Y621947D01*
X863470Y621945D01*
X863478Y621940D01*
X863515Y621936D01*
X863600Y621920D01*
X914243Y621920D01*
X977631Y558531D01*
X977696Y558491D01*
X977758Y558447D01*
X977770Y558445D01*
X977778Y558440D01*
X977815Y558436D01*
X977900Y558420D01*
X1028700Y558420D01*
X1028774Y558437D01*
G37*
G36*
X863674Y583837D02*
X863674Y583837D01*
X863749Y583850D01*
X863759Y583857D01*
X863769Y583859D01*
X863798Y583883D01*
X863869Y583931D01*
X876569Y596631D01*
X876596Y596674D01*
X876630Y596712D01*
X876641Y596747D01*
X876660Y596778D01*
X876665Y596829D01*
X876680Y596878D01*
X876673Y596914D01*
X876677Y596951D01*
X876659Y596999D01*
X876650Y597049D01*
X876626Y597084D01*
X876615Y597113D01*
X876593Y597134D01*
X876569Y597169D01*
X863869Y609869D01*
X863804Y609909D01*
X863742Y609953D01*
X863730Y609955D01*
X863722Y609960D01*
X863685Y609964D01*
X863600Y609980D01*
X711200Y609980D01*
X711126Y609963D01*
X711051Y609950D01*
X711041Y609943D01*
X711031Y609941D01*
X711002Y609917D01*
X710931Y609869D01*
X698231Y597169D01*
X698204Y597126D01*
X698170Y597088D01*
X698159Y597053D01*
X698140Y597022D01*
X698135Y596971D01*
X698120Y596922D01*
X698127Y596886D01*
X698123Y596849D01*
X698141Y596802D01*
X698150Y596751D01*
X698174Y596716D01*
X698185Y596687D01*
X698207Y596666D01*
X698231Y596631D01*
X710931Y583931D01*
X710996Y583891D01*
X711058Y583847D01*
X711070Y583845D01*
X711078Y583840D01*
X711115Y583836D01*
X711200Y583820D01*
X863600Y583820D01*
X863674Y583837D01*
G37*
G36*
X558814Y113927D02*
X558814Y113927D01*
X558851Y113923D01*
X558899Y113941D01*
X558949Y113950D01*
X558984Y113974D01*
X559013Y113985D01*
X559034Y114007D01*
X559069Y114031D01*
X571769Y126731D01*
X571809Y126796D01*
X571853Y126858D01*
X571855Y126870D01*
X571860Y126878D01*
X571864Y126915D01*
X571880Y127000D01*
X571880Y152400D01*
X571863Y152474D01*
X571850Y152549D01*
X571843Y152559D01*
X571841Y152569D01*
X571817Y152598D01*
X571769Y152669D01*
X559069Y165369D01*
X559026Y165396D01*
X558988Y165430D01*
X558953Y165441D01*
X558922Y165460D01*
X558871Y165465D01*
X558822Y165480D01*
X558786Y165473D01*
X558749Y165477D01*
X558702Y165459D01*
X558651Y165450D01*
X558616Y165426D01*
X558587Y165415D01*
X558566Y165393D01*
X558531Y165369D01*
X545831Y152669D01*
X545791Y152604D01*
X545747Y152542D01*
X545745Y152530D01*
X545740Y152522D01*
X545736Y152485D01*
X545720Y152400D01*
X545720Y127000D01*
X545737Y126926D01*
X545750Y126851D01*
X545757Y126841D01*
X545759Y126831D01*
X545783Y126802D01*
X545831Y126731D01*
X558531Y114031D01*
X558574Y114004D01*
X558612Y113970D01*
X558647Y113959D01*
X558678Y113940D01*
X558729Y113935D01*
X558778Y113920D01*
X558814Y113927D01*
G37*
D10*
X673100Y635000D03*
X774700Y635000D03*
X723900Y635000D03*
D11*
X59754Y444100D02*
X41847Y444100D01*
X41847Y394100D02*
X59754Y394100D01*
X59754Y215500D02*
X41847Y215500D01*
X41847Y165500D02*
X59754Y165500D01*
D12*
X508000Y431800D03*
D13*
X508000Y406400D03*
D14*
X508000Y355600D03*
X508000Y330200D03*
D15*
X1016000Y406400D03*
D13*
X1016000Y431800D03*
D16*
X1016000Y330200D03*
X1016000Y355600D03*
D17*
X1016000Y133604D02*
X1016000Y120396D01*
X1016000Y196596D02*
X1016000Y209804D01*
D10*
X825500Y635000D03*
D18*
X923544Y165100D02*
X943356Y165100D01*
X923036Y224790D02*
X903224Y224790D01*
X903224Y105410D02*
X923036Y105410D01*
X801116Y105410D02*
X781304Y105410D01*
X781304Y224790D02*
X801116Y224790D01*
D11*
X1134047Y63900D02*
X1151954Y63900D01*
X1151954Y113900D02*
X1134047Y113900D01*
D19*
X1155700Y330200D03*
X1130300Y330200D03*
D11*
X1134047Y178200D02*
X1151954Y178200D01*
X1151954Y228200D02*
X1134047Y228200D01*
D17*
X330200Y127000D02*
X316992Y127000D01*
X316992Y101600D02*
X330200Y101600D01*
X406400Y101600D02*
X419608Y101600D01*
X419608Y127000D02*
X406400Y127000D01*
X330200Y76200D02*
X316992Y76200D01*
X406400Y76200D02*
X419608Y76200D01*
X330200Y241300D02*
X316992Y241300D01*
X316992Y215900D02*
X330200Y215900D01*
X406400Y215900D02*
X419608Y215900D01*
X419608Y241300D02*
X406400Y241300D01*
X330200Y190500D02*
X316992Y190500D01*
X406400Y190500D02*
X419608Y190500D01*
X330200Y355600D02*
X316992Y355600D01*
X316992Y330200D02*
X330200Y330200D01*
X406400Y330200D02*
X419608Y330200D01*
X419608Y355600D02*
X406400Y355600D01*
X330200Y304800D02*
X316992Y304800D01*
X406400Y304800D02*
X419608Y304800D01*
X330200Y469900D02*
X316992Y469900D01*
X316992Y444500D02*
X330200Y444500D01*
X406400Y444500D02*
X419608Y444500D01*
X419608Y469900D02*
X406400Y469900D01*
X330200Y419100D02*
X316992Y419100D01*
X406400Y419100D02*
X419608Y419100D01*
D11*
X1137857Y533800D02*
X1155764Y533800D01*
X1155764Y583800D02*
X1137857Y583800D01*
D20*
X292100Y76200D03*
X292100Y152400D03*
X292100Y419100D03*
X292100Y495300D03*
D21*
X444500Y495300D03*
X444500Y419100D03*
D22*
X546100Y520700D03*
X469900Y520700D03*
D21*
X444500Y152400D03*
X444500Y76200D03*
D20*
X292100Y190500D03*
X292100Y266700D03*
D21*
X444500Y266700D03*
X444500Y190500D03*
D20*
X292100Y304800D03*
X292100Y381000D03*
D21*
X444500Y381000D03*
X444500Y304800D03*
D22*
X736600Y520700D03*
X660400Y520700D03*
D11*
X59754Y329800D02*
X41847Y329800D01*
X41847Y279800D02*
X59754Y279800D01*
X59754Y101200D02*
X41847Y101200D01*
X41847Y51200D02*
X59754Y51200D01*
D23*
X444500Y614680D02*
X444500Y629920D01*
X469900Y629920D02*
X469900Y614680D01*
X495300Y614680D02*
X495300Y629920D01*
X520700Y629920D02*
X520700Y614680D01*
X546100Y614680D02*
X546100Y629920D01*
X571500Y629920D02*
X571500Y614680D01*
D24*
X609600Y152400D03*
X635000Y152400D03*
X635000Y177800D03*
D25*
X960120Y294640D03*
X960120Y467360D03*
X563880Y467360D03*
X563880Y294640D03*
D26*
X1109710Y602720D02*
X1123710Y602720D01*
D27*
X1052710Y582260D02*
X1052710Y569180D01*
X1080710Y554260D02*
X1080710Y541180D01*
D26*
X1093710Y602720D02*
X1107710Y602720D01*
D27*
X1052710Y566260D02*
X1052710Y553180D01*
X1080710Y538260D02*
X1080710Y525180D01*
D23*
X205232Y53594D02*
X189992Y53594D01*
X189992Y98806D02*
X205232Y98806D01*
X140208Y53594D02*
X124968Y53594D01*
X124968Y98806D02*
X140208Y98806D01*
X189992Y167894D02*
X205232Y167894D01*
X205232Y213106D02*
X189992Y213106D01*
X140208Y167894D02*
X124968Y167894D01*
X124968Y213106D02*
X140208Y213106D01*
X191262Y280924D02*
X206502Y280924D01*
X206502Y326136D02*
X191262Y326136D01*
X141478Y280924D02*
X126238Y280924D01*
X126238Y326136D02*
X141478Y326136D01*
X189992Y396494D02*
X205232Y396494D01*
X205232Y441706D02*
X189992Y441706D01*
X140208Y396494D02*
X124968Y396494D01*
X124968Y441706D02*
X140208Y441706D01*
D28*
X586900Y97890D02*
X586900Y83310D01*
X606900Y83310D02*
X606900Y97890D01*
X561900Y97890D02*
X561900Y83310D01*
X631900Y83310D02*
X631900Y97890D01*
D29*
X531200Y63500D03*
X662600Y63500D03*
D22*
X942238Y63906D03*
X866038Y63906D03*
D30*
X1005434Y36068D03*
X1005434Y61468D03*
D31*
X960120Y294640D02*
X995680Y330200D01*
X1016000Y330200D01*
X1146810Y583800D02*
X1127890Y602720D01*
X1121314Y602720D01*
X960120Y152400D02*
X913130Y105410D01*
X960120Y152400D02*
X960120Y294640D01*
X673100Y622300D02*
X673100Y635000D01*
X673100Y622300D02*
X698500Y596900D01*
X889000Y596900D01*
X1016000Y469900D01*
X1016000Y431800D01*
D32*
X889000Y596900D03*
D31*
X907542Y105410D02*
X866038Y63906D01*
X907542Y105410D02*
X913130Y105410D01*
X444500Y266700D02*
X393700Y266700D01*
X342900Y215900D01*
X330200Y215900D01*
X393700Y381000D02*
X444500Y381000D01*
X393700Y381000D02*
X342900Y330200D01*
X393700Y495300D02*
X444500Y495300D01*
X393700Y495300D02*
X342900Y444500D01*
X330200Y444500D01*
X444500Y495300D02*
X535940Y495300D01*
X563880Y467360D01*
X528320Y431800D02*
X508000Y431800D01*
X528320Y431800D02*
X563880Y467360D01*
X592234Y431800D02*
X597074Y426960D01*
X592234Y431800D02*
X508000Y431800D01*
X919720Y426960D02*
X960120Y467360D01*
X919720Y426960D02*
X597074Y426960D01*
X1016000Y406400D02*
X1016000Y355600D01*
X1016000Y406400D02*
X995440Y426960D01*
X919720Y426960D01*
X1094630Y533800D02*
X1146810Y533800D01*
X1094630Y533800D02*
X1093854Y534576D01*
X1093854Y543704D01*
X1086154Y551404D01*
X1080710Y551404D01*
X1080710Y547720D02*
X1052710Y575720D01*
X999080Y575720D01*
X939800Y635000D01*
X825500Y635000D01*
X1079500Y330200D02*
X1130300Y330200D01*
X1079500Y330200D02*
X1054100Y355600D01*
X1016000Y355600D01*
X631900Y130100D02*
X631900Y90600D01*
X631900Y130100D02*
X609600Y152400D01*
X1079500Y127400D02*
X1143000Y63900D01*
X1079500Y127400D02*
X1079500Y330200D01*
X355600Y203200D02*
X342900Y215900D01*
X342900Y101600D02*
X330200Y101600D01*
X342900Y101600D02*
X355600Y114300D01*
X355600Y139700D02*
X355600Y203200D01*
X355600Y139700D02*
X355600Y114300D01*
X355600Y139700D02*
X368300Y152400D01*
X444500Y152400D01*
X342900Y330200D02*
X330200Y330200D01*
X342900Y330200D02*
X355600Y317500D01*
X355600Y304800D01*
X393700Y266700D01*
X563880Y248920D02*
X563880Y294640D01*
X563880Y248920D02*
X571500Y241300D01*
D32*
X571500Y241300D03*
X571500Y177800D03*
D31*
X561900Y162000D02*
X561900Y90600D01*
X561900Y162000D02*
X571500Y171600D01*
X571500Y177800D01*
D32*
X482600Y520700D03*
D33*
X482600Y558800D01*
X495300Y571500D01*
D32*
X495300Y571500D03*
X520700Y577850D03*
D33*
X520700Y622300D01*
X495300Y127000D02*
X444500Y76200D01*
X495300Y127000D02*
X495300Y469900D01*
D32*
X495300Y469900D03*
X469900Y558800D03*
D33*
X469900Y622300D01*
X495300Y622300D02*
X508000Y609600D01*
X508000Y533400D01*
D32*
X508000Y533400D03*
X520700Y368300D03*
D33*
X520700Y203200D01*
X508000Y190500D01*
D32*
X508000Y190500D03*
D31*
X546100Y520700D02*
X546100Y622300D01*
X1155700Y355600D02*
X1155700Y330200D01*
X1155700Y355600D02*
X1016000Y495300D01*
D32*
X1016000Y495300D03*
D33*
X635000Y152400D02*
X533400Y254000D01*
D32*
X533400Y254000D03*
X482600Y304800D03*
D33*
X469900Y317500D01*
X469900Y469900D01*
D32*
X469900Y469900D03*
X558800Y584200D03*
D33*
X571500Y596900D01*
X571500Y622300D01*
D32*
X393700Y546100D03*
D31*
X444500Y596900D01*
X444500Y622300D01*
D33*
X729371Y648208D02*
X729879Y647700D01*
X762000Y647700D01*
X729371Y648208D02*
X470408Y648208D01*
X444500Y622300D01*
X762000Y647700D02*
X774700Y635000D01*
D32*
X25400Y571500D03*
X25400Y482600D03*
X76200Y571500D03*
X76200Y482600D03*
X127000Y571500D03*
X127000Y482600D03*
X190500Y571500D03*
X190500Y482600D03*
M02*
