M48
;GenerationSoftware,Autodesk,EAGLE,8.7.0*%
;CreationDate,2019-01-30T20:35:29Z*%
FMAT,2
ICI,OFF
METRIC,TZ,000.000
T11C0.350
T10C0.800
T9C0.813
T8C0.950
T7C1.016
T6C1.194
T5C1.321
T4C1.500
T3C2.300
T2C3.000
T1C4.000
%
G90
M71
T1
X23876Y3556
X23749Y52578
X81788Y3556
X81788Y52578
T2
X60960Y45720
X90678Y30480
T3
X53120Y6350
X66260Y6350
T4
X56388Y29464
X56388Y46736
X96012Y46736
X96012Y29464
T5
X91313Y10541
X91313Y22479
X93345Y16510
X79121Y22479
X79121Y10541
T6
X114300Y22820
X5080Y44410
X5080Y39410
X5080Y21550
X5080Y16550
X114681Y53380
X114300Y6390
X5080Y32980
X114300Y11390
X5080Y5120
X5080Y10120
X5080Y27980
X114681Y58380
X114300Y17820
T7
X13259Y21311
X19761Y21311
X19761Y16789
X13259Y9881
X13259Y5359
X19761Y9881
X13259Y16789
X77470Y63500
X82550Y63500
X44450Y62230
X46990Y62230
X49530Y62230
X52070Y62230
X72390Y63500
X67310Y63500
X54610Y62230
X19888Y28092
X19888Y32614
X13386Y28092
X13386Y32614
X19761Y39649
X19761Y44171
X19761Y5359
X13259Y44171
X57150Y62230
X13259Y39649
T8
X58690Y9060
X60690Y9060
X56190Y9060
X63190Y9060
T9
X33020Y10160
X40640Y10160
X40640Y12700
X33020Y7620
X40640Y7620
X33020Y24130
X33020Y21590
X40640Y21590
X40640Y24130
X33020Y19050
X40640Y19050
X33020Y35560
X33020Y33020
X40640Y33020
X40640Y35560
X33020Y30480
X60960Y15240
X33020Y46990
X33020Y44450
X40640Y44450
X40640Y46990
X33020Y41910
X40640Y41910
X29210Y7620
X29210Y15240
X29210Y41910
X29210Y49530
X44450Y49530
X44450Y41910
X54610Y52070
X46990Y52070
X44450Y15240
X44450Y7620
X29210Y19050
X29210Y26670
X44450Y26670
X44450Y19050
X29210Y30480
X29210Y38100
X44450Y38100
X44450Y30480
X73660Y52070
X66040Y52070
X63500Y15240
X63500Y17780
X50800Y43180
X40640Y30480
X50800Y40640
X50800Y35560
X50800Y33020
X101600Y40640
X101600Y43180
X101600Y33020
X101600Y35560
X101600Y12700
X101600Y20320
X115570Y33020
X113030Y33020
X33020Y12700
X94224Y6391
X86604Y6391
X100543Y3607
X100543Y6147
T10
X105271Y57572
X108071Y54772
X110071Y60272
X105271Y55972
X108071Y53172
X111671Y60272
T11
X46990Y55880
X49530Y46990
X52070Y57785
X49530Y57150
X48260Y52070
X57150Y17780
X88900Y59690
X57150Y24130
X19050Y57150
X12700Y48260
X12700Y57150
X7620Y48260
X2540Y48260
X2540Y57150
X39370Y54610
X55880Y58420
X46990Y46990
X48260Y30480
X53340Y25400
X7620Y57150
X19050Y48260
X101600Y49530
X50800Y19050
X52070Y36830
X50800Y53340
M30