G04 EAGLE Gerber X2 export*
%TF.Part,Single*%
%TF.FileFunction,Legend,Bot,1*%
%TF.FilePolarity,Positive*%
%TF.GenerationSoftware,Autodesk,EAGLE,8.7.0*%
%TF.CreationDate,2019-01-30T20:35:29Z*%
G75*
%MOMM*%
%FSLAX34Y34*%
%LPD*%
%AMOC8*
5,1,8,0,0,1.08239X$1,22.5*%
G01*
%ADD10C,0.152400*%
%ADD11R,8.890000X2.540000*%


D10*
X957213Y410972D02*
X964438Y410972D01*
X964438Y427228D01*
X957213Y427228D01*
X959019Y420003D02*
X964438Y420003D01*
X950226Y417294D02*
X945711Y415488D01*
X950226Y417294D02*
X950314Y417331D01*
X950400Y417372D01*
X950485Y417416D01*
X950568Y417464D01*
X950648Y417515D01*
X950727Y417569D01*
X950803Y417627D01*
X950877Y417687D01*
X950949Y417751D01*
X951017Y417817D01*
X951083Y417887D01*
X951146Y417958D01*
X951207Y418033D01*
X951264Y418109D01*
X951317Y418188D01*
X951368Y418269D01*
X951415Y418352D01*
X951459Y418437D01*
X951499Y418524D01*
X951536Y418612D01*
X951569Y418702D01*
X951599Y418793D01*
X951624Y418885D01*
X951646Y418978D01*
X951664Y419072D01*
X951679Y419166D01*
X951689Y419261D01*
X951695Y419357D01*
X951698Y419452D01*
X951697Y419548D01*
X951691Y419643D01*
X951682Y419739D01*
X951669Y419833D01*
X951653Y419927D01*
X951632Y420021D01*
X951607Y420113D01*
X951579Y420204D01*
X951547Y420294D01*
X951512Y420383D01*
X951473Y420470D01*
X951430Y420556D01*
X951384Y420640D01*
X951334Y420721D01*
X951282Y420801D01*
X951226Y420879D01*
X951166Y420954D01*
X951104Y421026D01*
X951039Y421096D01*
X950971Y421164D01*
X950901Y421228D01*
X950828Y421290D01*
X950752Y421348D01*
X950674Y421404D01*
X950594Y421456D01*
X950512Y421505D01*
X950428Y421550D01*
X950342Y421592D01*
X950255Y421631D01*
X950166Y421666D01*
X950075Y421697D01*
X949984Y421724D01*
X949891Y421748D01*
X949798Y421768D01*
X949704Y421784D01*
X949609Y421796D01*
X949514Y421805D01*
X949418Y421809D01*
X949323Y421810D01*
X949076Y421803D01*
X948830Y421791D01*
X948584Y421773D01*
X948338Y421748D01*
X948094Y421718D01*
X947850Y421682D01*
X947607Y421641D01*
X947365Y421593D01*
X947124Y421539D01*
X946885Y421480D01*
X946647Y421415D01*
X946411Y421344D01*
X946176Y421268D01*
X945943Y421186D01*
X945713Y421098D01*
X945485Y421005D01*
X945258Y420907D01*
X945710Y415487D02*
X945622Y415450D01*
X945536Y415409D01*
X945451Y415365D01*
X945368Y415317D01*
X945288Y415266D01*
X945209Y415212D01*
X945133Y415154D01*
X945059Y415094D01*
X944987Y415030D01*
X944919Y414964D01*
X944853Y414894D01*
X944790Y414823D01*
X944729Y414748D01*
X944672Y414672D01*
X944619Y414593D01*
X944568Y414512D01*
X944521Y414429D01*
X944477Y414344D01*
X944437Y414257D01*
X944400Y414169D01*
X944367Y414079D01*
X944337Y413988D01*
X944312Y413896D01*
X944290Y413803D01*
X944272Y413709D01*
X944257Y413615D01*
X944247Y413520D01*
X944241Y413424D01*
X944238Y413329D01*
X944239Y413233D01*
X944245Y413138D01*
X944254Y413042D01*
X944267Y412948D01*
X944283Y412854D01*
X944304Y412760D01*
X944329Y412668D01*
X944357Y412577D01*
X944389Y412487D01*
X944424Y412398D01*
X944463Y412311D01*
X944506Y412225D01*
X944552Y412141D01*
X944602Y412060D01*
X944654Y411980D01*
X944710Y411902D01*
X944770Y411827D01*
X944832Y411755D01*
X944897Y411685D01*
X944965Y411617D01*
X945035Y411553D01*
X945108Y411491D01*
X945184Y411433D01*
X945262Y411377D01*
X945342Y411325D01*
X945424Y411276D01*
X945508Y411231D01*
X945594Y411189D01*
X945681Y411150D01*
X945770Y411115D01*
X945861Y411084D01*
X945952Y411057D01*
X946045Y411033D01*
X946138Y411013D01*
X946232Y410997D01*
X946327Y410985D01*
X946422Y410976D01*
X946518Y410972D01*
X946613Y410971D01*
X946614Y410972D02*
X946976Y410981D01*
X947338Y410999D01*
X947699Y411026D01*
X948059Y411061D01*
X948419Y411104D01*
X948778Y411156D01*
X949135Y411217D01*
X949490Y411286D01*
X949844Y411363D01*
X950196Y411449D01*
X950546Y411543D01*
X950894Y411646D01*
X951239Y411756D01*
X951581Y411875D01*
X939331Y421809D02*
X933912Y421809D01*
X937525Y427228D02*
X937525Y413681D01*
X937524Y413681D02*
X937522Y413580D01*
X937516Y413479D01*
X937507Y413378D01*
X937494Y413277D01*
X937477Y413177D01*
X937456Y413078D01*
X937432Y412980D01*
X937404Y412883D01*
X937372Y412786D01*
X937337Y412691D01*
X937298Y412598D01*
X937256Y412506D01*
X937210Y412415D01*
X937161Y412327D01*
X937109Y412240D01*
X937053Y412155D01*
X936995Y412072D01*
X936933Y411992D01*
X936868Y411914D01*
X936801Y411838D01*
X936731Y411765D01*
X936658Y411695D01*
X936582Y411628D01*
X936504Y411563D01*
X936424Y411501D01*
X936341Y411443D01*
X936256Y411387D01*
X936170Y411335D01*
X936081Y411286D01*
X935990Y411240D01*
X935898Y411198D01*
X935805Y411159D01*
X935710Y411124D01*
X935613Y411092D01*
X935516Y411064D01*
X935418Y411040D01*
X935319Y411019D01*
X935219Y411002D01*
X935118Y410989D01*
X935017Y410980D01*
X934916Y410974D01*
X934815Y410972D01*
X933912Y410972D01*
X925046Y417294D02*
X920982Y417294D01*
X925046Y417294D02*
X925158Y417292D01*
X925269Y417286D01*
X925380Y417276D01*
X925491Y417263D01*
X925601Y417245D01*
X925710Y417223D01*
X925819Y417198D01*
X925927Y417169D01*
X926033Y417136D01*
X926139Y417099D01*
X926243Y417059D01*
X926345Y417015D01*
X926446Y416967D01*
X926545Y416916D01*
X926643Y416861D01*
X926738Y416803D01*
X926831Y416742D01*
X926922Y416677D01*
X927011Y416609D01*
X927097Y416538D01*
X927180Y416465D01*
X927261Y416388D01*
X927340Y416308D01*
X927415Y416226D01*
X927487Y416141D01*
X927557Y416054D01*
X927623Y415964D01*
X927686Y415872D01*
X927746Y415777D01*
X927802Y415681D01*
X927855Y415583D01*
X927904Y415483D01*
X927950Y415381D01*
X927992Y415278D01*
X928031Y415173D01*
X928066Y415067D01*
X928097Y414960D01*
X928124Y414852D01*
X928148Y414743D01*
X928167Y414633D01*
X928183Y414523D01*
X928195Y414412D01*
X928203Y414300D01*
X928207Y414189D01*
X928207Y414077D01*
X928203Y413966D01*
X928195Y413854D01*
X928183Y413743D01*
X928167Y413633D01*
X928148Y413523D01*
X928124Y413414D01*
X928097Y413306D01*
X928066Y413199D01*
X928031Y413093D01*
X927992Y412988D01*
X927950Y412885D01*
X927904Y412783D01*
X927855Y412683D01*
X927802Y412585D01*
X927746Y412489D01*
X927686Y412394D01*
X927623Y412302D01*
X927557Y412212D01*
X927487Y412125D01*
X927415Y412040D01*
X927340Y411958D01*
X927261Y411878D01*
X927180Y411801D01*
X927097Y411728D01*
X927011Y411657D01*
X926922Y411589D01*
X926831Y411524D01*
X926738Y411463D01*
X926643Y411405D01*
X926545Y411350D01*
X926446Y411299D01*
X926345Y411251D01*
X926243Y411207D01*
X926139Y411167D01*
X926033Y411130D01*
X925927Y411097D01*
X925819Y411068D01*
X925710Y411043D01*
X925601Y411021D01*
X925491Y411003D01*
X925380Y410990D01*
X925269Y410980D01*
X925158Y410974D01*
X925046Y410972D01*
X920982Y410972D01*
X920982Y419100D01*
X920983Y419100D02*
X920985Y419201D01*
X920991Y419302D01*
X921000Y419403D01*
X921013Y419504D01*
X921030Y419604D01*
X921051Y419703D01*
X921075Y419801D01*
X921103Y419898D01*
X921135Y419995D01*
X921170Y420090D01*
X921209Y420183D01*
X921251Y420275D01*
X921297Y420366D01*
X921346Y420455D01*
X921398Y420541D01*
X921454Y420626D01*
X921512Y420709D01*
X921574Y420789D01*
X921639Y420867D01*
X921706Y420943D01*
X921776Y421016D01*
X921849Y421086D01*
X921925Y421153D01*
X922003Y421218D01*
X922083Y421280D01*
X922166Y421338D01*
X922251Y421394D01*
X922338Y421446D01*
X922426Y421495D01*
X922517Y421541D01*
X922609Y421583D01*
X922702Y421622D01*
X922797Y421657D01*
X922894Y421689D01*
X922991Y421717D01*
X923089Y421741D01*
X923188Y421762D01*
X923288Y421779D01*
X923389Y421792D01*
X923490Y421801D01*
X923591Y421807D01*
X923692Y421809D01*
X927304Y421809D01*
X911339Y410972D02*
X907727Y410972D01*
X911339Y410972D02*
X911440Y410974D01*
X911541Y410980D01*
X911642Y410989D01*
X911743Y411002D01*
X911843Y411019D01*
X911942Y411040D01*
X912040Y411064D01*
X912137Y411092D01*
X912234Y411124D01*
X912329Y411159D01*
X912422Y411198D01*
X912514Y411240D01*
X912605Y411286D01*
X912694Y411335D01*
X912780Y411387D01*
X912865Y411443D01*
X912948Y411501D01*
X913028Y411563D01*
X913106Y411628D01*
X913182Y411695D01*
X913255Y411765D01*
X913325Y411838D01*
X913392Y411914D01*
X913457Y411992D01*
X913519Y412072D01*
X913577Y412155D01*
X913633Y412240D01*
X913685Y412327D01*
X913734Y412415D01*
X913780Y412506D01*
X913822Y412598D01*
X913861Y412691D01*
X913896Y412786D01*
X913928Y412883D01*
X913956Y412980D01*
X913980Y413078D01*
X914001Y413177D01*
X914018Y413277D01*
X914031Y413378D01*
X914040Y413479D01*
X914046Y413580D01*
X914048Y413681D01*
X914048Y419100D01*
X914046Y419201D01*
X914040Y419302D01*
X914031Y419403D01*
X914018Y419504D01*
X914001Y419604D01*
X913980Y419703D01*
X913956Y419801D01*
X913928Y419898D01*
X913896Y419995D01*
X913861Y420090D01*
X913822Y420183D01*
X913780Y420275D01*
X913734Y420366D01*
X913685Y420455D01*
X913633Y420541D01*
X913577Y420626D01*
X913519Y420709D01*
X913457Y420789D01*
X913392Y420867D01*
X913325Y420943D01*
X913255Y421016D01*
X913182Y421086D01*
X913106Y421153D01*
X913028Y421218D01*
X912948Y421280D01*
X912865Y421338D01*
X912780Y421394D01*
X912694Y421446D01*
X912605Y421495D01*
X912514Y421541D01*
X912422Y421583D01*
X912329Y421622D01*
X912234Y421657D01*
X912137Y421689D01*
X912040Y421717D01*
X911942Y421741D01*
X911843Y421762D01*
X911743Y421779D01*
X911642Y421792D01*
X911541Y421801D01*
X911440Y421807D01*
X911339Y421809D01*
X907727Y421809D01*
X902117Y421809D02*
X902117Y410972D01*
X902568Y426325D02*
X902568Y427228D01*
X901665Y427228D01*
X901665Y426325D01*
X902568Y426325D01*
X895829Y418197D02*
X895829Y414584D01*
X895829Y418197D02*
X895827Y418316D01*
X895821Y418436D01*
X895811Y418555D01*
X895797Y418673D01*
X895780Y418792D01*
X895758Y418909D01*
X895733Y419026D01*
X895703Y419141D01*
X895670Y419256D01*
X895633Y419370D01*
X895593Y419482D01*
X895548Y419593D01*
X895500Y419702D01*
X895449Y419810D01*
X895394Y419916D01*
X895335Y420020D01*
X895273Y420122D01*
X895208Y420222D01*
X895139Y420320D01*
X895067Y420416D01*
X894992Y420509D01*
X894915Y420599D01*
X894834Y420687D01*
X894750Y420772D01*
X894663Y420854D01*
X894574Y420934D01*
X894482Y421010D01*
X894388Y421084D01*
X894291Y421154D01*
X894193Y421221D01*
X894092Y421285D01*
X893988Y421345D01*
X893883Y421402D01*
X893776Y421455D01*
X893668Y421505D01*
X893558Y421551D01*
X893446Y421593D01*
X893333Y421632D01*
X893219Y421667D01*
X893104Y421698D01*
X892987Y421726D01*
X892870Y421749D01*
X892753Y421769D01*
X892634Y421785D01*
X892515Y421797D01*
X892396Y421805D01*
X892277Y421809D01*
X892157Y421809D01*
X892038Y421805D01*
X891919Y421797D01*
X891800Y421785D01*
X891681Y421769D01*
X891564Y421749D01*
X891447Y421726D01*
X891330Y421698D01*
X891215Y421667D01*
X891101Y421632D01*
X890988Y421593D01*
X890876Y421551D01*
X890766Y421505D01*
X890658Y421455D01*
X890551Y421402D01*
X890446Y421345D01*
X890342Y421285D01*
X890241Y421221D01*
X890143Y421154D01*
X890046Y421084D01*
X889952Y421010D01*
X889860Y420934D01*
X889771Y420854D01*
X889684Y420772D01*
X889600Y420687D01*
X889519Y420599D01*
X889442Y420509D01*
X889367Y420416D01*
X889295Y420320D01*
X889226Y420222D01*
X889161Y420122D01*
X889099Y420020D01*
X889040Y419916D01*
X888985Y419810D01*
X888934Y419702D01*
X888886Y419593D01*
X888841Y419482D01*
X888801Y419370D01*
X888764Y419256D01*
X888731Y419141D01*
X888701Y419026D01*
X888676Y418909D01*
X888654Y418792D01*
X888637Y418673D01*
X888623Y418555D01*
X888613Y418436D01*
X888607Y418316D01*
X888605Y418197D01*
X888605Y414584D01*
X888607Y414465D01*
X888613Y414345D01*
X888623Y414226D01*
X888637Y414108D01*
X888654Y413989D01*
X888676Y413872D01*
X888701Y413755D01*
X888731Y413640D01*
X888764Y413525D01*
X888801Y413411D01*
X888841Y413299D01*
X888886Y413188D01*
X888934Y413079D01*
X888985Y412971D01*
X889040Y412865D01*
X889099Y412761D01*
X889161Y412659D01*
X889226Y412559D01*
X889295Y412461D01*
X889367Y412365D01*
X889442Y412272D01*
X889519Y412182D01*
X889600Y412094D01*
X889684Y412009D01*
X889771Y411927D01*
X889860Y411847D01*
X889952Y411771D01*
X890046Y411697D01*
X890143Y411627D01*
X890241Y411560D01*
X890342Y411496D01*
X890446Y411436D01*
X890551Y411379D01*
X890658Y411326D01*
X890766Y411276D01*
X890876Y411230D01*
X890988Y411188D01*
X891101Y411149D01*
X891215Y411114D01*
X891330Y411083D01*
X891447Y411055D01*
X891564Y411032D01*
X891681Y411012D01*
X891800Y410996D01*
X891919Y410984D01*
X892038Y410976D01*
X892157Y410972D01*
X892277Y410972D01*
X892396Y410976D01*
X892515Y410984D01*
X892634Y410996D01*
X892753Y411012D01*
X892870Y411032D01*
X892987Y411055D01*
X893104Y411083D01*
X893219Y411114D01*
X893333Y411149D01*
X893446Y411188D01*
X893558Y411230D01*
X893668Y411276D01*
X893776Y411326D01*
X893883Y411379D01*
X893988Y411436D01*
X894092Y411496D01*
X894193Y411560D01*
X894291Y411627D01*
X894388Y411697D01*
X894482Y411771D01*
X894574Y411847D01*
X894663Y411927D01*
X894750Y412009D01*
X894834Y412094D01*
X894915Y412182D01*
X894992Y412272D01*
X895067Y412365D01*
X895139Y412461D01*
X895208Y412559D01*
X895273Y412659D01*
X895335Y412761D01*
X895394Y412865D01*
X895449Y412971D01*
X895500Y413079D01*
X895548Y413188D01*
X895593Y413299D01*
X895633Y413411D01*
X895670Y413525D01*
X895703Y413640D01*
X895733Y413755D01*
X895758Y413872D01*
X895780Y413989D01*
X895797Y414108D01*
X895811Y414226D01*
X895821Y414345D01*
X895827Y414465D01*
X895829Y414584D01*
X881761Y410972D02*
X881761Y421809D01*
X877246Y421809D01*
X877142Y421807D01*
X877039Y421801D01*
X876935Y421791D01*
X876832Y421777D01*
X876730Y421759D01*
X876629Y421738D01*
X876528Y421712D01*
X876429Y421683D01*
X876330Y421650D01*
X876233Y421613D01*
X876138Y421572D01*
X876044Y421528D01*
X875952Y421480D01*
X875862Y421429D01*
X875773Y421374D01*
X875687Y421316D01*
X875604Y421254D01*
X875522Y421190D01*
X875444Y421122D01*
X875368Y421052D01*
X875294Y420979D01*
X875224Y420902D01*
X875156Y420824D01*
X875092Y420742D01*
X875030Y420659D01*
X874972Y420573D01*
X874917Y420484D01*
X874866Y420394D01*
X874818Y420302D01*
X874774Y420208D01*
X874733Y420113D01*
X874696Y420016D01*
X874663Y419917D01*
X874634Y419818D01*
X874608Y419717D01*
X874587Y419616D01*
X874569Y419514D01*
X874555Y419411D01*
X874545Y419307D01*
X874539Y419204D01*
X874537Y419100D01*
X874536Y419100D02*
X874536Y410972D01*
X864606Y417294D02*
X860542Y417294D01*
X864606Y417294D02*
X864718Y417292D01*
X864829Y417286D01*
X864940Y417276D01*
X865051Y417263D01*
X865161Y417245D01*
X865270Y417223D01*
X865379Y417198D01*
X865487Y417169D01*
X865593Y417136D01*
X865699Y417099D01*
X865803Y417059D01*
X865905Y417015D01*
X866006Y416967D01*
X866105Y416916D01*
X866203Y416861D01*
X866298Y416803D01*
X866391Y416742D01*
X866482Y416677D01*
X866571Y416609D01*
X866657Y416538D01*
X866740Y416465D01*
X866821Y416388D01*
X866900Y416308D01*
X866975Y416226D01*
X867047Y416141D01*
X867117Y416054D01*
X867183Y415964D01*
X867246Y415872D01*
X867306Y415777D01*
X867362Y415681D01*
X867415Y415583D01*
X867464Y415483D01*
X867510Y415381D01*
X867552Y415278D01*
X867591Y415173D01*
X867626Y415067D01*
X867657Y414960D01*
X867684Y414852D01*
X867708Y414743D01*
X867727Y414633D01*
X867743Y414523D01*
X867755Y414412D01*
X867763Y414300D01*
X867767Y414189D01*
X867767Y414077D01*
X867763Y413966D01*
X867755Y413854D01*
X867743Y413743D01*
X867727Y413633D01*
X867708Y413523D01*
X867684Y413414D01*
X867657Y413306D01*
X867626Y413199D01*
X867591Y413093D01*
X867552Y412988D01*
X867510Y412885D01*
X867464Y412783D01*
X867415Y412683D01*
X867362Y412585D01*
X867306Y412489D01*
X867246Y412394D01*
X867183Y412302D01*
X867117Y412212D01*
X867047Y412125D01*
X866975Y412040D01*
X866900Y411958D01*
X866821Y411878D01*
X866740Y411801D01*
X866657Y411728D01*
X866571Y411657D01*
X866482Y411589D01*
X866391Y411524D01*
X866298Y411463D01*
X866203Y411405D01*
X866105Y411350D01*
X866006Y411299D01*
X865905Y411251D01*
X865803Y411207D01*
X865699Y411167D01*
X865593Y411130D01*
X865487Y411097D01*
X865379Y411068D01*
X865270Y411043D01*
X865161Y411021D01*
X865051Y411003D01*
X864940Y410990D01*
X864829Y410980D01*
X864718Y410974D01*
X864606Y410972D01*
X860542Y410972D01*
X860542Y419100D01*
X860544Y419201D01*
X860550Y419302D01*
X860559Y419403D01*
X860572Y419504D01*
X860589Y419604D01*
X860610Y419703D01*
X860634Y419801D01*
X860662Y419898D01*
X860694Y419995D01*
X860729Y420090D01*
X860768Y420183D01*
X860810Y420275D01*
X860856Y420366D01*
X860905Y420455D01*
X860957Y420541D01*
X861013Y420626D01*
X861071Y420709D01*
X861133Y420789D01*
X861198Y420867D01*
X861265Y420943D01*
X861335Y421016D01*
X861408Y421086D01*
X861484Y421153D01*
X861562Y421218D01*
X861642Y421280D01*
X861725Y421338D01*
X861810Y421394D01*
X861897Y421446D01*
X861985Y421495D01*
X862076Y421541D01*
X862168Y421583D01*
X862261Y421622D01*
X862356Y421657D01*
X862453Y421689D01*
X862550Y421717D01*
X862648Y421741D01*
X862747Y421762D01*
X862847Y421779D01*
X862948Y421792D01*
X863049Y421801D01*
X863150Y421807D01*
X863251Y421809D01*
X866863Y421809D01*
X852826Y421809D02*
X852826Y410972D01*
X852826Y421809D02*
X844698Y421809D01*
X844597Y421807D01*
X844496Y421801D01*
X844395Y421792D01*
X844294Y421779D01*
X844194Y421762D01*
X844095Y421741D01*
X843997Y421717D01*
X843900Y421689D01*
X843803Y421657D01*
X843708Y421622D01*
X843615Y421583D01*
X843523Y421541D01*
X843432Y421495D01*
X843344Y421446D01*
X843257Y421394D01*
X843172Y421338D01*
X843089Y421280D01*
X843009Y421218D01*
X842931Y421153D01*
X842855Y421086D01*
X842782Y421016D01*
X842712Y420943D01*
X842645Y420867D01*
X842580Y420789D01*
X842518Y420709D01*
X842460Y420626D01*
X842404Y420541D01*
X842352Y420455D01*
X842303Y420366D01*
X842257Y420275D01*
X842215Y420183D01*
X842176Y420090D01*
X842141Y419995D01*
X842109Y419898D01*
X842081Y419801D01*
X842057Y419703D01*
X842036Y419604D01*
X842019Y419504D01*
X842006Y419403D01*
X841997Y419302D01*
X841991Y419201D01*
X841989Y419100D01*
X841989Y410972D01*
X847407Y410972D02*
X847407Y421809D01*
X834903Y421809D02*
X834903Y410972D01*
X835354Y426325D02*
X835354Y427228D01*
X834451Y427228D01*
X834451Y426325D01*
X835354Y426325D01*
X825906Y410972D02*
X821390Y410972D01*
X825906Y410972D02*
X826007Y410974D01*
X826108Y410980D01*
X826209Y410989D01*
X826310Y411002D01*
X826410Y411019D01*
X826509Y411040D01*
X826607Y411064D01*
X826704Y411092D01*
X826801Y411124D01*
X826896Y411159D01*
X826989Y411198D01*
X827081Y411240D01*
X827172Y411286D01*
X827261Y411335D01*
X827347Y411387D01*
X827432Y411443D01*
X827515Y411501D01*
X827595Y411563D01*
X827673Y411628D01*
X827749Y411695D01*
X827822Y411765D01*
X827892Y411838D01*
X827959Y411914D01*
X828024Y411992D01*
X828086Y412072D01*
X828144Y412155D01*
X828200Y412240D01*
X828252Y412327D01*
X828301Y412415D01*
X828347Y412506D01*
X828389Y412598D01*
X828428Y412691D01*
X828463Y412786D01*
X828495Y412883D01*
X828523Y412980D01*
X828547Y413078D01*
X828568Y413177D01*
X828585Y413277D01*
X828598Y413378D01*
X828607Y413479D01*
X828613Y413580D01*
X828615Y413681D01*
X828615Y418197D01*
X828613Y418316D01*
X828607Y418436D01*
X828597Y418555D01*
X828583Y418673D01*
X828566Y418792D01*
X828544Y418909D01*
X828519Y419026D01*
X828489Y419141D01*
X828456Y419256D01*
X828419Y419370D01*
X828379Y419482D01*
X828334Y419593D01*
X828286Y419702D01*
X828235Y419810D01*
X828180Y419916D01*
X828121Y420020D01*
X828059Y420122D01*
X827994Y420222D01*
X827925Y420320D01*
X827853Y420416D01*
X827778Y420509D01*
X827701Y420599D01*
X827620Y420687D01*
X827536Y420772D01*
X827449Y420854D01*
X827360Y420934D01*
X827268Y421010D01*
X827174Y421084D01*
X827077Y421154D01*
X826979Y421221D01*
X826878Y421285D01*
X826774Y421345D01*
X826669Y421402D01*
X826562Y421455D01*
X826454Y421505D01*
X826344Y421551D01*
X826232Y421593D01*
X826119Y421632D01*
X826005Y421667D01*
X825890Y421698D01*
X825773Y421726D01*
X825656Y421749D01*
X825539Y421769D01*
X825420Y421785D01*
X825301Y421797D01*
X825182Y421805D01*
X825063Y421809D01*
X824943Y421809D01*
X824824Y421805D01*
X824705Y421797D01*
X824586Y421785D01*
X824467Y421769D01*
X824350Y421749D01*
X824233Y421726D01*
X824116Y421698D01*
X824001Y421667D01*
X823887Y421632D01*
X823774Y421593D01*
X823662Y421551D01*
X823552Y421505D01*
X823444Y421455D01*
X823337Y421402D01*
X823232Y421345D01*
X823128Y421285D01*
X823027Y421221D01*
X822929Y421154D01*
X822832Y421084D01*
X822738Y421010D01*
X822646Y420934D01*
X822557Y420854D01*
X822470Y420772D01*
X822386Y420687D01*
X822305Y420599D01*
X822228Y420509D01*
X822153Y420416D01*
X822081Y420320D01*
X822012Y420222D01*
X821947Y420122D01*
X821885Y420020D01*
X821826Y419916D01*
X821771Y419810D01*
X821720Y419702D01*
X821672Y419593D01*
X821627Y419482D01*
X821587Y419370D01*
X821550Y419256D01*
X821517Y419141D01*
X821487Y419026D01*
X821462Y418909D01*
X821440Y418792D01*
X821423Y418673D01*
X821409Y418555D01*
X821399Y418436D01*
X821393Y418316D01*
X821391Y418197D01*
X821390Y418197D02*
X821390Y416391D01*
X828615Y416391D01*
X814547Y410972D02*
X814547Y421809D01*
X810032Y421809D01*
X809928Y421807D01*
X809825Y421801D01*
X809721Y421791D01*
X809618Y421777D01*
X809516Y421759D01*
X809415Y421738D01*
X809314Y421712D01*
X809215Y421683D01*
X809116Y421650D01*
X809019Y421613D01*
X808924Y421572D01*
X808830Y421528D01*
X808738Y421480D01*
X808648Y421429D01*
X808559Y421374D01*
X808473Y421316D01*
X808390Y421254D01*
X808308Y421190D01*
X808230Y421122D01*
X808154Y421052D01*
X808080Y420979D01*
X808010Y420902D01*
X807942Y420824D01*
X807878Y420742D01*
X807816Y420659D01*
X807758Y420573D01*
X807703Y420484D01*
X807652Y420394D01*
X807604Y420302D01*
X807560Y420208D01*
X807519Y420113D01*
X807482Y420016D01*
X807449Y419917D01*
X807420Y419818D01*
X807394Y419717D01*
X807373Y419616D01*
X807355Y419514D01*
X807341Y419411D01*
X807331Y419307D01*
X807325Y419204D01*
X807323Y419100D01*
X807322Y419100D02*
X807322Y410972D01*
X801776Y421809D02*
X796358Y421809D01*
X799970Y427228D02*
X799970Y413681D01*
X799968Y413580D01*
X799962Y413479D01*
X799953Y413378D01*
X799940Y413277D01*
X799923Y413177D01*
X799902Y413078D01*
X799878Y412980D01*
X799850Y412883D01*
X799818Y412786D01*
X799783Y412691D01*
X799744Y412598D01*
X799702Y412506D01*
X799656Y412415D01*
X799607Y412327D01*
X799555Y412240D01*
X799499Y412155D01*
X799441Y412072D01*
X799379Y411992D01*
X799314Y411914D01*
X799247Y411838D01*
X799177Y411765D01*
X799104Y411695D01*
X799028Y411628D01*
X798950Y411563D01*
X798870Y411501D01*
X798787Y411443D01*
X798702Y411387D01*
X798616Y411335D01*
X798527Y411286D01*
X798436Y411240D01*
X798344Y411198D01*
X798251Y411159D01*
X798156Y411124D01*
X798059Y411092D01*
X797962Y411064D01*
X797864Y411040D01*
X797765Y411019D01*
X797665Y411002D01*
X797564Y410989D01*
X797463Y410980D01*
X797362Y410974D01*
X797261Y410972D01*
X796358Y410972D01*
X790579Y414584D02*
X790579Y418197D01*
X790577Y418316D01*
X790571Y418436D01*
X790561Y418555D01*
X790547Y418673D01*
X790530Y418792D01*
X790508Y418909D01*
X790483Y419026D01*
X790453Y419141D01*
X790420Y419256D01*
X790383Y419370D01*
X790343Y419482D01*
X790298Y419593D01*
X790250Y419702D01*
X790199Y419810D01*
X790144Y419916D01*
X790085Y420020D01*
X790023Y420122D01*
X789958Y420222D01*
X789889Y420320D01*
X789817Y420416D01*
X789742Y420509D01*
X789665Y420599D01*
X789584Y420687D01*
X789500Y420772D01*
X789413Y420854D01*
X789324Y420934D01*
X789232Y421010D01*
X789138Y421084D01*
X789041Y421154D01*
X788943Y421221D01*
X788842Y421285D01*
X788738Y421345D01*
X788633Y421402D01*
X788526Y421455D01*
X788418Y421505D01*
X788308Y421551D01*
X788196Y421593D01*
X788083Y421632D01*
X787969Y421667D01*
X787854Y421698D01*
X787737Y421726D01*
X787620Y421749D01*
X787503Y421769D01*
X787384Y421785D01*
X787265Y421797D01*
X787146Y421805D01*
X787027Y421809D01*
X786907Y421809D01*
X786788Y421805D01*
X786669Y421797D01*
X786550Y421785D01*
X786431Y421769D01*
X786314Y421749D01*
X786197Y421726D01*
X786080Y421698D01*
X785965Y421667D01*
X785851Y421632D01*
X785738Y421593D01*
X785626Y421551D01*
X785516Y421505D01*
X785408Y421455D01*
X785301Y421402D01*
X785196Y421345D01*
X785092Y421285D01*
X784991Y421221D01*
X784893Y421154D01*
X784796Y421084D01*
X784702Y421010D01*
X784610Y420934D01*
X784521Y420854D01*
X784434Y420772D01*
X784350Y420687D01*
X784269Y420599D01*
X784192Y420509D01*
X784117Y420416D01*
X784045Y420320D01*
X783976Y420222D01*
X783911Y420122D01*
X783849Y420020D01*
X783790Y419916D01*
X783735Y419810D01*
X783684Y419702D01*
X783636Y419593D01*
X783591Y419482D01*
X783551Y419370D01*
X783514Y419256D01*
X783481Y419141D01*
X783451Y419026D01*
X783426Y418909D01*
X783404Y418792D01*
X783387Y418673D01*
X783373Y418555D01*
X783363Y418436D01*
X783357Y418316D01*
X783355Y418197D01*
X783354Y418197D02*
X783354Y414584D01*
X783355Y414584D02*
X783357Y414465D01*
X783363Y414345D01*
X783373Y414226D01*
X783387Y414108D01*
X783404Y413989D01*
X783426Y413872D01*
X783451Y413755D01*
X783481Y413640D01*
X783514Y413525D01*
X783551Y413411D01*
X783591Y413299D01*
X783636Y413188D01*
X783684Y413079D01*
X783735Y412971D01*
X783790Y412865D01*
X783849Y412761D01*
X783911Y412659D01*
X783976Y412559D01*
X784045Y412461D01*
X784117Y412365D01*
X784192Y412272D01*
X784269Y412182D01*
X784350Y412094D01*
X784434Y412009D01*
X784521Y411927D01*
X784610Y411847D01*
X784702Y411771D01*
X784796Y411697D01*
X784893Y411627D01*
X784991Y411560D01*
X785092Y411496D01*
X785196Y411436D01*
X785301Y411379D01*
X785408Y411326D01*
X785516Y411276D01*
X785626Y411230D01*
X785738Y411188D01*
X785851Y411149D01*
X785965Y411114D01*
X786080Y411083D01*
X786197Y411055D01*
X786314Y411032D01*
X786431Y411012D01*
X786550Y410996D01*
X786669Y410984D01*
X786788Y410976D01*
X786907Y410972D01*
X787027Y410972D01*
X787146Y410976D01*
X787265Y410984D01*
X787384Y410996D01*
X787503Y411012D01*
X787620Y411032D01*
X787737Y411055D01*
X787854Y411083D01*
X787969Y411114D01*
X788083Y411149D01*
X788196Y411188D01*
X788308Y411230D01*
X788418Y411276D01*
X788526Y411326D01*
X788633Y411379D01*
X788738Y411436D01*
X788842Y411496D01*
X788943Y411560D01*
X789041Y411627D01*
X789138Y411697D01*
X789232Y411771D01*
X789324Y411847D01*
X789413Y411927D01*
X789500Y412009D01*
X789584Y412094D01*
X789665Y412182D01*
X789742Y412272D01*
X789817Y412365D01*
X789889Y412461D01*
X789958Y412559D01*
X790023Y412659D01*
X790085Y412761D01*
X790144Y412865D01*
X790199Y412971D01*
X790250Y413079D01*
X790298Y413188D01*
X790343Y413299D01*
X790383Y413411D01*
X790420Y413525D01*
X790453Y413640D01*
X790483Y413755D01*
X790508Y413872D01*
X790530Y413989D01*
X790547Y414108D01*
X790561Y414226D01*
X790571Y414345D01*
X790577Y414465D01*
X790579Y414584D01*
X775678Y417294D02*
X771162Y415488D01*
X775678Y417294D02*
X775766Y417331D01*
X775852Y417372D01*
X775937Y417416D01*
X776020Y417464D01*
X776100Y417515D01*
X776179Y417569D01*
X776255Y417627D01*
X776329Y417687D01*
X776401Y417751D01*
X776469Y417817D01*
X776535Y417887D01*
X776598Y417958D01*
X776659Y418033D01*
X776716Y418109D01*
X776769Y418188D01*
X776820Y418269D01*
X776867Y418352D01*
X776911Y418437D01*
X776951Y418524D01*
X776988Y418612D01*
X777021Y418702D01*
X777051Y418793D01*
X777076Y418885D01*
X777098Y418978D01*
X777116Y419072D01*
X777131Y419166D01*
X777141Y419261D01*
X777147Y419357D01*
X777150Y419452D01*
X777149Y419548D01*
X777143Y419643D01*
X777134Y419739D01*
X777121Y419833D01*
X777105Y419927D01*
X777084Y420021D01*
X777059Y420113D01*
X777031Y420204D01*
X776999Y420294D01*
X776964Y420383D01*
X776925Y420470D01*
X776882Y420556D01*
X776836Y420640D01*
X776786Y420721D01*
X776734Y420801D01*
X776678Y420879D01*
X776618Y420954D01*
X776556Y421026D01*
X776491Y421096D01*
X776423Y421164D01*
X776353Y421228D01*
X776280Y421290D01*
X776204Y421348D01*
X776126Y421404D01*
X776046Y421456D01*
X775964Y421505D01*
X775880Y421550D01*
X775794Y421592D01*
X775707Y421631D01*
X775618Y421666D01*
X775527Y421697D01*
X775436Y421724D01*
X775343Y421748D01*
X775250Y421768D01*
X775156Y421784D01*
X775061Y421796D01*
X774966Y421805D01*
X774870Y421809D01*
X774775Y421810D01*
X774528Y421803D01*
X774282Y421791D01*
X774036Y421773D01*
X773790Y421748D01*
X773546Y421718D01*
X773302Y421682D01*
X773059Y421641D01*
X772817Y421593D01*
X772576Y421539D01*
X772337Y421480D01*
X772099Y421415D01*
X771863Y421344D01*
X771628Y421268D01*
X771395Y421186D01*
X771165Y421098D01*
X770937Y421005D01*
X770710Y420907D01*
X771162Y415487D02*
X771074Y415450D01*
X770988Y415409D01*
X770903Y415365D01*
X770820Y415317D01*
X770740Y415266D01*
X770661Y415212D01*
X770585Y415154D01*
X770511Y415094D01*
X770439Y415030D01*
X770371Y414964D01*
X770305Y414894D01*
X770242Y414823D01*
X770181Y414748D01*
X770124Y414672D01*
X770071Y414593D01*
X770020Y414512D01*
X769973Y414429D01*
X769929Y414344D01*
X769889Y414257D01*
X769852Y414169D01*
X769819Y414079D01*
X769789Y413988D01*
X769764Y413896D01*
X769742Y413803D01*
X769724Y413709D01*
X769709Y413615D01*
X769699Y413520D01*
X769693Y413424D01*
X769690Y413329D01*
X769691Y413233D01*
X769697Y413138D01*
X769706Y413042D01*
X769719Y412948D01*
X769735Y412854D01*
X769756Y412760D01*
X769781Y412668D01*
X769809Y412577D01*
X769841Y412487D01*
X769876Y412398D01*
X769915Y412311D01*
X769958Y412225D01*
X770004Y412141D01*
X770054Y412060D01*
X770106Y411980D01*
X770162Y411902D01*
X770222Y411827D01*
X770284Y411755D01*
X770349Y411685D01*
X770417Y411617D01*
X770487Y411553D01*
X770560Y411491D01*
X770636Y411433D01*
X770714Y411377D01*
X770794Y411325D01*
X770876Y411276D01*
X770960Y411231D01*
X771046Y411189D01*
X771133Y411150D01*
X771222Y411115D01*
X771313Y411084D01*
X771404Y411057D01*
X771497Y411033D01*
X771590Y411013D01*
X771684Y410997D01*
X771779Y410985D01*
X771874Y410976D01*
X771970Y410972D01*
X772065Y410971D01*
X772065Y410972D02*
X772427Y410981D01*
X772789Y410999D01*
X773150Y411026D01*
X773510Y411061D01*
X773870Y411104D01*
X774229Y411156D01*
X774586Y411217D01*
X774941Y411286D01*
X775295Y411363D01*
X775647Y411449D01*
X775997Y411543D01*
X776345Y411646D01*
X776690Y411756D01*
X777032Y411875D01*
X754488Y415488D02*
X754488Y427228D01*
X754489Y415488D02*
X754487Y415355D01*
X754481Y415223D01*
X754471Y415091D01*
X754458Y414959D01*
X754440Y414827D01*
X754419Y414697D01*
X754394Y414566D01*
X754365Y414437D01*
X754332Y414309D01*
X754296Y414181D01*
X754256Y414055D01*
X754212Y413930D01*
X754164Y413806D01*
X754113Y413684D01*
X754058Y413563D01*
X754000Y413444D01*
X753938Y413326D01*
X753873Y413211D01*
X753804Y413097D01*
X753733Y412986D01*
X753657Y412877D01*
X753579Y412770D01*
X753498Y412665D01*
X753413Y412563D01*
X753326Y412463D01*
X753236Y412366D01*
X753143Y412271D01*
X753047Y412180D01*
X752949Y412091D01*
X752848Y412005D01*
X752744Y411922D01*
X752638Y411842D01*
X752530Y411766D01*
X752420Y411692D01*
X752307Y411622D01*
X752193Y411555D01*
X752076Y411492D01*
X751958Y411432D01*
X751838Y411375D01*
X751716Y411322D01*
X751593Y411273D01*
X751469Y411227D01*
X751343Y411185D01*
X751216Y411147D01*
X751088Y411112D01*
X750959Y411081D01*
X750830Y411054D01*
X750699Y411031D01*
X750568Y411011D01*
X750436Y410996D01*
X750304Y410984D01*
X750172Y410976D01*
X750039Y410972D01*
X749907Y410972D01*
X749774Y410976D01*
X749642Y410984D01*
X749510Y410996D01*
X749378Y411011D01*
X749247Y411031D01*
X749116Y411054D01*
X748987Y411081D01*
X748858Y411112D01*
X748730Y411147D01*
X748603Y411185D01*
X748477Y411227D01*
X748353Y411273D01*
X748230Y411322D01*
X748108Y411375D01*
X747988Y411432D01*
X747870Y411492D01*
X747753Y411555D01*
X747639Y411622D01*
X747526Y411692D01*
X747416Y411766D01*
X747308Y411842D01*
X747202Y411922D01*
X747098Y412005D01*
X746997Y412091D01*
X746899Y412180D01*
X746803Y412271D01*
X746710Y412366D01*
X746620Y412463D01*
X746533Y412563D01*
X746448Y412665D01*
X746367Y412770D01*
X746289Y412877D01*
X746213Y412986D01*
X746142Y413097D01*
X746073Y413211D01*
X746008Y413326D01*
X745946Y413444D01*
X745888Y413563D01*
X745833Y413684D01*
X745782Y413806D01*
X745734Y413930D01*
X745690Y414055D01*
X745650Y414181D01*
X745614Y414309D01*
X745581Y414437D01*
X745552Y414566D01*
X745527Y414697D01*
X745506Y414827D01*
X745488Y414959D01*
X745475Y415091D01*
X745465Y415223D01*
X745459Y415355D01*
X745457Y415488D01*
X745457Y427228D01*
X747715Y434001D02*
X751328Y431292D01*
X737954Y421809D02*
X737954Y410972D01*
X737954Y421809D02*
X733439Y421809D01*
X733335Y421807D01*
X733232Y421801D01*
X733128Y421791D01*
X733025Y421777D01*
X732923Y421759D01*
X732822Y421738D01*
X732721Y421712D01*
X732622Y421683D01*
X732523Y421650D01*
X732426Y421613D01*
X732331Y421572D01*
X732237Y421528D01*
X732145Y421480D01*
X732055Y421429D01*
X731966Y421374D01*
X731880Y421316D01*
X731797Y421254D01*
X731715Y421190D01*
X731637Y421122D01*
X731561Y421052D01*
X731487Y420979D01*
X731417Y420902D01*
X731349Y420824D01*
X731285Y420742D01*
X731223Y420659D01*
X731165Y420573D01*
X731110Y420484D01*
X731059Y420394D01*
X731011Y420302D01*
X730967Y420208D01*
X730926Y420113D01*
X730889Y420016D01*
X730856Y419917D01*
X730827Y419818D01*
X730801Y419717D01*
X730780Y419616D01*
X730762Y419514D01*
X730748Y419411D01*
X730738Y419307D01*
X730732Y419204D01*
X730730Y419100D01*
X730729Y419100D02*
X730729Y410972D01*
X723921Y410972D02*
X723921Y421809D01*
X724372Y426325D02*
X724372Y427228D01*
X723469Y427228D01*
X723469Y426325D01*
X724372Y426325D01*
X714907Y410972D02*
X711294Y410972D01*
X714907Y410972D02*
X715008Y410974D01*
X715109Y410980D01*
X715210Y410989D01*
X715311Y411002D01*
X715411Y411019D01*
X715510Y411040D01*
X715608Y411064D01*
X715705Y411092D01*
X715802Y411124D01*
X715897Y411159D01*
X715990Y411198D01*
X716082Y411240D01*
X716173Y411286D01*
X716262Y411335D01*
X716348Y411387D01*
X716433Y411443D01*
X716516Y411501D01*
X716596Y411563D01*
X716674Y411628D01*
X716750Y411695D01*
X716823Y411765D01*
X716893Y411838D01*
X716960Y411914D01*
X717025Y411992D01*
X717087Y412072D01*
X717145Y412155D01*
X717201Y412240D01*
X717253Y412327D01*
X717302Y412415D01*
X717348Y412506D01*
X717390Y412598D01*
X717429Y412691D01*
X717464Y412786D01*
X717496Y412883D01*
X717524Y412980D01*
X717548Y413078D01*
X717569Y413177D01*
X717586Y413277D01*
X717599Y413378D01*
X717608Y413479D01*
X717614Y413580D01*
X717616Y413681D01*
X717616Y419100D01*
X717614Y419201D01*
X717608Y419302D01*
X717599Y419403D01*
X717586Y419504D01*
X717569Y419604D01*
X717548Y419703D01*
X717524Y419801D01*
X717496Y419898D01*
X717464Y419995D01*
X717429Y420090D01*
X717390Y420183D01*
X717348Y420275D01*
X717302Y420366D01*
X717253Y420455D01*
X717201Y420541D01*
X717145Y420626D01*
X717087Y420709D01*
X717025Y420789D01*
X716960Y420867D01*
X716893Y420943D01*
X716823Y421016D01*
X716750Y421086D01*
X716674Y421153D01*
X716596Y421218D01*
X716516Y421280D01*
X716433Y421338D01*
X716348Y421394D01*
X716262Y421446D01*
X716173Y421495D01*
X716082Y421541D01*
X715990Y421583D01*
X715897Y421622D01*
X715802Y421657D01*
X715705Y421689D01*
X715608Y421717D01*
X715510Y421741D01*
X715411Y421762D01*
X715311Y421779D01*
X715210Y421792D01*
X715109Y421801D01*
X715008Y421807D01*
X714907Y421809D01*
X711294Y421809D01*
X705650Y418197D02*
X705650Y414584D01*
X705649Y418197D02*
X705647Y418316D01*
X705641Y418436D01*
X705631Y418555D01*
X705617Y418673D01*
X705600Y418792D01*
X705578Y418909D01*
X705553Y419026D01*
X705523Y419141D01*
X705490Y419256D01*
X705453Y419370D01*
X705413Y419482D01*
X705368Y419593D01*
X705320Y419702D01*
X705269Y419810D01*
X705214Y419916D01*
X705155Y420020D01*
X705093Y420122D01*
X705028Y420222D01*
X704959Y420320D01*
X704887Y420416D01*
X704812Y420509D01*
X704735Y420599D01*
X704654Y420687D01*
X704570Y420772D01*
X704483Y420854D01*
X704394Y420934D01*
X704302Y421010D01*
X704208Y421084D01*
X704111Y421154D01*
X704013Y421221D01*
X703912Y421285D01*
X703808Y421345D01*
X703703Y421402D01*
X703596Y421455D01*
X703488Y421505D01*
X703378Y421551D01*
X703266Y421593D01*
X703153Y421632D01*
X703039Y421667D01*
X702924Y421698D01*
X702807Y421726D01*
X702690Y421749D01*
X702573Y421769D01*
X702454Y421785D01*
X702335Y421797D01*
X702216Y421805D01*
X702097Y421809D01*
X701977Y421809D01*
X701858Y421805D01*
X701739Y421797D01*
X701620Y421785D01*
X701501Y421769D01*
X701384Y421749D01*
X701267Y421726D01*
X701150Y421698D01*
X701035Y421667D01*
X700921Y421632D01*
X700808Y421593D01*
X700696Y421551D01*
X700586Y421505D01*
X700478Y421455D01*
X700371Y421402D01*
X700266Y421345D01*
X700162Y421285D01*
X700061Y421221D01*
X699963Y421154D01*
X699866Y421084D01*
X699772Y421010D01*
X699680Y420934D01*
X699591Y420854D01*
X699504Y420772D01*
X699420Y420687D01*
X699339Y420599D01*
X699262Y420509D01*
X699187Y420416D01*
X699115Y420320D01*
X699046Y420222D01*
X698981Y420122D01*
X698919Y420020D01*
X698860Y419916D01*
X698805Y419810D01*
X698754Y419702D01*
X698706Y419593D01*
X698661Y419482D01*
X698621Y419370D01*
X698584Y419256D01*
X698551Y419141D01*
X698521Y419026D01*
X698496Y418909D01*
X698474Y418792D01*
X698457Y418673D01*
X698443Y418555D01*
X698433Y418436D01*
X698427Y418316D01*
X698425Y418197D01*
X698425Y414584D01*
X698427Y414465D01*
X698433Y414345D01*
X698443Y414226D01*
X698457Y414108D01*
X698474Y413989D01*
X698496Y413872D01*
X698521Y413755D01*
X698551Y413640D01*
X698584Y413525D01*
X698621Y413411D01*
X698661Y413299D01*
X698706Y413188D01*
X698754Y413079D01*
X698805Y412971D01*
X698860Y412865D01*
X698919Y412761D01*
X698981Y412659D01*
X699046Y412559D01*
X699115Y412461D01*
X699187Y412365D01*
X699262Y412272D01*
X699339Y412182D01*
X699420Y412094D01*
X699504Y412009D01*
X699591Y411927D01*
X699680Y411847D01*
X699772Y411771D01*
X699866Y411697D01*
X699963Y411627D01*
X700061Y411560D01*
X700162Y411496D01*
X700266Y411436D01*
X700371Y411379D01*
X700478Y411326D01*
X700586Y411276D01*
X700696Y411230D01*
X700808Y411188D01*
X700921Y411149D01*
X701035Y411114D01*
X701150Y411083D01*
X701267Y411055D01*
X701384Y411032D01*
X701501Y411012D01*
X701620Y410996D01*
X701739Y410984D01*
X701858Y410976D01*
X701977Y410972D01*
X702097Y410972D01*
X702216Y410976D01*
X702335Y410984D01*
X702454Y410996D01*
X702573Y411012D01*
X702690Y411032D01*
X702807Y411055D01*
X702924Y411083D01*
X703039Y411114D01*
X703153Y411149D01*
X703266Y411188D01*
X703378Y411230D01*
X703488Y411276D01*
X703596Y411326D01*
X703703Y411379D01*
X703808Y411436D01*
X703912Y411496D01*
X704013Y411560D01*
X704111Y411627D01*
X704208Y411697D01*
X704302Y411771D01*
X704394Y411847D01*
X704483Y411927D01*
X704570Y412009D01*
X704654Y412094D01*
X704735Y412182D01*
X704812Y412272D01*
X704887Y412365D01*
X704959Y412461D01*
X705028Y412559D01*
X705093Y412659D01*
X705155Y412761D01*
X705214Y412865D01*
X705269Y412971D01*
X705320Y413079D01*
X705368Y413188D01*
X705413Y413299D01*
X705453Y413411D01*
X705490Y413525D01*
X705523Y413640D01*
X705553Y413755D01*
X705578Y413872D01*
X705600Y413989D01*
X705617Y414108D01*
X705631Y414226D01*
X705641Y414345D01*
X705647Y414465D01*
X705649Y414584D01*
X690748Y417294D02*
X686232Y415488D01*
X690748Y417294D02*
X690836Y417331D01*
X690922Y417372D01*
X691007Y417416D01*
X691090Y417464D01*
X691170Y417515D01*
X691249Y417569D01*
X691325Y417627D01*
X691399Y417687D01*
X691471Y417751D01*
X691539Y417817D01*
X691605Y417887D01*
X691668Y417958D01*
X691729Y418033D01*
X691786Y418109D01*
X691839Y418188D01*
X691890Y418269D01*
X691937Y418352D01*
X691981Y418437D01*
X692021Y418524D01*
X692058Y418612D01*
X692091Y418702D01*
X692121Y418793D01*
X692146Y418885D01*
X692168Y418978D01*
X692186Y419072D01*
X692201Y419166D01*
X692211Y419261D01*
X692217Y419357D01*
X692220Y419452D01*
X692219Y419548D01*
X692213Y419643D01*
X692204Y419739D01*
X692191Y419833D01*
X692175Y419927D01*
X692154Y420021D01*
X692129Y420113D01*
X692101Y420204D01*
X692069Y420294D01*
X692034Y420383D01*
X691995Y420470D01*
X691952Y420556D01*
X691906Y420640D01*
X691856Y420721D01*
X691804Y420801D01*
X691748Y420879D01*
X691688Y420954D01*
X691626Y421026D01*
X691561Y421096D01*
X691493Y421164D01*
X691423Y421228D01*
X691350Y421290D01*
X691274Y421348D01*
X691196Y421404D01*
X691116Y421456D01*
X691034Y421505D01*
X690950Y421550D01*
X690864Y421592D01*
X690777Y421631D01*
X690688Y421666D01*
X690597Y421697D01*
X690506Y421724D01*
X690413Y421748D01*
X690320Y421768D01*
X690226Y421784D01*
X690131Y421796D01*
X690036Y421805D01*
X689940Y421809D01*
X689845Y421810D01*
X689598Y421803D01*
X689352Y421791D01*
X689106Y421773D01*
X688860Y421748D01*
X688616Y421718D01*
X688372Y421682D01*
X688129Y421641D01*
X687887Y421593D01*
X687646Y421539D01*
X687407Y421480D01*
X687169Y421415D01*
X686933Y421344D01*
X686698Y421268D01*
X686465Y421186D01*
X686235Y421098D01*
X686007Y421005D01*
X685780Y420907D01*
X686232Y415487D02*
X686144Y415450D01*
X686058Y415409D01*
X685973Y415365D01*
X685890Y415317D01*
X685810Y415266D01*
X685731Y415212D01*
X685655Y415154D01*
X685581Y415094D01*
X685509Y415030D01*
X685441Y414964D01*
X685375Y414894D01*
X685312Y414823D01*
X685251Y414748D01*
X685194Y414672D01*
X685141Y414593D01*
X685090Y414512D01*
X685043Y414429D01*
X684999Y414344D01*
X684959Y414257D01*
X684922Y414169D01*
X684889Y414079D01*
X684859Y413988D01*
X684834Y413896D01*
X684812Y413803D01*
X684794Y413709D01*
X684779Y413615D01*
X684769Y413520D01*
X684763Y413424D01*
X684760Y413329D01*
X684761Y413233D01*
X684767Y413138D01*
X684776Y413042D01*
X684789Y412948D01*
X684805Y412854D01*
X684826Y412760D01*
X684851Y412668D01*
X684879Y412577D01*
X684911Y412487D01*
X684946Y412398D01*
X684985Y412311D01*
X685028Y412225D01*
X685074Y412141D01*
X685124Y412060D01*
X685176Y411980D01*
X685232Y411902D01*
X685292Y411827D01*
X685354Y411755D01*
X685419Y411685D01*
X685487Y411617D01*
X685557Y411553D01*
X685630Y411491D01*
X685706Y411433D01*
X685784Y411377D01*
X685864Y411325D01*
X685946Y411276D01*
X686030Y411231D01*
X686116Y411189D01*
X686203Y411150D01*
X686292Y411115D01*
X686383Y411084D01*
X686474Y411057D01*
X686567Y411033D01*
X686660Y411013D01*
X686754Y410997D01*
X686849Y410985D01*
X686944Y410976D01*
X687040Y410972D01*
X687135Y410971D01*
X687136Y410972D02*
X687498Y410981D01*
X687860Y410999D01*
X688221Y411026D01*
X688581Y411061D01*
X688941Y411104D01*
X689300Y411156D01*
X689657Y411217D01*
X690012Y411286D01*
X690366Y411363D01*
X690718Y411449D01*
X691068Y411543D01*
X691416Y411646D01*
X691761Y411756D01*
X692103Y411875D01*
X663067Y410972D02*
X663067Y427228D01*
X663067Y410972D02*
X667583Y410972D01*
X667684Y410974D01*
X667785Y410980D01*
X667886Y410989D01*
X667987Y411002D01*
X668087Y411019D01*
X668186Y411040D01*
X668284Y411064D01*
X668381Y411092D01*
X668478Y411124D01*
X668573Y411159D01*
X668666Y411198D01*
X668758Y411240D01*
X668849Y411286D01*
X668938Y411335D01*
X669024Y411387D01*
X669109Y411443D01*
X669192Y411501D01*
X669272Y411563D01*
X669350Y411628D01*
X669426Y411695D01*
X669499Y411765D01*
X669569Y411838D01*
X669636Y411914D01*
X669701Y411992D01*
X669763Y412072D01*
X669821Y412155D01*
X669877Y412240D01*
X669929Y412327D01*
X669978Y412415D01*
X670024Y412506D01*
X670066Y412598D01*
X670105Y412691D01*
X670140Y412786D01*
X670172Y412883D01*
X670200Y412980D01*
X670224Y413078D01*
X670245Y413177D01*
X670262Y413277D01*
X670275Y413378D01*
X670284Y413479D01*
X670290Y413580D01*
X670292Y413681D01*
X670292Y419100D01*
X670290Y419201D01*
X670284Y419302D01*
X670275Y419403D01*
X670262Y419504D01*
X670245Y419604D01*
X670224Y419703D01*
X670200Y419801D01*
X670172Y419898D01*
X670140Y419995D01*
X670105Y420090D01*
X670066Y420183D01*
X670024Y420275D01*
X669978Y420366D01*
X669929Y420455D01*
X669877Y420541D01*
X669821Y420626D01*
X669763Y420709D01*
X669701Y420789D01*
X669636Y420867D01*
X669569Y420943D01*
X669499Y421016D01*
X669426Y421086D01*
X669350Y421153D01*
X669272Y421218D01*
X669192Y421280D01*
X669109Y421338D01*
X669024Y421394D01*
X668938Y421446D01*
X668849Y421495D01*
X668758Y421541D01*
X668666Y421583D01*
X668573Y421622D01*
X668478Y421657D01*
X668381Y421689D01*
X668284Y421717D01*
X668186Y421741D01*
X668087Y421762D01*
X667987Y421779D01*
X667886Y421792D01*
X667785Y421801D01*
X667684Y421807D01*
X667583Y421809D01*
X663067Y421809D01*
X653441Y410972D02*
X648926Y410972D01*
X653441Y410972D02*
X653542Y410974D01*
X653643Y410980D01*
X653744Y410989D01*
X653845Y411002D01*
X653945Y411019D01*
X654044Y411040D01*
X654142Y411064D01*
X654239Y411092D01*
X654336Y411124D01*
X654431Y411159D01*
X654524Y411198D01*
X654616Y411240D01*
X654707Y411286D01*
X654796Y411335D01*
X654882Y411387D01*
X654967Y411443D01*
X655050Y411501D01*
X655130Y411563D01*
X655208Y411628D01*
X655284Y411695D01*
X655357Y411765D01*
X655427Y411838D01*
X655494Y411914D01*
X655559Y411992D01*
X655621Y412072D01*
X655679Y412155D01*
X655735Y412240D01*
X655787Y412327D01*
X655836Y412415D01*
X655882Y412506D01*
X655924Y412598D01*
X655963Y412691D01*
X655998Y412786D01*
X656030Y412883D01*
X656058Y412980D01*
X656082Y413078D01*
X656103Y413177D01*
X656120Y413277D01*
X656133Y413378D01*
X656142Y413479D01*
X656148Y413580D01*
X656150Y413681D01*
X656151Y413681D02*
X656151Y418197D01*
X656150Y418197D02*
X656148Y418316D01*
X656142Y418436D01*
X656132Y418555D01*
X656118Y418673D01*
X656101Y418792D01*
X656079Y418909D01*
X656054Y419026D01*
X656024Y419141D01*
X655991Y419256D01*
X655954Y419370D01*
X655914Y419482D01*
X655869Y419593D01*
X655821Y419702D01*
X655770Y419810D01*
X655715Y419916D01*
X655656Y420020D01*
X655594Y420122D01*
X655529Y420222D01*
X655460Y420320D01*
X655388Y420416D01*
X655313Y420509D01*
X655236Y420599D01*
X655155Y420687D01*
X655071Y420772D01*
X654984Y420854D01*
X654895Y420934D01*
X654803Y421010D01*
X654709Y421084D01*
X654612Y421154D01*
X654514Y421221D01*
X654413Y421285D01*
X654309Y421345D01*
X654204Y421402D01*
X654097Y421455D01*
X653989Y421505D01*
X653879Y421551D01*
X653767Y421593D01*
X653654Y421632D01*
X653540Y421667D01*
X653425Y421698D01*
X653308Y421726D01*
X653191Y421749D01*
X653074Y421769D01*
X652955Y421785D01*
X652836Y421797D01*
X652717Y421805D01*
X652598Y421809D01*
X652478Y421809D01*
X652359Y421805D01*
X652240Y421797D01*
X652121Y421785D01*
X652002Y421769D01*
X651885Y421749D01*
X651768Y421726D01*
X651651Y421698D01*
X651536Y421667D01*
X651422Y421632D01*
X651309Y421593D01*
X651197Y421551D01*
X651087Y421505D01*
X650979Y421455D01*
X650872Y421402D01*
X650767Y421345D01*
X650663Y421285D01*
X650562Y421221D01*
X650464Y421154D01*
X650367Y421084D01*
X650273Y421010D01*
X650181Y420934D01*
X650092Y420854D01*
X650005Y420772D01*
X649921Y420687D01*
X649840Y420599D01*
X649763Y420509D01*
X649688Y420416D01*
X649616Y420320D01*
X649547Y420222D01*
X649482Y420122D01*
X649420Y420020D01*
X649361Y419916D01*
X649306Y419810D01*
X649255Y419702D01*
X649207Y419593D01*
X649162Y419482D01*
X649122Y419370D01*
X649085Y419256D01*
X649052Y419141D01*
X649022Y419026D01*
X648997Y418909D01*
X648975Y418792D01*
X648958Y418673D01*
X648944Y418555D01*
X648934Y418436D01*
X648928Y418316D01*
X648926Y418197D01*
X648926Y416391D01*
X656151Y416391D01*
X633468Y410972D02*
X633468Y427228D01*
X628049Y418197D01*
X622631Y427228D01*
X622631Y410972D01*
X612800Y410972D02*
X608285Y410972D01*
X612800Y410972D02*
X612901Y410974D01*
X613002Y410980D01*
X613103Y410989D01*
X613204Y411002D01*
X613304Y411019D01*
X613403Y411040D01*
X613501Y411064D01*
X613598Y411092D01*
X613695Y411124D01*
X613790Y411159D01*
X613883Y411198D01*
X613975Y411240D01*
X614066Y411286D01*
X614155Y411335D01*
X614241Y411387D01*
X614326Y411443D01*
X614409Y411501D01*
X614489Y411563D01*
X614567Y411628D01*
X614643Y411695D01*
X614716Y411765D01*
X614786Y411838D01*
X614853Y411914D01*
X614918Y411992D01*
X614980Y412072D01*
X615038Y412155D01*
X615094Y412240D01*
X615146Y412327D01*
X615195Y412415D01*
X615241Y412506D01*
X615283Y412598D01*
X615322Y412691D01*
X615357Y412786D01*
X615389Y412883D01*
X615417Y412980D01*
X615441Y413078D01*
X615462Y413177D01*
X615479Y413277D01*
X615492Y413378D01*
X615501Y413479D01*
X615507Y413580D01*
X615509Y413681D01*
X615510Y413681D02*
X615510Y418197D01*
X615509Y418197D02*
X615507Y418316D01*
X615501Y418436D01*
X615491Y418555D01*
X615477Y418673D01*
X615460Y418792D01*
X615438Y418909D01*
X615413Y419026D01*
X615383Y419141D01*
X615350Y419256D01*
X615313Y419370D01*
X615273Y419482D01*
X615228Y419593D01*
X615180Y419702D01*
X615129Y419810D01*
X615074Y419916D01*
X615015Y420020D01*
X614953Y420122D01*
X614888Y420222D01*
X614819Y420320D01*
X614747Y420416D01*
X614672Y420509D01*
X614595Y420599D01*
X614514Y420687D01*
X614430Y420772D01*
X614343Y420854D01*
X614254Y420934D01*
X614162Y421010D01*
X614068Y421084D01*
X613971Y421154D01*
X613873Y421221D01*
X613772Y421285D01*
X613668Y421345D01*
X613563Y421402D01*
X613456Y421455D01*
X613348Y421505D01*
X613238Y421551D01*
X613126Y421593D01*
X613013Y421632D01*
X612899Y421667D01*
X612784Y421698D01*
X612667Y421726D01*
X612550Y421749D01*
X612433Y421769D01*
X612314Y421785D01*
X612195Y421797D01*
X612076Y421805D01*
X611957Y421809D01*
X611837Y421809D01*
X611718Y421805D01*
X611599Y421797D01*
X611480Y421785D01*
X611361Y421769D01*
X611244Y421749D01*
X611127Y421726D01*
X611010Y421698D01*
X610895Y421667D01*
X610781Y421632D01*
X610668Y421593D01*
X610556Y421551D01*
X610446Y421505D01*
X610338Y421455D01*
X610231Y421402D01*
X610126Y421345D01*
X610022Y421285D01*
X609921Y421221D01*
X609823Y421154D01*
X609726Y421084D01*
X609632Y421010D01*
X609540Y420934D01*
X609451Y420854D01*
X609364Y420772D01*
X609280Y420687D01*
X609199Y420599D01*
X609122Y420509D01*
X609047Y420416D01*
X608975Y420320D01*
X608906Y420222D01*
X608841Y420122D01*
X608779Y420020D01*
X608720Y419916D01*
X608665Y419810D01*
X608614Y419702D01*
X608566Y419593D01*
X608521Y419482D01*
X608481Y419370D01*
X608444Y419256D01*
X608411Y419141D01*
X608381Y419026D01*
X608356Y418909D01*
X608334Y418792D01*
X608317Y418673D01*
X608303Y418555D01*
X608293Y418436D01*
X608287Y418316D01*
X608285Y418197D01*
X608285Y416391D01*
X615510Y416391D01*
X612800Y425873D02*
X610091Y429034D01*
X595259Y421809D02*
X602484Y410972D01*
X595259Y410972D02*
X602484Y421809D01*
X589492Y421809D02*
X589492Y410972D01*
X589944Y426325D02*
X589944Y427228D01*
X589041Y427228D01*
X589041Y426325D01*
X589944Y426325D01*
X580478Y410972D02*
X576866Y410972D01*
X580478Y410972D02*
X580579Y410974D01*
X580680Y410980D01*
X580781Y410989D01*
X580882Y411002D01*
X580982Y411019D01*
X581081Y411040D01*
X581179Y411064D01*
X581276Y411092D01*
X581373Y411124D01*
X581468Y411159D01*
X581561Y411198D01*
X581653Y411240D01*
X581744Y411286D01*
X581833Y411335D01*
X581919Y411387D01*
X582004Y411443D01*
X582087Y411501D01*
X582167Y411563D01*
X582245Y411628D01*
X582321Y411695D01*
X582394Y411765D01*
X582464Y411838D01*
X582531Y411914D01*
X582596Y411992D01*
X582658Y412072D01*
X582716Y412155D01*
X582772Y412240D01*
X582824Y412327D01*
X582873Y412415D01*
X582919Y412506D01*
X582961Y412598D01*
X583000Y412691D01*
X583035Y412786D01*
X583067Y412883D01*
X583095Y412980D01*
X583119Y413078D01*
X583140Y413177D01*
X583157Y413277D01*
X583170Y413378D01*
X583179Y413479D01*
X583185Y413580D01*
X583187Y413681D01*
X583187Y419100D01*
X583185Y419201D01*
X583179Y419302D01*
X583170Y419403D01*
X583157Y419504D01*
X583140Y419604D01*
X583119Y419703D01*
X583095Y419801D01*
X583067Y419898D01*
X583035Y419995D01*
X583000Y420090D01*
X582961Y420183D01*
X582919Y420275D01*
X582873Y420366D01*
X582824Y420455D01*
X582772Y420541D01*
X582716Y420626D01*
X582658Y420709D01*
X582596Y420789D01*
X582531Y420867D01*
X582464Y420943D01*
X582394Y421016D01*
X582321Y421086D01*
X582245Y421153D01*
X582167Y421218D01*
X582087Y421280D01*
X582004Y421338D01*
X581919Y421394D01*
X581833Y421446D01*
X581744Y421495D01*
X581653Y421541D01*
X581561Y421583D01*
X581468Y421622D01*
X581373Y421657D01*
X581276Y421689D01*
X581179Y421717D01*
X581081Y421741D01*
X580982Y421762D01*
X580882Y421779D01*
X580781Y421792D01*
X580680Y421801D01*
X580579Y421807D01*
X580478Y421809D01*
X576866Y421809D01*
X571221Y418197D02*
X571221Y414584D01*
X571221Y418197D02*
X571219Y418316D01*
X571213Y418436D01*
X571203Y418555D01*
X571189Y418673D01*
X571172Y418792D01*
X571150Y418909D01*
X571125Y419026D01*
X571095Y419141D01*
X571062Y419256D01*
X571025Y419370D01*
X570985Y419482D01*
X570940Y419593D01*
X570892Y419702D01*
X570841Y419810D01*
X570786Y419916D01*
X570727Y420020D01*
X570665Y420122D01*
X570600Y420222D01*
X570531Y420320D01*
X570459Y420416D01*
X570384Y420509D01*
X570307Y420599D01*
X570226Y420687D01*
X570142Y420772D01*
X570055Y420854D01*
X569966Y420934D01*
X569874Y421010D01*
X569780Y421084D01*
X569683Y421154D01*
X569585Y421221D01*
X569484Y421285D01*
X569380Y421345D01*
X569275Y421402D01*
X569168Y421455D01*
X569060Y421505D01*
X568950Y421551D01*
X568838Y421593D01*
X568725Y421632D01*
X568611Y421667D01*
X568496Y421698D01*
X568379Y421726D01*
X568262Y421749D01*
X568145Y421769D01*
X568026Y421785D01*
X567907Y421797D01*
X567788Y421805D01*
X567669Y421809D01*
X567549Y421809D01*
X567430Y421805D01*
X567311Y421797D01*
X567192Y421785D01*
X567073Y421769D01*
X566956Y421749D01*
X566839Y421726D01*
X566722Y421698D01*
X566607Y421667D01*
X566493Y421632D01*
X566380Y421593D01*
X566268Y421551D01*
X566158Y421505D01*
X566050Y421455D01*
X565943Y421402D01*
X565838Y421345D01*
X565734Y421285D01*
X565633Y421221D01*
X565535Y421154D01*
X565438Y421084D01*
X565344Y421010D01*
X565252Y420934D01*
X565163Y420854D01*
X565076Y420772D01*
X564992Y420687D01*
X564911Y420599D01*
X564834Y420509D01*
X564759Y420416D01*
X564687Y420320D01*
X564618Y420222D01*
X564553Y420122D01*
X564491Y420020D01*
X564432Y419916D01*
X564377Y419810D01*
X564326Y419702D01*
X564278Y419593D01*
X564233Y419482D01*
X564193Y419370D01*
X564156Y419256D01*
X564123Y419141D01*
X564093Y419026D01*
X564068Y418909D01*
X564046Y418792D01*
X564029Y418673D01*
X564015Y418555D01*
X564005Y418436D01*
X563999Y418316D01*
X563997Y418197D01*
X563996Y418197D02*
X563996Y414584D01*
X563997Y414584D02*
X563999Y414465D01*
X564005Y414345D01*
X564015Y414226D01*
X564029Y414108D01*
X564046Y413989D01*
X564068Y413872D01*
X564093Y413755D01*
X564123Y413640D01*
X564156Y413525D01*
X564193Y413411D01*
X564233Y413299D01*
X564278Y413188D01*
X564326Y413079D01*
X564377Y412971D01*
X564432Y412865D01*
X564491Y412761D01*
X564553Y412659D01*
X564618Y412559D01*
X564687Y412461D01*
X564759Y412365D01*
X564834Y412272D01*
X564911Y412182D01*
X564992Y412094D01*
X565076Y412009D01*
X565163Y411927D01*
X565252Y411847D01*
X565344Y411771D01*
X565438Y411697D01*
X565535Y411627D01*
X565633Y411560D01*
X565734Y411496D01*
X565838Y411436D01*
X565943Y411379D01*
X566050Y411326D01*
X566158Y411276D01*
X566268Y411230D01*
X566380Y411188D01*
X566493Y411149D01*
X566607Y411114D01*
X566722Y411083D01*
X566839Y411055D01*
X566956Y411032D01*
X567073Y411012D01*
X567192Y410996D01*
X567311Y410984D01*
X567430Y410976D01*
X567549Y410972D01*
X567669Y410972D01*
X567788Y410976D01*
X567907Y410984D01*
X568026Y410996D01*
X568145Y411012D01*
X568262Y411032D01*
X568379Y411055D01*
X568496Y411083D01*
X568611Y411114D01*
X568725Y411149D01*
X568838Y411188D01*
X568950Y411230D01*
X569060Y411276D01*
X569168Y411326D01*
X569275Y411379D01*
X569380Y411436D01*
X569484Y411496D01*
X569585Y411560D01*
X569683Y411627D01*
X569780Y411697D01*
X569874Y411771D01*
X569966Y411847D01*
X570055Y411927D01*
X570142Y412009D01*
X570226Y412094D01*
X570307Y412182D01*
X570384Y412272D01*
X570459Y412365D01*
X570531Y412461D01*
X570600Y412559D01*
X570665Y412659D01*
X570727Y412761D01*
X570786Y412865D01*
X570841Y412971D01*
X570892Y413079D01*
X570940Y413188D01*
X570985Y413299D01*
X571025Y413411D01*
X571062Y413525D01*
X571095Y413640D01*
X571125Y413755D01*
X571150Y413872D01*
X571172Y413989D01*
X571189Y414108D01*
X571203Y414226D01*
X571213Y414345D01*
X571219Y414465D01*
X571221Y414584D01*
X962632Y400558D02*
X962632Y384302D01*
X964438Y384302D02*
X960826Y384302D01*
X960826Y400558D02*
X964438Y400558D01*
X954260Y395139D02*
X954260Y384302D01*
X954260Y395139D02*
X949745Y395139D01*
X949641Y395137D01*
X949538Y395131D01*
X949434Y395121D01*
X949331Y395107D01*
X949229Y395089D01*
X949128Y395068D01*
X949027Y395042D01*
X948928Y395013D01*
X948829Y394980D01*
X948732Y394943D01*
X948637Y394902D01*
X948543Y394858D01*
X948451Y394810D01*
X948361Y394759D01*
X948272Y394704D01*
X948186Y394646D01*
X948103Y394584D01*
X948021Y394520D01*
X947943Y394452D01*
X947867Y394382D01*
X947793Y394309D01*
X947723Y394232D01*
X947655Y394154D01*
X947591Y394072D01*
X947529Y393989D01*
X947471Y393903D01*
X947416Y393814D01*
X947365Y393724D01*
X947317Y393632D01*
X947273Y393538D01*
X947232Y393443D01*
X947195Y393346D01*
X947162Y393247D01*
X947133Y393148D01*
X947107Y393047D01*
X947086Y392946D01*
X947068Y392844D01*
X947054Y392741D01*
X947044Y392637D01*
X947038Y392534D01*
X947036Y392430D01*
X947035Y392430D02*
X947035Y384302D01*
X941490Y395139D02*
X936071Y395139D01*
X939683Y400558D02*
X939683Y387011D01*
X939681Y386910D01*
X939675Y386809D01*
X939666Y386708D01*
X939653Y386607D01*
X939636Y386507D01*
X939615Y386408D01*
X939591Y386310D01*
X939563Y386213D01*
X939531Y386116D01*
X939496Y386021D01*
X939457Y385928D01*
X939415Y385836D01*
X939369Y385745D01*
X939320Y385657D01*
X939268Y385570D01*
X939212Y385485D01*
X939154Y385402D01*
X939092Y385322D01*
X939027Y385244D01*
X938960Y385168D01*
X938890Y385095D01*
X938817Y385025D01*
X938741Y384958D01*
X938663Y384893D01*
X938583Y384831D01*
X938500Y384773D01*
X938415Y384717D01*
X938329Y384665D01*
X938240Y384616D01*
X938149Y384570D01*
X938057Y384528D01*
X937964Y384489D01*
X937869Y384454D01*
X937772Y384422D01*
X937675Y384394D01*
X937577Y384370D01*
X937478Y384349D01*
X937378Y384332D01*
X937277Y384319D01*
X937176Y384310D01*
X937075Y384304D01*
X936974Y384302D01*
X936071Y384302D01*
X927583Y384302D02*
X923068Y384302D01*
X927583Y384302D02*
X927684Y384304D01*
X927785Y384310D01*
X927886Y384319D01*
X927987Y384332D01*
X928087Y384349D01*
X928186Y384370D01*
X928284Y384394D01*
X928381Y384422D01*
X928478Y384454D01*
X928573Y384489D01*
X928666Y384528D01*
X928758Y384570D01*
X928849Y384616D01*
X928938Y384665D01*
X929024Y384717D01*
X929109Y384773D01*
X929192Y384831D01*
X929272Y384893D01*
X929350Y384958D01*
X929426Y385025D01*
X929499Y385095D01*
X929569Y385168D01*
X929636Y385244D01*
X929701Y385322D01*
X929763Y385402D01*
X929821Y385485D01*
X929877Y385570D01*
X929929Y385657D01*
X929978Y385745D01*
X930024Y385836D01*
X930066Y385928D01*
X930105Y386021D01*
X930140Y386116D01*
X930172Y386213D01*
X930200Y386310D01*
X930224Y386408D01*
X930245Y386507D01*
X930262Y386607D01*
X930275Y386708D01*
X930284Y386809D01*
X930290Y386910D01*
X930292Y387011D01*
X930292Y391527D01*
X930290Y391646D01*
X930284Y391766D01*
X930274Y391885D01*
X930260Y392003D01*
X930243Y392122D01*
X930221Y392239D01*
X930196Y392356D01*
X930166Y392471D01*
X930133Y392586D01*
X930096Y392700D01*
X930056Y392812D01*
X930011Y392923D01*
X929963Y393032D01*
X929912Y393140D01*
X929857Y393246D01*
X929798Y393350D01*
X929736Y393452D01*
X929671Y393552D01*
X929602Y393650D01*
X929530Y393746D01*
X929455Y393839D01*
X929378Y393929D01*
X929297Y394017D01*
X929213Y394102D01*
X929126Y394184D01*
X929037Y394264D01*
X928945Y394340D01*
X928851Y394414D01*
X928754Y394484D01*
X928656Y394551D01*
X928555Y394615D01*
X928451Y394675D01*
X928346Y394732D01*
X928239Y394785D01*
X928131Y394835D01*
X928021Y394881D01*
X927909Y394923D01*
X927796Y394962D01*
X927682Y394997D01*
X927567Y395028D01*
X927450Y395056D01*
X927333Y395079D01*
X927216Y395099D01*
X927097Y395115D01*
X926978Y395127D01*
X926859Y395135D01*
X926740Y395139D01*
X926620Y395139D01*
X926501Y395135D01*
X926382Y395127D01*
X926263Y395115D01*
X926144Y395099D01*
X926027Y395079D01*
X925910Y395056D01*
X925793Y395028D01*
X925678Y394997D01*
X925564Y394962D01*
X925451Y394923D01*
X925339Y394881D01*
X925229Y394835D01*
X925121Y394785D01*
X925014Y394732D01*
X924909Y394675D01*
X924805Y394615D01*
X924704Y394551D01*
X924606Y394484D01*
X924509Y394414D01*
X924415Y394340D01*
X924323Y394264D01*
X924234Y394184D01*
X924147Y394102D01*
X924063Y394017D01*
X923982Y393929D01*
X923905Y393839D01*
X923830Y393746D01*
X923758Y393650D01*
X923689Y393552D01*
X923624Y393452D01*
X923562Y393350D01*
X923503Y393246D01*
X923448Y393140D01*
X923397Y393032D01*
X923349Y392923D01*
X923304Y392812D01*
X923264Y392700D01*
X923227Y392586D01*
X923194Y392471D01*
X923164Y392356D01*
X923139Y392239D01*
X923117Y392122D01*
X923100Y392003D01*
X923086Y391885D01*
X923076Y391766D01*
X923070Y391646D01*
X923068Y391527D01*
X923068Y389721D01*
X930292Y389721D01*
X916140Y395139D02*
X916140Y384302D01*
X916140Y395139D02*
X910721Y395139D01*
X910721Y393333D01*
X904916Y397849D02*
X904916Y384302D01*
X904915Y397849D02*
X904913Y397950D01*
X904907Y398051D01*
X904898Y398152D01*
X904885Y398253D01*
X904868Y398353D01*
X904847Y398452D01*
X904823Y398550D01*
X904795Y398647D01*
X904763Y398744D01*
X904728Y398839D01*
X904689Y398932D01*
X904647Y399024D01*
X904601Y399115D01*
X904552Y399204D01*
X904500Y399290D01*
X904444Y399375D01*
X904386Y399458D01*
X904324Y399538D01*
X904259Y399616D01*
X904192Y399692D01*
X904122Y399765D01*
X904049Y399835D01*
X903973Y399902D01*
X903895Y399967D01*
X903815Y400029D01*
X903732Y400087D01*
X903647Y400143D01*
X903561Y400195D01*
X903472Y400244D01*
X903381Y400290D01*
X903289Y400332D01*
X903196Y400371D01*
X903101Y400406D01*
X903004Y400438D01*
X902907Y400466D01*
X902809Y400490D01*
X902710Y400511D01*
X902610Y400528D01*
X902509Y400541D01*
X902408Y400550D01*
X902307Y400556D01*
X902206Y400558D01*
X901303Y400558D01*
X901303Y395139D02*
X906722Y395139D01*
X893858Y390624D02*
X889794Y390624D01*
X893858Y390624D02*
X893970Y390622D01*
X894081Y390616D01*
X894192Y390606D01*
X894303Y390593D01*
X894413Y390575D01*
X894522Y390553D01*
X894631Y390528D01*
X894739Y390499D01*
X894845Y390466D01*
X894951Y390429D01*
X895055Y390389D01*
X895157Y390345D01*
X895258Y390297D01*
X895357Y390246D01*
X895455Y390191D01*
X895550Y390133D01*
X895643Y390072D01*
X895734Y390007D01*
X895823Y389939D01*
X895909Y389868D01*
X895992Y389795D01*
X896073Y389718D01*
X896152Y389638D01*
X896227Y389556D01*
X896299Y389471D01*
X896369Y389384D01*
X896435Y389294D01*
X896498Y389202D01*
X896558Y389107D01*
X896614Y389011D01*
X896667Y388913D01*
X896716Y388813D01*
X896762Y388711D01*
X896804Y388608D01*
X896843Y388503D01*
X896878Y388397D01*
X896909Y388290D01*
X896936Y388182D01*
X896960Y388073D01*
X896979Y387963D01*
X896995Y387853D01*
X897007Y387742D01*
X897015Y387630D01*
X897019Y387519D01*
X897019Y387407D01*
X897015Y387296D01*
X897007Y387184D01*
X896995Y387073D01*
X896979Y386963D01*
X896960Y386853D01*
X896936Y386744D01*
X896909Y386636D01*
X896878Y386529D01*
X896843Y386423D01*
X896804Y386318D01*
X896762Y386215D01*
X896716Y386113D01*
X896667Y386013D01*
X896614Y385915D01*
X896558Y385819D01*
X896498Y385724D01*
X896435Y385632D01*
X896369Y385542D01*
X896299Y385455D01*
X896227Y385370D01*
X896152Y385288D01*
X896073Y385208D01*
X895992Y385131D01*
X895909Y385058D01*
X895823Y384987D01*
X895734Y384919D01*
X895643Y384854D01*
X895550Y384793D01*
X895455Y384735D01*
X895357Y384680D01*
X895258Y384629D01*
X895157Y384581D01*
X895055Y384537D01*
X894951Y384497D01*
X894845Y384460D01*
X894739Y384427D01*
X894631Y384398D01*
X894522Y384373D01*
X894413Y384351D01*
X894303Y384333D01*
X894192Y384320D01*
X894081Y384310D01*
X893970Y384304D01*
X893858Y384302D01*
X889794Y384302D01*
X889794Y392430D01*
X889795Y392430D02*
X889797Y392531D01*
X889803Y392632D01*
X889812Y392733D01*
X889825Y392834D01*
X889842Y392934D01*
X889863Y393033D01*
X889887Y393131D01*
X889915Y393228D01*
X889947Y393325D01*
X889982Y393420D01*
X890021Y393513D01*
X890063Y393605D01*
X890109Y393696D01*
X890158Y393785D01*
X890210Y393871D01*
X890266Y393956D01*
X890324Y394039D01*
X890386Y394119D01*
X890451Y394197D01*
X890518Y394273D01*
X890588Y394346D01*
X890661Y394416D01*
X890737Y394483D01*
X890815Y394548D01*
X890895Y394610D01*
X890978Y394668D01*
X891063Y394724D01*
X891150Y394776D01*
X891238Y394825D01*
X891329Y394871D01*
X891421Y394913D01*
X891514Y394952D01*
X891609Y394987D01*
X891706Y395019D01*
X891803Y395047D01*
X891901Y395071D01*
X892000Y395092D01*
X892100Y395109D01*
X892201Y395122D01*
X892302Y395131D01*
X892403Y395137D01*
X892504Y395139D01*
X896116Y395139D01*
X883399Y395139D02*
X876174Y395139D01*
X883399Y384302D01*
X876174Y384302D01*
X861346Y384302D02*
X854122Y384302D01*
X861346Y384302D02*
X861346Y400558D01*
X854122Y400558D01*
X855928Y393333D02*
X861346Y393333D01*
X841338Y400558D02*
X841338Y384302D01*
X845853Y384302D01*
X845954Y384304D01*
X846055Y384310D01*
X846156Y384319D01*
X846257Y384332D01*
X846357Y384349D01*
X846456Y384370D01*
X846554Y384394D01*
X846651Y384422D01*
X846748Y384454D01*
X846843Y384489D01*
X846936Y384528D01*
X847028Y384570D01*
X847119Y384616D01*
X847208Y384665D01*
X847294Y384717D01*
X847379Y384773D01*
X847462Y384831D01*
X847542Y384893D01*
X847620Y384958D01*
X847696Y385025D01*
X847769Y385095D01*
X847839Y385168D01*
X847906Y385244D01*
X847971Y385322D01*
X848033Y385402D01*
X848091Y385485D01*
X848147Y385570D01*
X848199Y385657D01*
X848248Y385745D01*
X848294Y385836D01*
X848336Y385928D01*
X848375Y386021D01*
X848410Y386116D01*
X848442Y386213D01*
X848470Y386310D01*
X848494Y386408D01*
X848515Y386507D01*
X848532Y386607D01*
X848545Y386708D01*
X848554Y386809D01*
X848560Y386910D01*
X848562Y387011D01*
X848562Y392430D01*
X848560Y392531D01*
X848554Y392632D01*
X848545Y392733D01*
X848532Y392834D01*
X848515Y392934D01*
X848494Y393033D01*
X848470Y393131D01*
X848442Y393228D01*
X848410Y393325D01*
X848375Y393420D01*
X848336Y393513D01*
X848294Y393605D01*
X848248Y393696D01*
X848199Y393785D01*
X848147Y393871D01*
X848091Y393956D01*
X848033Y394039D01*
X847971Y394119D01*
X847906Y394197D01*
X847839Y394273D01*
X847769Y394346D01*
X847696Y394416D01*
X847620Y394483D01*
X847542Y394548D01*
X847462Y394610D01*
X847379Y394668D01*
X847294Y394724D01*
X847208Y394776D01*
X847119Y394825D01*
X847028Y394871D01*
X846936Y394913D01*
X846843Y394952D01*
X846748Y394987D01*
X846651Y395019D01*
X846554Y395047D01*
X846456Y395071D01*
X846357Y395092D01*
X846257Y395109D01*
X846156Y395122D01*
X846055Y395131D01*
X845954Y395137D01*
X845853Y395139D01*
X841338Y395139D01*
X833827Y395139D02*
X833827Y378883D01*
X833827Y395139D02*
X829311Y395139D01*
X829207Y395137D01*
X829104Y395131D01*
X829000Y395121D01*
X828897Y395107D01*
X828795Y395089D01*
X828694Y395068D01*
X828593Y395042D01*
X828494Y395013D01*
X828395Y394980D01*
X828298Y394943D01*
X828203Y394902D01*
X828109Y394858D01*
X828017Y394810D01*
X827927Y394759D01*
X827838Y394704D01*
X827752Y394646D01*
X827669Y394584D01*
X827587Y394520D01*
X827509Y394452D01*
X827433Y394382D01*
X827359Y394309D01*
X827289Y394232D01*
X827221Y394154D01*
X827157Y394072D01*
X827095Y393989D01*
X827037Y393903D01*
X826982Y393814D01*
X826931Y393724D01*
X826883Y393632D01*
X826839Y393538D01*
X826798Y393443D01*
X826761Y393346D01*
X826728Y393247D01*
X826699Y393148D01*
X826673Y393047D01*
X826652Y392946D01*
X826634Y392844D01*
X826620Y392741D01*
X826610Y392637D01*
X826604Y392534D01*
X826602Y392430D01*
X826602Y387011D01*
X826604Y386910D01*
X826610Y386809D01*
X826619Y386708D01*
X826632Y386607D01*
X826649Y386507D01*
X826670Y386408D01*
X826694Y386310D01*
X826722Y386213D01*
X826754Y386116D01*
X826789Y386021D01*
X826828Y385928D01*
X826870Y385836D01*
X826916Y385745D01*
X826965Y385656D01*
X827017Y385570D01*
X827073Y385485D01*
X827131Y385402D01*
X827193Y385322D01*
X827258Y385244D01*
X827325Y385168D01*
X827395Y385095D01*
X827468Y385025D01*
X827544Y384958D01*
X827622Y384893D01*
X827702Y384831D01*
X827785Y384773D01*
X827870Y384717D01*
X827957Y384665D01*
X828045Y384616D01*
X828136Y384570D01*
X828228Y384528D01*
X828321Y384489D01*
X828416Y384454D01*
X828513Y384422D01*
X828610Y384394D01*
X828708Y384370D01*
X828807Y384349D01*
X828907Y384332D01*
X829008Y384319D01*
X829109Y384310D01*
X829210Y384304D01*
X829311Y384302D01*
X833827Y384302D01*
X817644Y384302D02*
X813128Y384302D01*
X817644Y384302D02*
X817745Y384304D01*
X817846Y384310D01*
X817947Y384319D01*
X818048Y384332D01*
X818148Y384349D01*
X818247Y384370D01*
X818345Y384394D01*
X818442Y384422D01*
X818539Y384454D01*
X818634Y384489D01*
X818727Y384528D01*
X818819Y384570D01*
X818910Y384616D01*
X818999Y384665D01*
X819085Y384717D01*
X819170Y384773D01*
X819253Y384831D01*
X819333Y384893D01*
X819411Y384958D01*
X819487Y385025D01*
X819560Y385095D01*
X819630Y385168D01*
X819697Y385244D01*
X819762Y385322D01*
X819824Y385402D01*
X819882Y385485D01*
X819938Y385570D01*
X819990Y385657D01*
X820039Y385745D01*
X820085Y385836D01*
X820127Y385928D01*
X820166Y386021D01*
X820201Y386116D01*
X820233Y386213D01*
X820261Y386310D01*
X820285Y386408D01*
X820306Y386507D01*
X820323Y386607D01*
X820336Y386708D01*
X820345Y386809D01*
X820351Y386910D01*
X820353Y387011D01*
X820353Y391527D01*
X820351Y391646D01*
X820345Y391766D01*
X820335Y391885D01*
X820321Y392003D01*
X820304Y392122D01*
X820282Y392239D01*
X820257Y392356D01*
X820227Y392471D01*
X820194Y392586D01*
X820157Y392700D01*
X820117Y392812D01*
X820072Y392923D01*
X820024Y393032D01*
X819973Y393140D01*
X819918Y393246D01*
X819859Y393350D01*
X819797Y393452D01*
X819732Y393552D01*
X819663Y393650D01*
X819591Y393746D01*
X819516Y393839D01*
X819439Y393929D01*
X819358Y394017D01*
X819274Y394102D01*
X819187Y394184D01*
X819098Y394264D01*
X819006Y394340D01*
X818912Y394414D01*
X818815Y394484D01*
X818717Y394551D01*
X818616Y394615D01*
X818512Y394675D01*
X818407Y394732D01*
X818300Y394785D01*
X818192Y394835D01*
X818082Y394881D01*
X817970Y394923D01*
X817857Y394962D01*
X817743Y394997D01*
X817628Y395028D01*
X817511Y395056D01*
X817394Y395079D01*
X817277Y395099D01*
X817158Y395115D01*
X817039Y395127D01*
X816920Y395135D01*
X816801Y395139D01*
X816681Y395139D01*
X816562Y395135D01*
X816443Y395127D01*
X816324Y395115D01*
X816205Y395099D01*
X816088Y395079D01*
X815971Y395056D01*
X815854Y395028D01*
X815739Y394997D01*
X815625Y394962D01*
X815512Y394923D01*
X815400Y394881D01*
X815290Y394835D01*
X815182Y394785D01*
X815075Y394732D01*
X814970Y394675D01*
X814866Y394615D01*
X814765Y394551D01*
X814667Y394484D01*
X814570Y394414D01*
X814476Y394340D01*
X814384Y394264D01*
X814295Y394184D01*
X814208Y394102D01*
X814124Y394017D01*
X814043Y393929D01*
X813966Y393839D01*
X813891Y393746D01*
X813819Y393650D01*
X813750Y393552D01*
X813685Y393452D01*
X813623Y393350D01*
X813564Y393246D01*
X813509Y393140D01*
X813458Y393032D01*
X813410Y392923D01*
X813365Y392812D01*
X813325Y392700D01*
X813288Y392586D01*
X813255Y392471D01*
X813225Y392356D01*
X813200Y392239D01*
X813178Y392122D01*
X813161Y392003D01*
X813147Y391885D01*
X813137Y391766D01*
X813131Y391646D01*
X813129Y391527D01*
X813128Y391527D02*
X813128Y389721D01*
X820353Y389721D01*
X799654Y384302D02*
X799654Y400558D01*
X799654Y384302D02*
X804170Y384302D01*
X804271Y384304D01*
X804372Y384310D01*
X804473Y384319D01*
X804574Y384332D01*
X804674Y384349D01*
X804773Y384370D01*
X804871Y384394D01*
X804968Y384422D01*
X805065Y384454D01*
X805160Y384489D01*
X805253Y384528D01*
X805345Y384570D01*
X805436Y384616D01*
X805525Y384665D01*
X805611Y384717D01*
X805696Y384773D01*
X805779Y384831D01*
X805859Y384893D01*
X805937Y384958D01*
X806013Y385025D01*
X806086Y385095D01*
X806156Y385168D01*
X806223Y385244D01*
X806288Y385322D01*
X806350Y385402D01*
X806408Y385485D01*
X806464Y385570D01*
X806516Y385657D01*
X806565Y385745D01*
X806611Y385836D01*
X806653Y385928D01*
X806692Y386021D01*
X806727Y386116D01*
X806759Y386213D01*
X806787Y386310D01*
X806811Y386408D01*
X806832Y386507D01*
X806849Y386607D01*
X806862Y386708D01*
X806871Y386809D01*
X806877Y386910D01*
X806879Y387011D01*
X806879Y392430D01*
X806877Y392531D01*
X806871Y392632D01*
X806862Y392733D01*
X806849Y392834D01*
X806832Y392934D01*
X806811Y393033D01*
X806787Y393131D01*
X806759Y393228D01*
X806727Y393325D01*
X806692Y393420D01*
X806653Y393513D01*
X806611Y393605D01*
X806565Y393696D01*
X806516Y393785D01*
X806464Y393871D01*
X806408Y393956D01*
X806350Y394039D01*
X806288Y394119D01*
X806223Y394197D01*
X806156Y394273D01*
X806086Y394346D01*
X806013Y394416D01*
X805937Y394483D01*
X805859Y394548D01*
X805779Y394610D01*
X805696Y394668D01*
X805611Y394724D01*
X805525Y394776D01*
X805436Y394825D01*
X805345Y394871D01*
X805253Y394913D01*
X805160Y394952D01*
X805065Y394987D01*
X804968Y395019D01*
X804871Y395047D01*
X804773Y395071D01*
X804674Y395092D01*
X804574Y395109D01*
X804473Y395122D01*
X804372Y395131D01*
X804271Y395137D01*
X804170Y395139D01*
X799654Y395139D01*
X792773Y395139D02*
X792773Y384302D01*
X793224Y399655D02*
X793224Y400558D01*
X792321Y400558D01*
X792321Y399655D01*
X793224Y399655D01*
X779334Y400558D02*
X779334Y384302D01*
X783849Y384302D01*
X783950Y384304D01*
X784051Y384310D01*
X784152Y384319D01*
X784253Y384332D01*
X784353Y384349D01*
X784452Y384370D01*
X784550Y384394D01*
X784647Y384422D01*
X784744Y384454D01*
X784839Y384489D01*
X784932Y384528D01*
X785024Y384570D01*
X785115Y384616D01*
X785204Y384665D01*
X785290Y384717D01*
X785375Y384773D01*
X785458Y384831D01*
X785538Y384893D01*
X785616Y384958D01*
X785692Y385025D01*
X785765Y385095D01*
X785835Y385168D01*
X785902Y385244D01*
X785967Y385322D01*
X786029Y385402D01*
X786087Y385485D01*
X786143Y385570D01*
X786195Y385657D01*
X786244Y385745D01*
X786290Y385836D01*
X786332Y385928D01*
X786371Y386021D01*
X786406Y386116D01*
X786438Y386213D01*
X786466Y386310D01*
X786490Y386408D01*
X786511Y386507D01*
X786528Y386607D01*
X786541Y386708D01*
X786550Y386809D01*
X786556Y386910D01*
X786558Y387011D01*
X786559Y387011D02*
X786559Y392430D01*
X786558Y392430D02*
X786556Y392531D01*
X786550Y392632D01*
X786541Y392733D01*
X786528Y392834D01*
X786511Y392934D01*
X786490Y393033D01*
X786466Y393131D01*
X786438Y393228D01*
X786406Y393325D01*
X786371Y393420D01*
X786332Y393513D01*
X786290Y393605D01*
X786244Y393696D01*
X786195Y393785D01*
X786143Y393871D01*
X786087Y393956D01*
X786029Y394039D01*
X785967Y394119D01*
X785902Y394197D01*
X785835Y394273D01*
X785765Y394346D01*
X785692Y394416D01*
X785616Y394483D01*
X785538Y394548D01*
X785458Y394610D01*
X785375Y394668D01*
X785290Y394724D01*
X785204Y394776D01*
X785115Y394825D01*
X785024Y394871D01*
X784932Y394913D01*
X784839Y394952D01*
X784744Y394987D01*
X784647Y395019D01*
X784550Y395047D01*
X784452Y395071D01*
X784353Y395092D01*
X784253Y395109D01*
X784152Y395122D01*
X784051Y395131D01*
X783950Y395137D01*
X783849Y395139D01*
X779334Y395139D01*
X772417Y391527D02*
X772417Y387914D01*
X772417Y391527D02*
X772415Y391646D01*
X772409Y391766D01*
X772399Y391885D01*
X772385Y392003D01*
X772368Y392122D01*
X772346Y392239D01*
X772321Y392356D01*
X772291Y392471D01*
X772258Y392586D01*
X772221Y392700D01*
X772181Y392812D01*
X772136Y392923D01*
X772088Y393032D01*
X772037Y393140D01*
X771982Y393246D01*
X771923Y393350D01*
X771861Y393452D01*
X771796Y393552D01*
X771727Y393650D01*
X771655Y393746D01*
X771580Y393839D01*
X771503Y393929D01*
X771422Y394017D01*
X771338Y394102D01*
X771251Y394184D01*
X771162Y394264D01*
X771070Y394340D01*
X770976Y394414D01*
X770879Y394484D01*
X770781Y394551D01*
X770680Y394615D01*
X770576Y394675D01*
X770471Y394732D01*
X770364Y394785D01*
X770256Y394835D01*
X770146Y394881D01*
X770034Y394923D01*
X769921Y394962D01*
X769807Y394997D01*
X769692Y395028D01*
X769575Y395056D01*
X769458Y395079D01*
X769341Y395099D01*
X769222Y395115D01*
X769103Y395127D01*
X768984Y395135D01*
X768865Y395139D01*
X768745Y395139D01*
X768626Y395135D01*
X768507Y395127D01*
X768388Y395115D01*
X768269Y395099D01*
X768152Y395079D01*
X768035Y395056D01*
X767918Y395028D01*
X767803Y394997D01*
X767689Y394962D01*
X767576Y394923D01*
X767464Y394881D01*
X767354Y394835D01*
X767246Y394785D01*
X767139Y394732D01*
X767034Y394675D01*
X766930Y394615D01*
X766829Y394551D01*
X766731Y394484D01*
X766634Y394414D01*
X766540Y394340D01*
X766448Y394264D01*
X766359Y394184D01*
X766272Y394102D01*
X766188Y394017D01*
X766107Y393929D01*
X766030Y393839D01*
X765955Y393746D01*
X765883Y393650D01*
X765814Y393552D01*
X765749Y393452D01*
X765687Y393350D01*
X765628Y393246D01*
X765573Y393140D01*
X765522Y393032D01*
X765474Y392923D01*
X765429Y392812D01*
X765389Y392700D01*
X765352Y392586D01*
X765319Y392471D01*
X765289Y392356D01*
X765264Y392239D01*
X765242Y392122D01*
X765225Y392003D01*
X765211Y391885D01*
X765201Y391766D01*
X765195Y391646D01*
X765193Y391527D01*
X765192Y391527D02*
X765192Y387914D01*
X765193Y387914D02*
X765195Y387795D01*
X765201Y387675D01*
X765211Y387556D01*
X765225Y387438D01*
X765242Y387319D01*
X765264Y387202D01*
X765289Y387085D01*
X765319Y386970D01*
X765352Y386855D01*
X765389Y386741D01*
X765429Y386629D01*
X765474Y386518D01*
X765522Y386409D01*
X765573Y386301D01*
X765628Y386195D01*
X765687Y386091D01*
X765749Y385989D01*
X765814Y385889D01*
X765883Y385791D01*
X765955Y385695D01*
X766030Y385602D01*
X766107Y385512D01*
X766188Y385424D01*
X766272Y385339D01*
X766359Y385257D01*
X766448Y385177D01*
X766540Y385101D01*
X766634Y385027D01*
X766731Y384957D01*
X766829Y384890D01*
X766930Y384826D01*
X767034Y384766D01*
X767139Y384709D01*
X767246Y384656D01*
X767354Y384606D01*
X767464Y384560D01*
X767576Y384518D01*
X767689Y384479D01*
X767803Y384444D01*
X767918Y384413D01*
X768035Y384385D01*
X768152Y384362D01*
X768269Y384342D01*
X768388Y384326D01*
X768507Y384314D01*
X768626Y384306D01*
X768745Y384302D01*
X768865Y384302D01*
X768984Y384306D01*
X769103Y384314D01*
X769222Y384326D01*
X769341Y384342D01*
X769458Y384362D01*
X769575Y384385D01*
X769692Y384413D01*
X769807Y384444D01*
X769921Y384479D01*
X770034Y384518D01*
X770146Y384560D01*
X770256Y384606D01*
X770364Y384656D01*
X770471Y384709D01*
X770576Y384766D01*
X770680Y384826D01*
X770781Y384890D01*
X770879Y384957D01*
X770976Y385027D01*
X771070Y385101D01*
X771162Y385177D01*
X771251Y385257D01*
X771338Y385339D01*
X771422Y385424D01*
X771503Y385512D01*
X771580Y385602D01*
X771655Y385695D01*
X771727Y385791D01*
X771796Y385889D01*
X771861Y385989D01*
X771923Y386091D01*
X771982Y386195D01*
X772037Y386301D01*
X772088Y386409D01*
X772136Y386518D01*
X772181Y386629D01*
X772221Y386741D01*
X772258Y386855D01*
X772291Y386970D01*
X772321Y387085D01*
X772346Y387202D01*
X772368Y387319D01*
X772385Y387438D01*
X772399Y387556D01*
X772409Y387675D01*
X772415Y387795D01*
X772417Y387914D01*
X758264Y384302D02*
X758264Y395139D01*
X752846Y395139D01*
X752846Y393333D01*
X744841Y390624D02*
X740777Y390624D01*
X744841Y390624D02*
X744953Y390622D01*
X745064Y390616D01*
X745175Y390606D01*
X745286Y390593D01*
X745396Y390575D01*
X745505Y390553D01*
X745614Y390528D01*
X745722Y390499D01*
X745828Y390466D01*
X745934Y390429D01*
X746038Y390389D01*
X746140Y390345D01*
X746241Y390297D01*
X746340Y390246D01*
X746438Y390191D01*
X746533Y390133D01*
X746626Y390072D01*
X746717Y390007D01*
X746806Y389939D01*
X746892Y389868D01*
X746975Y389795D01*
X747056Y389718D01*
X747135Y389638D01*
X747210Y389556D01*
X747282Y389471D01*
X747352Y389384D01*
X747418Y389294D01*
X747481Y389202D01*
X747541Y389107D01*
X747597Y389011D01*
X747650Y388913D01*
X747699Y388813D01*
X747745Y388711D01*
X747787Y388608D01*
X747826Y388503D01*
X747861Y388397D01*
X747892Y388290D01*
X747919Y388182D01*
X747943Y388073D01*
X747962Y387963D01*
X747978Y387853D01*
X747990Y387742D01*
X747998Y387630D01*
X748002Y387519D01*
X748002Y387407D01*
X747998Y387296D01*
X747990Y387184D01*
X747978Y387073D01*
X747962Y386963D01*
X747943Y386853D01*
X747919Y386744D01*
X747892Y386636D01*
X747861Y386529D01*
X747826Y386423D01*
X747787Y386318D01*
X747745Y386215D01*
X747699Y386113D01*
X747650Y386013D01*
X747597Y385915D01*
X747541Y385819D01*
X747481Y385724D01*
X747418Y385632D01*
X747352Y385542D01*
X747282Y385455D01*
X747210Y385370D01*
X747135Y385288D01*
X747056Y385208D01*
X746975Y385131D01*
X746892Y385058D01*
X746806Y384987D01*
X746717Y384919D01*
X746626Y384854D01*
X746533Y384793D01*
X746438Y384735D01*
X746340Y384680D01*
X746241Y384629D01*
X746140Y384581D01*
X746038Y384537D01*
X745934Y384497D01*
X745828Y384460D01*
X745722Y384427D01*
X745614Y384398D01*
X745505Y384373D01*
X745396Y384351D01*
X745286Y384333D01*
X745175Y384320D01*
X745064Y384310D01*
X744953Y384304D01*
X744841Y384302D01*
X740777Y384302D01*
X740777Y392430D01*
X740779Y392531D01*
X740785Y392632D01*
X740794Y392733D01*
X740807Y392834D01*
X740824Y392934D01*
X740845Y393033D01*
X740869Y393131D01*
X740897Y393228D01*
X740929Y393325D01*
X740964Y393420D01*
X741003Y393513D01*
X741045Y393605D01*
X741091Y393696D01*
X741140Y393785D01*
X741192Y393871D01*
X741248Y393956D01*
X741306Y394039D01*
X741368Y394119D01*
X741433Y394197D01*
X741500Y394273D01*
X741570Y394346D01*
X741643Y394416D01*
X741719Y394483D01*
X741797Y394548D01*
X741877Y394610D01*
X741960Y394668D01*
X742045Y394724D01*
X742132Y394776D01*
X742220Y394825D01*
X742311Y394871D01*
X742403Y394913D01*
X742496Y394952D01*
X742591Y394987D01*
X742688Y395019D01*
X742785Y395047D01*
X742883Y395071D01*
X742982Y395092D01*
X743082Y395109D01*
X743183Y395122D01*
X743284Y395131D01*
X743385Y395137D01*
X743486Y395139D01*
X747099Y395139D01*
X733582Y390624D02*
X722745Y390624D01*
X716909Y400558D02*
X711490Y384302D01*
X706072Y400558D01*
X697426Y390624D02*
X693362Y390624D01*
X697426Y390624D02*
X697538Y390622D01*
X697649Y390616D01*
X697760Y390606D01*
X697871Y390593D01*
X697981Y390575D01*
X698090Y390553D01*
X698199Y390528D01*
X698307Y390499D01*
X698413Y390466D01*
X698519Y390429D01*
X698623Y390389D01*
X698725Y390345D01*
X698826Y390297D01*
X698925Y390246D01*
X699023Y390191D01*
X699118Y390133D01*
X699211Y390072D01*
X699302Y390007D01*
X699391Y389939D01*
X699477Y389868D01*
X699560Y389795D01*
X699641Y389718D01*
X699720Y389638D01*
X699795Y389556D01*
X699867Y389471D01*
X699937Y389384D01*
X700003Y389294D01*
X700066Y389202D01*
X700126Y389107D01*
X700182Y389011D01*
X700235Y388913D01*
X700284Y388813D01*
X700330Y388711D01*
X700372Y388608D01*
X700411Y388503D01*
X700446Y388397D01*
X700477Y388290D01*
X700504Y388182D01*
X700528Y388073D01*
X700547Y387963D01*
X700563Y387853D01*
X700575Y387742D01*
X700583Y387630D01*
X700587Y387519D01*
X700587Y387407D01*
X700583Y387296D01*
X700575Y387184D01*
X700563Y387073D01*
X700547Y386963D01*
X700528Y386853D01*
X700504Y386744D01*
X700477Y386636D01*
X700446Y386529D01*
X700411Y386423D01*
X700372Y386318D01*
X700330Y386215D01*
X700284Y386113D01*
X700235Y386013D01*
X700182Y385915D01*
X700126Y385819D01*
X700066Y385724D01*
X700003Y385632D01*
X699937Y385542D01*
X699867Y385455D01*
X699795Y385370D01*
X699720Y385288D01*
X699641Y385208D01*
X699560Y385131D01*
X699477Y385058D01*
X699391Y384987D01*
X699302Y384919D01*
X699211Y384854D01*
X699118Y384793D01*
X699023Y384735D01*
X698925Y384680D01*
X698826Y384629D01*
X698725Y384581D01*
X698623Y384537D01*
X698519Y384497D01*
X698413Y384460D01*
X698307Y384427D01*
X698199Y384398D01*
X698090Y384373D01*
X697981Y384351D01*
X697871Y384333D01*
X697760Y384320D01*
X697649Y384310D01*
X697538Y384304D01*
X697426Y384302D01*
X693362Y384302D01*
X693362Y392430D01*
X693364Y392531D01*
X693370Y392632D01*
X693379Y392733D01*
X693392Y392834D01*
X693409Y392934D01*
X693430Y393033D01*
X693454Y393131D01*
X693482Y393228D01*
X693514Y393325D01*
X693549Y393420D01*
X693588Y393513D01*
X693630Y393605D01*
X693676Y393696D01*
X693725Y393785D01*
X693777Y393871D01*
X693833Y393956D01*
X693891Y394039D01*
X693953Y394119D01*
X694018Y394197D01*
X694085Y394273D01*
X694155Y394346D01*
X694228Y394416D01*
X694304Y394483D01*
X694382Y394548D01*
X694462Y394610D01*
X694545Y394668D01*
X694630Y394724D01*
X694717Y394776D01*
X694805Y394825D01*
X694896Y394871D01*
X694988Y394913D01*
X695081Y394952D01*
X695176Y394987D01*
X695273Y395019D01*
X695370Y395047D01*
X695468Y395071D01*
X695567Y395092D01*
X695667Y395109D01*
X695768Y395122D01*
X695869Y395131D01*
X695970Y395137D01*
X696071Y395139D01*
X699684Y395139D01*
X686209Y400558D02*
X686209Y387011D01*
X686208Y387011D02*
X686206Y386910D01*
X686200Y386809D01*
X686191Y386708D01*
X686178Y386607D01*
X686161Y386507D01*
X686140Y386408D01*
X686116Y386310D01*
X686088Y386213D01*
X686056Y386116D01*
X686021Y386021D01*
X685982Y385928D01*
X685940Y385836D01*
X685894Y385745D01*
X685845Y385657D01*
X685793Y385570D01*
X685737Y385485D01*
X685679Y385402D01*
X685617Y385322D01*
X685552Y385244D01*
X685485Y385168D01*
X685415Y385095D01*
X685342Y385025D01*
X685266Y384958D01*
X685188Y384893D01*
X685108Y384831D01*
X685025Y384773D01*
X684940Y384717D01*
X684854Y384665D01*
X684765Y384616D01*
X684674Y384570D01*
X684582Y384528D01*
X684489Y384489D01*
X684394Y384454D01*
X684297Y384422D01*
X684200Y384394D01*
X684102Y384370D01*
X684003Y384349D01*
X683903Y384332D01*
X683802Y384319D01*
X683701Y384310D01*
X683600Y384304D01*
X683499Y384302D01*
X678144Y384302D02*
X678144Y395139D01*
X678595Y399655D02*
X678595Y400558D01*
X677692Y400558D01*
X677692Y399655D01*
X678595Y399655D01*
X664705Y400558D02*
X664705Y384302D01*
X669220Y384302D01*
X669321Y384304D01*
X669422Y384310D01*
X669523Y384319D01*
X669624Y384332D01*
X669724Y384349D01*
X669823Y384370D01*
X669921Y384394D01*
X670018Y384422D01*
X670115Y384454D01*
X670210Y384489D01*
X670303Y384528D01*
X670395Y384570D01*
X670486Y384616D01*
X670575Y384665D01*
X670661Y384717D01*
X670746Y384773D01*
X670829Y384831D01*
X670909Y384893D01*
X670987Y384958D01*
X671063Y385025D01*
X671136Y385095D01*
X671206Y385168D01*
X671273Y385244D01*
X671338Y385322D01*
X671400Y385402D01*
X671458Y385485D01*
X671514Y385570D01*
X671566Y385657D01*
X671615Y385745D01*
X671661Y385836D01*
X671703Y385928D01*
X671742Y386021D01*
X671777Y386116D01*
X671809Y386213D01*
X671837Y386310D01*
X671861Y386408D01*
X671882Y386507D01*
X671899Y386607D01*
X671912Y386708D01*
X671921Y386809D01*
X671927Y386910D01*
X671929Y387011D01*
X671930Y387011D02*
X671930Y392430D01*
X671929Y392430D02*
X671927Y392531D01*
X671921Y392632D01*
X671912Y392733D01*
X671899Y392834D01*
X671882Y392934D01*
X671861Y393033D01*
X671837Y393131D01*
X671809Y393228D01*
X671777Y393325D01*
X671742Y393420D01*
X671703Y393513D01*
X671661Y393605D01*
X671615Y393696D01*
X671566Y393785D01*
X671514Y393871D01*
X671458Y393956D01*
X671400Y394039D01*
X671338Y394119D01*
X671273Y394197D01*
X671206Y394273D01*
X671136Y394346D01*
X671063Y394416D01*
X670987Y394483D01*
X670909Y394548D01*
X670829Y394610D01*
X670746Y394668D01*
X670661Y394724D01*
X670575Y394776D01*
X670486Y394825D01*
X670395Y394871D01*
X670303Y394913D01*
X670210Y394952D01*
X670115Y394987D01*
X670018Y395019D01*
X669921Y395047D01*
X669823Y395071D01*
X669724Y395092D01*
X669624Y395109D01*
X669523Y395122D01*
X669422Y395131D01*
X669321Y395137D01*
X669220Y395139D01*
X664705Y395139D01*
X654701Y390624D02*
X650637Y390624D01*
X654701Y390624D02*
X654813Y390622D01*
X654924Y390616D01*
X655035Y390606D01*
X655146Y390593D01*
X655256Y390575D01*
X655365Y390553D01*
X655474Y390528D01*
X655582Y390499D01*
X655688Y390466D01*
X655794Y390429D01*
X655898Y390389D01*
X656000Y390345D01*
X656101Y390297D01*
X656200Y390246D01*
X656298Y390191D01*
X656393Y390133D01*
X656486Y390072D01*
X656577Y390007D01*
X656666Y389939D01*
X656752Y389868D01*
X656835Y389795D01*
X656916Y389718D01*
X656995Y389638D01*
X657070Y389556D01*
X657142Y389471D01*
X657212Y389384D01*
X657278Y389294D01*
X657341Y389202D01*
X657401Y389107D01*
X657457Y389011D01*
X657510Y388913D01*
X657559Y388813D01*
X657605Y388711D01*
X657647Y388608D01*
X657686Y388503D01*
X657721Y388397D01*
X657752Y388290D01*
X657779Y388182D01*
X657803Y388073D01*
X657822Y387963D01*
X657838Y387853D01*
X657850Y387742D01*
X657858Y387630D01*
X657862Y387519D01*
X657862Y387407D01*
X657858Y387296D01*
X657850Y387184D01*
X657838Y387073D01*
X657822Y386963D01*
X657803Y386853D01*
X657779Y386744D01*
X657752Y386636D01*
X657721Y386529D01*
X657686Y386423D01*
X657647Y386318D01*
X657605Y386215D01*
X657559Y386113D01*
X657510Y386013D01*
X657457Y385915D01*
X657401Y385819D01*
X657341Y385724D01*
X657278Y385632D01*
X657212Y385542D01*
X657142Y385455D01*
X657070Y385370D01*
X656995Y385288D01*
X656916Y385208D01*
X656835Y385131D01*
X656752Y385058D01*
X656666Y384987D01*
X656577Y384919D01*
X656486Y384854D01*
X656393Y384793D01*
X656298Y384735D01*
X656200Y384680D01*
X656101Y384629D01*
X656000Y384581D01*
X655898Y384537D01*
X655794Y384497D01*
X655688Y384460D01*
X655582Y384427D01*
X655474Y384398D01*
X655365Y384373D01*
X655256Y384351D01*
X655146Y384333D01*
X655035Y384320D01*
X654924Y384310D01*
X654813Y384304D01*
X654701Y384302D01*
X650637Y384302D01*
X650637Y392430D01*
X650639Y392531D01*
X650645Y392632D01*
X650654Y392733D01*
X650667Y392834D01*
X650684Y392934D01*
X650705Y393033D01*
X650729Y393131D01*
X650757Y393228D01*
X650789Y393325D01*
X650824Y393420D01*
X650863Y393513D01*
X650905Y393605D01*
X650951Y393696D01*
X651000Y393785D01*
X651052Y393871D01*
X651108Y393956D01*
X651166Y394039D01*
X651228Y394119D01*
X651293Y394197D01*
X651360Y394273D01*
X651430Y394346D01*
X651503Y394416D01*
X651579Y394483D01*
X651657Y394548D01*
X651737Y394610D01*
X651820Y394668D01*
X651905Y394724D01*
X651992Y394776D01*
X652080Y394825D01*
X652171Y394871D01*
X652263Y394913D01*
X652356Y394952D01*
X652451Y394987D01*
X652548Y395019D01*
X652645Y395047D01*
X652743Y395071D01*
X652842Y395092D01*
X652942Y395109D01*
X653043Y395122D01*
X653144Y395131D01*
X653245Y395137D01*
X653346Y395139D01*
X656959Y395139D01*
X636569Y400558D02*
X636569Y384302D01*
X641084Y384302D01*
X641185Y384304D01*
X641286Y384310D01*
X641387Y384319D01*
X641488Y384332D01*
X641588Y384349D01*
X641687Y384370D01*
X641785Y384394D01*
X641882Y384422D01*
X641979Y384454D01*
X642074Y384489D01*
X642167Y384528D01*
X642259Y384570D01*
X642350Y384616D01*
X642439Y384665D01*
X642525Y384717D01*
X642610Y384773D01*
X642693Y384831D01*
X642773Y384893D01*
X642851Y384958D01*
X642927Y385025D01*
X643000Y385095D01*
X643070Y385168D01*
X643137Y385244D01*
X643202Y385322D01*
X643264Y385402D01*
X643322Y385485D01*
X643378Y385570D01*
X643430Y385657D01*
X643479Y385745D01*
X643525Y385836D01*
X643567Y385928D01*
X643606Y386021D01*
X643641Y386116D01*
X643673Y386213D01*
X643701Y386310D01*
X643725Y386408D01*
X643746Y386507D01*
X643763Y386607D01*
X643776Y386708D01*
X643785Y386809D01*
X643791Y386910D01*
X643793Y387011D01*
X643794Y387011D02*
X643794Y392430D01*
X643793Y392430D02*
X643791Y392531D01*
X643785Y392632D01*
X643776Y392733D01*
X643763Y392834D01*
X643746Y392934D01*
X643725Y393033D01*
X643701Y393131D01*
X643673Y393228D01*
X643641Y393325D01*
X643606Y393420D01*
X643567Y393513D01*
X643525Y393605D01*
X643479Y393696D01*
X643430Y393785D01*
X643378Y393871D01*
X643322Y393956D01*
X643264Y394039D01*
X643202Y394119D01*
X643137Y394197D01*
X643070Y394273D01*
X643000Y394346D01*
X642927Y394416D01*
X642851Y394483D01*
X642773Y394548D01*
X642693Y394610D01*
X642610Y394668D01*
X642525Y394724D01*
X642439Y394776D01*
X642350Y394825D01*
X642259Y394871D01*
X642167Y394913D01*
X642074Y394952D01*
X641979Y394987D01*
X641882Y395019D01*
X641785Y395047D01*
X641687Y395071D01*
X641588Y395092D01*
X641488Y395109D01*
X641387Y395122D01*
X641286Y395131D01*
X641185Y395137D01*
X641084Y395139D01*
X636569Y395139D01*
X629652Y391527D02*
X629652Y387914D01*
X629652Y391527D02*
X629650Y391646D01*
X629644Y391766D01*
X629634Y391885D01*
X629620Y392003D01*
X629603Y392122D01*
X629581Y392239D01*
X629556Y392356D01*
X629526Y392471D01*
X629493Y392586D01*
X629456Y392700D01*
X629416Y392812D01*
X629371Y392923D01*
X629323Y393032D01*
X629272Y393140D01*
X629217Y393246D01*
X629158Y393350D01*
X629096Y393452D01*
X629031Y393552D01*
X628962Y393650D01*
X628890Y393746D01*
X628815Y393839D01*
X628738Y393929D01*
X628657Y394017D01*
X628573Y394102D01*
X628486Y394184D01*
X628397Y394264D01*
X628305Y394340D01*
X628211Y394414D01*
X628114Y394484D01*
X628016Y394551D01*
X627915Y394615D01*
X627811Y394675D01*
X627706Y394732D01*
X627599Y394785D01*
X627491Y394835D01*
X627381Y394881D01*
X627269Y394923D01*
X627156Y394962D01*
X627042Y394997D01*
X626927Y395028D01*
X626810Y395056D01*
X626693Y395079D01*
X626576Y395099D01*
X626457Y395115D01*
X626338Y395127D01*
X626219Y395135D01*
X626100Y395139D01*
X625980Y395139D01*
X625861Y395135D01*
X625742Y395127D01*
X625623Y395115D01*
X625504Y395099D01*
X625387Y395079D01*
X625270Y395056D01*
X625153Y395028D01*
X625038Y394997D01*
X624924Y394962D01*
X624811Y394923D01*
X624699Y394881D01*
X624589Y394835D01*
X624481Y394785D01*
X624374Y394732D01*
X624269Y394675D01*
X624165Y394615D01*
X624064Y394551D01*
X623966Y394484D01*
X623869Y394414D01*
X623775Y394340D01*
X623683Y394264D01*
X623594Y394184D01*
X623507Y394102D01*
X623423Y394017D01*
X623342Y393929D01*
X623265Y393839D01*
X623190Y393746D01*
X623118Y393650D01*
X623049Y393552D01*
X622984Y393452D01*
X622922Y393350D01*
X622863Y393246D01*
X622808Y393140D01*
X622757Y393032D01*
X622709Y392923D01*
X622664Y392812D01*
X622624Y392700D01*
X622587Y392586D01*
X622554Y392471D01*
X622524Y392356D01*
X622499Y392239D01*
X622477Y392122D01*
X622460Y392003D01*
X622446Y391885D01*
X622436Y391766D01*
X622430Y391646D01*
X622428Y391527D01*
X622427Y391527D02*
X622427Y387914D01*
X622428Y387914D02*
X622430Y387795D01*
X622436Y387675D01*
X622446Y387556D01*
X622460Y387438D01*
X622477Y387319D01*
X622499Y387202D01*
X622524Y387085D01*
X622554Y386970D01*
X622587Y386855D01*
X622624Y386741D01*
X622664Y386629D01*
X622709Y386518D01*
X622757Y386409D01*
X622808Y386301D01*
X622863Y386195D01*
X622922Y386091D01*
X622984Y385989D01*
X623049Y385889D01*
X623118Y385791D01*
X623190Y385695D01*
X623265Y385602D01*
X623342Y385512D01*
X623423Y385424D01*
X623507Y385339D01*
X623594Y385257D01*
X623683Y385177D01*
X623775Y385101D01*
X623869Y385027D01*
X623966Y384957D01*
X624064Y384890D01*
X624165Y384826D01*
X624269Y384766D01*
X624374Y384709D01*
X624481Y384656D01*
X624589Y384606D01*
X624699Y384560D01*
X624811Y384518D01*
X624924Y384479D01*
X625038Y384444D01*
X625153Y384413D01*
X625270Y384385D01*
X625387Y384362D01*
X625504Y384342D01*
X625623Y384326D01*
X625742Y384314D01*
X625861Y384306D01*
X625980Y384302D01*
X626100Y384302D01*
X626219Y384306D01*
X626338Y384314D01*
X626457Y384326D01*
X626576Y384342D01*
X626693Y384362D01*
X626810Y384385D01*
X626927Y384413D01*
X627042Y384444D01*
X627156Y384479D01*
X627269Y384518D01*
X627381Y384560D01*
X627491Y384606D01*
X627599Y384656D01*
X627706Y384709D01*
X627811Y384766D01*
X627915Y384826D01*
X628016Y384890D01*
X628114Y384957D01*
X628211Y385027D01*
X628305Y385101D01*
X628397Y385177D01*
X628486Y385257D01*
X628573Y385339D01*
X628657Y385424D01*
X628738Y385512D01*
X628815Y385602D01*
X628890Y385695D01*
X628962Y385791D01*
X629031Y385889D01*
X629096Y385989D01*
X629158Y386091D01*
X629217Y386195D01*
X629272Y386301D01*
X629323Y386409D01*
X629371Y386518D01*
X629416Y386629D01*
X629456Y386741D01*
X629493Y386855D01*
X629526Y386970D01*
X629556Y387085D01*
X629581Y387202D01*
X629603Y387319D01*
X629620Y387438D01*
X629634Y387556D01*
X629644Y387675D01*
X629650Y387795D01*
X629652Y387914D01*
X615499Y384302D02*
X615499Y395139D01*
X610081Y395139D01*
X610081Y393333D01*
X602076Y390624D02*
X598012Y390624D01*
X602076Y390624D02*
X602188Y390622D01*
X602299Y390616D01*
X602410Y390606D01*
X602521Y390593D01*
X602631Y390575D01*
X602740Y390553D01*
X602849Y390528D01*
X602957Y390499D01*
X603063Y390466D01*
X603169Y390429D01*
X603273Y390389D01*
X603375Y390345D01*
X603476Y390297D01*
X603575Y390246D01*
X603673Y390191D01*
X603768Y390133D01*
X603861Y390072D01*
X603952Y390007D01*
X604041Y389939D01*
X604127Y389868D01*
X604210Y389795D01*
X604291Y389718D01*
X604370Y389638D01*
X604445Y389556D01*
X604517Y389471D01*
X604587Y389384D01*
X604653Y389294D01*
X604716Y389202D01*
X604776Y389107D01*
X604832Y389011D01*
X604885Y388913D01*
X604934Y388813D01*
X604980Y388711D01*
X605022Y388608D01*
X605061Y388503D01*
X605096Y388397D01*
X605127Y388290D01*
X605154Y388182D01*
X605178Y388073D01*
X605197Y387963D01*
X605213Y387853D01*
X605225Y387742D01*
X605233Y387630D01*
X605237Y387519D01*
X605237Y387407D01*
X605233Y387296D01*
X605225Y387184D01*
X605213Y387073D01*
X605197Y386963D01*
X605178Y386853D01*
X605154Y386744D01*
X605127Y386636D01*
X605096Y386529D01*
X605061Y386423D01*
X605022Y386318D01*
X604980Y386215D01*
X604934Y386113D01*
X604885Y386013D01*
X604832Y385915D01*
X604776Y385819D01*
X604716Y385724D01*
X604653Y385632D01*
X604587Y385542D01*
X604517Y385455D01*
X604445Y385370D01*
X604370Y385288D01*
X604291Y385208D01*
X604210Y385131D01*
X604127Y385058D01*
X604041Y384987D01*
X603952Y384919D01*
X603861Y384854D01*
X603768Y384793D01*
X603673Y384735D01*
X603575Y384680D01*
X603476Y384629D01*
X603375Y384581D01*
X603273Y384537D01*
X603169Y384497D01*
X603063Y384460D01*
X602957Y384427D01*
X602849Y384398D01*
X602740Y384373D01*
X602631Y384351D01*
X602521Y384333D01*
X602410Y384320D01*
X602299Y384310D01*
X602188Y384304D01*
X602076Y384302D01*
X598012Y384302D01*
X598012Y392430D01*
X598014Y392531D01*
X598020Y392632D01*
X598029Y392733D01*
X598042Y392834D01*
X598059Y392934D01*
X598080Y393033D01*
X598104Y393131D01*
X598132Y393228D01*
X598164Y393325D01*
X598199Y393420D01*
X598238Y393513D01*
X598280Y393605D01*
X598326Y393696D01*
X598375Y393785D01*
X598427Y393871D01*
X598483Y393956D01*
X598541Y394039D01*
X598603Y394119D01*
X598668Y394197D01*
X598735Y394273D01*
X598805Y394346D01*
X598878Y394416D01*
X598954Y394483D01*
X599032Y394548D01*
X599112Y394610D01*
X599195Y394668D01*
X599280Y394724D01*
X599367Y394776D01*
X599455Y394825D01*
X599546Y394871D01*
X599638Y394913D01*
X599731Y394952D01*
X599826Y394987D01*
X599923Y395019D01*
X600020Y395047D01*
X600118Y395071D01*
X600217Y395092D01*
X600317Y395109D01*
X600418Y395122D01*
X600519Y395131D01*
X600620Y395137D01*
X600721Y395139D01*
X604333Y395139D01*
X959019Y357632D02*
X964438Y373888D01*
X953601Y373888D02*
X959019Y357632D01*
X942937Y373888D02*
X942812Y373886D01*
X942687Y373880D01*
X942562Y373871D01*
X942438Y373857D01*
X942314Y373840D01*
X942190Y373819D01*
X942068Y373794D01*
X941946Y373765D01*
X941825Y373733D01*
X941705Y373697D01*
X941586Y373657D01*
X941469Y373614D01*
X941353Y373567D01*
X941238Y373516D01*
X941126Y373462D01*
X941014Y373404D01*
X940905Y373344D01*
X940798Y373279D01*
X940692Y373212D01*
X940589Y373141D01*
X940488Y373067D01*
X940389Y372990D01*
X940293Y372910D01*
X940199Y372827D01*
X940108Y372742D01*
X940019Y372653D01*
X939934Y372562D01*
X939851Y372468D01*
X939771Y372372D01*
X939694Y372273D01*
X939620Y372172D01*
X939549Y372069D01*
X939482Y371963D01*
X939417Y371856D01*
X939357Y371747D01*
X939299Y371635D01*
X939245Y371523D01*
X939194Y371408D01*
X939147Y371292D01*
X939104Y371175D01*
X939064Y371056D01*
X939028Y370936D01*
X938996Y370815D01*
X938967Y370693D01*
X938942Y370571D01*
X938921Y370447D01*
X938904Y370323D01*
X938890Y370199D01*
X938881Y370074D01*
X938875Y369949D01*
X938873Y369824D01*
X942937Y373888D02*
X943080Y373886D01*
X943222Y373880D01*
X943365Y373870D01*
X943507Y373857D01*
X943648Y373839D01*
X943790Y373818D01*
X943930Y373793D01*
X944070Y373764D01*
X944209Y373731D01*
X944347Y373694D01*
X944484Y373654D01*
X944619Y373610D01*
X944754Y373562D01*
X944887Y373510D01*
X945019Y373455D01*
X945149Y373396D01*
X945277Y373334D01*
X945404Y373268D01*
X945529Y373199D01*
X945652Y373127D01*
X945773Y373051D01*
X945891Y372972D01*
X946008Y372889D01*
X946122Y372804D01*
X946234Y372715D01*
X946343Y372624D01*
X946450Y372529D01*
X946555Y372432D01*
X946656Y372331D01*
X946755Y372228D01*
X946851Y372123D01*
X946944Y372014D01*
X947034Y371903D01*
X947121Y371790D01*
X947205Y371675D01*
X947285Y371557D01*
X947363Y371437D01*
X947437Y371315D01*
X947507Y371191D01*
X947575Y371065D01*
X947638Y370937D01*
X947699Y370808D01*
X947756Y370677D01*
X947809Y370545D01*
X947858Y370411D01*
X947904Y370276D01*
X940228Y366663D02*
X940134Y366755D01*
X940044Y366849D01*
X939956Y366946D01*
X939871Y367046D01*
X939789Y367148D01*
X939710Y367253D01*
X939635Y367360D01*
X939563Y367469D01*
X939494Y367580D01*
X939428Y367694D01*
X939366Y367809D01*
X939307Y367926D01*
X939252Y368045D01*
X939201Y368165D01*
X939153Y368287D01*
X939108Y368410D01*
X939068Y368534D01*
X939031Y368660D01*
X938998Y368787D01*
X938969Y368914D01*
X938943Y369043D01*
X938922Y369172D01*
X938904Y369302D01*
X938891Y369432D01*
X938881Y369562D01*
X938875Y369693D01*
X938873Y369824D01*
X940227Y366663D02*
X947904Y357632D01*
X938873Y357632D01*
X932898Y357632D02*
X932898Y358535D01*
X931995Y358535D01*
X931995Y357632D01*
X932898Y357632D01*
X926020Y365760D02*
X926016Y366080D01*
X926005Y366399D01*
X925986Y366719D01*
X925959Y367037D01*
X925925Y367355D01*
X925883Y367672D01*
X925833Y367988D01*
X925776Y368303D01*
X925712Y368616D01*
X925640Y368928D01*
X925561Y369238D01*
X925474Y369545D01*
X925380Y369851D01*
X925279Y370154D01*
X925170Y370455D01*
X925055Y370753D01*
X924932Y371049D01*
X924802Y371341D01*
X924665Y371630D01*
X924665Y371631D02*
X924626Y371739D01*
X924583Y371846D01*
X924537Y371951D01*
X924486Y372055D01*
X924433Y372157D01*
X924376Y372257D01*
X924315Y372355D01*
X924251Y372450D01*
X924184Y372544D01*
X924113Y372635D01*
X924040Y372724D01*
X923963Y372810D01*
X923884Y372893D01*
X923802Y372974D01*
X923717Y373052D01*
X923629Y373126D01*
X923539Y373198D01*
X923447Y373266D01*
X923352Y373332D01*
X923255Y373394D01*
X923156Y373452D01*
X923054Y373508D01*
X922952Y373559D01*
X922847Y373607D01*
X922741Y373652D01*
X922633Y373693D01*
X922524Y373730D01*
X922414Y373763D01*
X922302Y373792D01*
X922190Y373818D01*
X922077Y373840D01*
X921963Y373857D01*
X921849Y373871D01*
X921734Y373881D01*
X921619Y373887D01*
X921504Y373889D01*
X921504Y373888D02*
X921389Y373886D01*
X921274Y373880D01*
X921159Y373870D01*
X921045Y373856D01*
X920931Y373839D01*
X920818Y373817D01*
X920706Y373791D01*
X920594Y373762D01*
X920484Y373729D01*
X920375Y373692D01*
X920267Y373651D01*
X920161Y373606D01*
X920057Y373558D01*
X919954Y373507D01*
X919853Y373451D01*
X919753Y373393D01*
X919656Y373331D01*
X919562Y373266D01*
X919469Y373197D01*
X919379Y373125D01*
X919291Y373051D01*
X919206Y372973D01*
X919124Y372892D01*
X919045Y372809D01*
X918968Y372723D01*
X918895Y372634D01*
X918824Y372543D01*
X918757Y372449D01*
X918693Y372354D01*
X918632Y372256D01*
X918575Y372156D01*
X918522Y372054D01*
X918471Y371950D01*
X918425Y371845D01*
X918382Y371738D01*
X918343Y371630D01*
X918344Y371630D02*
X918207Y371341D01*
X918077Y371049D01*
X917954Y370753D01*
X917839Y370455D01*
X917730Y370154D01*
X917629Y369851D01*
X917535Y369545D01*
X917448Y369238D01*
X917369Y368928D01*
X917297Y368616D01*
X917233Y368303D01*
X917176Y367988D01*
X917126Y367672D01*
X917084Y367355D01*
X917050Y367037D01*
X917023Y366719D01*
X917004Y366399D01*
X916993Y366080D01*
X916989Y365760D01*
X926020Y365760D02*
X926016Y365440D01*
X926005Y365121D01*
X925986Y364801D01*
X925959Y364483D01*
X925925Y364165D01*
X925883Y363848D01*
X925833Y363532D01*
X925776Y363217D01*
X925712Y362904D01*
X925640Y362592D01*
X925561Y362282D01*
X925474Y361975D01*
X925380Y361669D01*
X925279Y361366D01*
X925170Y361065D01*
X925055Y360767D01*
X924932Y360471D01*
X924802Y360179D01*
X924665Y359890D01*
X924626Y359782D01*
X924583Y359675D01*
X924537Y359570D01*
X924486Y359466D01*
X924433Y359364D01*
X924376Y359264D01*
X924315Y359166D01*
X924251Y359071D01*
X924184Y358977D01*
X924113Y358886D01*
X924040Y358797D01*
X923963Y358711D01*
X923884Y358628D01*
X923802Y358547D01*
X923717Y358469D01*
X923629Y358395D01*
X923539Y358323D01*
X923446Y358254D01*
X923352Y358189D01*
X923255Y358127D01*
X923155Y358069D01*
X923054Y358013D01*
X922952Y357962D01*
X922847Y357914D01*
X922741Y357869D01*
X922633Y357828D01*
X922524Y357791D01*
X922414Y357758D01*
X922302Y357729D01*
X922190Y357703D01*
X922077Y357681D01*
X921963Y357664D01*
X921849Y357650D01*
X921734Y357640D01*
X921619Y357634D01*
X921504Y357632D01*
X918344Y359890D02*
X918207Y360179D01*
X918077Y360471D01*
X917954Y360767D01*
X917839Y361065D01*
X917730Y361366D01*
X917629Y361669D01*
X917535Y361975D01*
X917448Y362282D01*
X917369Y362592D01*
X917297Y362904D01*
X917233Y363217D01*
X917176Y363532D01*
X917126Y363848D01*
X917084Y364165D01*
X917050Y364483D01*
X917023Y364801D01*
X917004Y365121D01*
X916993Y365440D01*
X916989Y365760D01*
X918343Y359890D02*
X918382Y359782D01*
X918425Y359675D01*
X918471Y359570D01*
X918522Y359466D01*
X918575Y359364D01*
X918633Y359264D01*
X918693Y359166D01*
X918757Y359071D01*
X918824Y358977D01*
X918895Y358886D01*
X918968Y358797D01*
X919045Y358711D01*
X919124Y358628D01*
X919206Y358547D01*
X919291Y358469D01*
X919379Y358395D01*
X919469Y358323D01*
X919562Y358254D01*
X919656Y358189D01*
X919753Y358127D01*
X919853Y358069D01*
X919954Y358013D01*
X920057Y357962D01*
X920161Y357914D01*
X920267Y357869D01*
X920375Y357828D01*
X920484Y357791D01*
X920594Y357758D01*
X920706Y357729D01*
X920818Y357703D01*
X920931Y357681D01*
X921045Y357664D01*
X921159Y357650D01*
X921274Y357640D01*
X921389Y357634D01*
X921504Y357632D01*
X925117Y361244D02*
X917892Y370276D01*
X957213Y330962D02*
X964438Y330962D01*
X964438Y347218D01*
X957213Y347218D01*
X959019Y339993D02*
X964438Y339993D01*
X950921Y347218D02*
X950921Y330962D01*
X950921Y347218D02*
X946405Y347218D01*
X946274Y347216D01*
X946142Y347210D01*
X946011Y347201D01*
X945881Y347187D01*
X945750Y347170D01*
X945621Y347149D01*
X945492Y347125D01*
X945364Y347096D01*
X945236Y347064D01*
X945110Y347028D01*
X944985Y346989D01*
X944860Y346946D01*
X944738Y346899D01*
X944616Y346849D01*
X944496Y346795D01*
X944378Y346738D01*
X944262Y346677D01*
X944147Y346613D01*
X944034Y346546D01*
X943923Y346475D01*
X943815Y346401D01*
X943708Y346324D01*
X943604Y346244D01*
X943502Y346161D01*
X943403Y346076D01*
X943306Y345987D01*
X943212Y345895D01*
X943120Y345801D01*
X943031Y345704D01*
X942946Y345605D01*
X942863Y345503D01*
X942783Y345399D01*
X942706Y345292D01*
X942632Y345184D01*
X942561Y345073D01*
X942494Y344960D01*
X942430Y344845D01*
X942369Y344729D01*
X942312Y344611D01*
X942258Y344491D01*
X942208Y344369D01*
X942161Y344247D01*
X942118Y344122D01*
X942079Y343997D01*
X942043Y343871D01*
X942011Y343743D01*
X941982Y343615D01*
X941958Y343486D01*
X941937Y343357D01*
X941920Y343226D01*
X941906Y343096D01*
X941897Y342965D01*
X941891Y342833D01*
X941889Y342702D01*
X941890Y342702D02*
X941890Y335478D01*
X941889Y335478D02*
X941891Y335347D01*
X941897Y335215D01*
X941906Y335084D01*
X941920Y334954D01*
X941937Y334823D01*
X941958Y334694D01*
X941982Y334565D01*
X942011Y334437D01*
X942043Y334309D01*
X942079Y334183D01*
X942118Y334058D01*
X942161Y333933D01*
X942208Y333811D01*
X942258Y333689D01*
X942312Y333569D01*
X942369Y333451D01*
X942430Y333335D01*
X942494Y333220D01*
X942561Y333107D01*
X942632Y332996D01*
X942706Y332888D01*
X942783Y332781D01*
X942863Y332677D01*
X942946Y332575D01*
X943031Y332476D01*
X943120Y332379D01*
X943212Y332285D01*
X943306Y332193D01*
X943403Y332104D01*
X943502Y332019D01*
X943604Y331936D01*
X943708Y331856D01*
X943815Y331779D01*
X943923Y331705D01*
X944034Y331634D01*
X944147Y331567D01*
X944262Y331503D01*
X944378Y331442D01*
X944496Y331385D01*
X944616Y331331D01*
X944738Y331281D01*
X944860Y331234D01*
X944985Y331191D01*
X945110Y331152D01*
X945236Y331116D01*
X945364Y331084D01*
X945492Y331055D01*
X945621Y331031D01*
X945750Y331010D01*
X945881Y330993D01*
X946011Y330979D01*
X946142Y330970D01*
X946274Y330964D01*
X946405Y330962D01*
X950921Y330962D01*
X930253Y330962D02*
X935672Y347218D01*
X924834Y347218D02*
X930253Y330962D01*
X481838Y55118D02*
X481838Y38862D01*
X472807Y38862D02*
X481838Y55118D01*
X472807Y55118D02*
X472807Y38862D01*
X465825Y42474D02*
X465825Y46087D01*
X465824Y46087D02*
X465822Y46206D01*
X465816Y46326D01*
X465806Y46445D01*
X465792Y46563D01*
X465775Y46682D01*
X465753Y46799D01*
X465728Y46916D01*
X465698Y47031D01*
X465665Y47146D01*
X465628Y47260D01*
X465588Y47372D01*
X465543Y47483D01*
X465495Y47592D01*
X465444Y47700D01*
X465389Y47806D01*
X465330Y47910D01*
X465268Y48012D01*
X465203Y48112D01*
X465134Y48210D01*
X465062Y48306D01*
X464987Y48399D01*
X464910Y48489D01*
X464829Y48577D01*
X464745Y48662D01*
X464658Y48744D01*
X464569Y48824D01*
X464477Y48900D01*
X464383Y48974D01*
X464286Y49044D01*
X464188Y49111D01*
X464087Y49175D01*
X463983Y49235D01*
X463878Y49292D01*
X463771Y49345D01*
X463663Y49395D01*
X463553Y49441D01*
X463441Y49483D01*
X463328Y49522D01*
X463214Y49557D01*
X463099Y49588D01*
X462982Y49616D01*
X462865Y49639D01*
X462748Y49659D01*
X462629Y49675D01*
X462510Y49687D01*
X462391Y49695D01*
X462272Y49699D01*
X462152Y49699D01*
X462033Y49695D01*
X461914Y49687D01*
X461795Y49675D01*
X461676Y49659D01*
X461559Y49639D01*
X461442Y49616D01*
X461325Y49588D01*
X461210Y49557D01*
X461096Y49522D01*
X460983Y49483D01*
X460871Y49441D01*
X460761Y49395D01*
X460653Y49345D01*
X460546Y49292D01*
X460441Y49235D01*
X460337Y49175D01*
X460236Y49111D01*
X460138Y49044D01*
X460041Y48974D01*
X459947Y48900D01*
X459855Y48824D01*
X459766Y48744D01*
X459679Y48662D01*
X459595Y48577D01*
X459514Y48489D01*
X459437Y48399D01*
X459362Y48306D01*
X459290Y48210D01*
X459221Y48112D01*
X459156Y48012D01*
X459094Y47910D01*
X459035Y47806D01*
X458980Y47700D01*
X458929Y47592D01*
X458881Y47483D01*
X458836Y47372D01*
X458796Y47260D01*
X458759Y47146D01*
X458726Y47031D01*
X458696Y46916D01*
X458671Y46799D01*
X458649Y46682D01*
X458632Y46563D01*
X458618Y46445D01*
X458608Y46326D01*
X458602Y46206D01*
X458600Y46087D01*
X458600Y42474D01*
X458602Y42355D01*
X458608Y42235D01*
X458618Y42116D01*
X458632Y41998D01*
X458649Y41879D01*
X458671Y41762D01*
X458696Y41645D01*
X458726Y41530D01*
X458759Y41415D01*
X458796Y41301D01*
X458836Y41189D01*
X458881Y41078D01*
X458929Y40969D01*
X458980Y40861D01*
X459035Y40755D01*
X459094Y40651D01*
X459156Y40549D01*
X459221Y40449D01*
X459290Y40351D01*
X459362Y40255D01*
X459437Y40162D01*
X459514Y40072D01*
X459595Y39984D01*
X459679Y39899D01*
X459766Y39817D01*
X459855Y39737D01*
X459947Y39661D01*
X460041Y39587D01*
X460138Y39517D01*
X460236Y39450D01*
X460337Y39386D01*
X460441Y39326D01*
X460546Y39269D01*
X460653Y39216D01*
X460761Y39166D01*
X460871Y39120D01*
X460983Y39078D01*
X461096Y39039D01*
X461210Y39004D01*
X461325Y38973D01*
X461442Y38945D01*
X461559Y38922D01*
X461676Y38902D01*
X461795Y38886D01*
X461914Y38874D01*
X462033Y38866D01*
X462152Y38862D01*
X462272Y38862D01*
X462391Y38866D01*
X462510Y38874D01*
X462629Y38886D01*
X462748Y38902D01*
X462865Y38922D01*
X462982Y38945D01*
X463099Y38973D01*
X463214Y39004D01*
X463328Y39039D01*
X463441Y39078D01*
X463553Y39120D01*
X463663Y39166D01*
X463771Y39216D01*
X463878Y39269D01*
X463983Y39326D01*
X464087Y39386D01*
X464188Y39450D01*
X464286Y39517D01*
X464383Y39587D01*
X464477Y39661D01*
X464569Y39737D01*
X464658Y39817D01*
X464745Y39899D01*
X464829Y39984D01*
X464910Y40072D01*
X464987Y40162D01*
X465062Y40255D01*
X465134Y40351D01*
X465203Y40449D01*
X465268Y40549D01*
X465330Y40651D01*
X465389Y40755D01*
X465444Y40861D01*
X465495Y40969D01*
X465543Y41078D01*
X465588Y41189D01*
X465628Y41301D01*
X465665Y41415D01*
X465698Y41530D01*
X465728Y41645D01*
X465753Y41762D01*
X465775Y41879D01*
X465792Y41998D01*
X465806Y42116D01*
X465816Y42235D01*
X465822Y42355D01*
X465824Y42474D01*
X452764Y39765D02*
X452764Y38862D01*
X452764Y39765D02*
X451861Y39765D01*
X451861Y38862D01*
X452764Y38862D01*
X432652Y38862D02*
X432534Y38864D01*
X432416Y38870D01*
X432298Y38879D01*
X432181Y38893D01*
X432064Y38910D01*
X431947Y38931D01*
X431832Y38956D01*
X431717Y38985D01*
X431603Y39018D01*
X431491Y39054D01*
X431380Y39094D01*
X431270Y39137D01*
X431161Y39184D01*
X431054Y39234D01*
X430949Y39289D01*
X430846Y39346D01*
X430745Y39407D01*
X430645Y39471D01*
X430548Y39538D01*
X430453Y39608D01*
X430361Y39682D01*
X430270Y39758D01*
X430183Y39838D01*
X430098Y39920D01*
X430016Y40005D01*
X429936Y40092D01*
X429860Y40183D01*
X429786Y40275D01*
X429716Y40370D01*
X429649Y40467D01*
X429585Y40567D01*
X429524Y40668D01*
X429467Y40771D01*
X429412Y40876D01*
X429362Y40983D01*
X429315Y41092D01*
X429272Y41202D01*
X429232Y41313D01*
X429196Y41425D01*
X429163Y41539D01*
X429134Y41654D01*
X429109Y41769D01*
X429088Y41886D01*
X429071Y42003D01*
X429057Y42120D01*
X429048Y42238D01*
X429042Y42356D01*
X429040Y42474D01*
X432652Y38862D02*
X432835Y38864D01*
X433017Y38871D01*
X433199Y38882D01*
X433381Y38897D01*
X433563Y38917D01*
X433744Y38941D01*
X433924Y38969D01*
X434104Y39001D01*
X434283Y39038D01*
X434460Y39079D01*
X434637Y39125D01*
X434813Y39174D01*
X434988Y39228D01*
X435161Y39286D01*
X435332Y39348D01*
X435503Y39414D01*
X435671Y39485D01*
X435838Y39559D01*
X436003Y39637D01*
X436166Y39719D01*
X436327Y39805D01*
X436486Y39895D01*
X436643Y39989D01*
X436797Y40086D01*
X436949Y40187D01*
X437099Y40292D01*
X437246Y40400D01*
X437390Y40511D01*
X437532Y40626D01*
X437671Y40745D01*
X437807Y40867D01*
X437940Y40992D01*
X438070Y41120D01*
X437619Y51506D02*
X437617Y51624D01*
X437611Y51742D01*
X437602Y51860D01*
X437588Y51977D01*
X437571Y52094D01*
X437550Y52211D01*
X437525Y52326D01*
X437496Y52441D01*
X437463Y52555D01*
X437427Y52667D01*
X437387Y52778D01*
X437344Y52888D01*
X437297Y52997D01*
X437247Y53104D01*
X437192Y53209D01*
X437135Y53312D01*
X437074Y53413D01*
X437010Y53513D01*
X436943Y53610D01*
X436873Y53705D01*
X436799Y53797D01*
X436723Y53888D01*
X436643Y53975D01*
X436561Y54060D01*
X436476Y54142D01*
X436389Y54222D01*
X436298Y54298D01*
X436206Y54372D01*
X436111Y54442D01*
X436014Y54509D01*
X435914Y54573D01*
X435813Y54634D01*
X435710Y54691D01*
X435605Y54746D01*
X435498Y54796D01*
X435389Y54843D01*
X435279Y54886D01*
X435168Y54926D01*
X435056Y54962D01*
X434942Y54995D01*
X434827Y55024D01*
X434712Y55049D01*
X434595Y55070D01*
X434478Y55087D01*
X434361Y55101D01*
X434243Y55110D01*
X434125Y55116D01*
X434007Y55118D01*
X433846Y55116D01*
X433684Y55110D01*
X433523Y55101D01*
X433362Y55087D01*
X433202Y55070D01*
X433042Y55049D01*
X432882Y55024D01*
X432723Y54995D01*
X432565Y54963D01*
X432408Y54927D01*
X432252Y54887D01*
X432096Y54843D01*
X431942Y54795D01*
X431789Y54744D01*
X431637Y54690D01*
X431486Y54631D01*
X431337Y54570D01*
X431190Y54504D01*
X431044Y54435D01*
X430899Y54363D01*
X430757Y54287D01*
X430616Y54208D01*
X430477Y54126D01*
X430341Y54040D01*
X430206Y53951D01*
X430073Y53859D01*
X429943Y53763D01*
X435813Y48345D02*
X435914Y48407D01*
X436014Y48472D01*
X436111Y48541D01*
X436206Y48613D01*
X436299Y48687D01*
X436389Y48765D01*
X436477Y48846D01*
X436562Y48929D01*
X436644Y49015D01*
X436723Y49104D01*
X436800Y49195D01*
X436873Y49289D01*
X436944Y49385D01*
X437011Y49483D01*
X437075Y49583D01*
X437136Y49686D01*
X437193Y49790D01*
X437247Y49896D01*
X437297Y50004D01*
X437344Y50113D01*
X437388Y50224D01*
X437428Y50336D01*
X437464Y50450D01*
X437496Y50564D01*
X437525Y50680D01*
X437550Y50796D01*
X437571Y50913D01*
X437588Y51031D01*
X437602Y51149D01*
X437611Y51268D01*
X437617Y51387D01*
X437619Y51506D01*
X430845Y45635D02*
X430744Y45573D01*
X430644Y45508D01*
X430547Y45439D01*
X430452Y45367D01*
X430359Y45293D01*
X430269Y45215D01*
X430181Y45134D01*
X430096Y45051D01*
X430014Y44965D01*
X429935Y44876D01*
X429858Y44785D01*
X429785Y44691D01*
X429714Y44595D01*
X429647Y44497D01*
X429583Y44397D01*
X429522Y44294D01*
X429465Y44190D01*
X429411Y44084D01*
X429361Y43976D01*
X429314Y43867D01*
X429270Y43756D01*
X429230Y43644D01*
X429194Y43530D01*
X429162Y43416D01*
X429133Y43300D01*
X429108Y43184D01*
X429087Y43067D01*
X429070Y42949D01*
X429056Y42831D01*
X429047Y42712D01*
X429041Y42593D01*
X429039Y42474D01*
X430846Y45635D02*
X435813Y48345D01*
X420390Y38862D02*
X415875Y38862D01*
X420390Y38862D02*
X420491Y38864D01*
X420592Y38870D01*
X420693Y38879D01*
X420794Y38892D01*
X420894Y38909D01*
X420993Y38930D01*
X421091Y38954D01*
X421188Y38982D01*
X421285Y39014D01*
X421380Y39049D01*
X421473Y39088D01*
X421565Y39130D01*
X421656Y39176D01*
X421745Y39225D01*
X421831Y39277D01*
X421916Y39333D01*
X421999Y39391D01*
X422079Y39453D01*
X422157Y39518D01*
X422233Y39585D01*
X422306Y39655D01*
X422376Y39728D01*
X422443Y39804D01*
X422508Y39882D01*
X422570Y39962D01*
X422628Y40045D01*
X422684Y40130D01*
X422736Y40216D01*
X422785Y40305D01*
X422831Y40396D01*
X422873Y40488D01*
X422912Y40581D01*
X422947Y40676D01*
X422979Y40773D01*
X423007Y40870D01*
X423031Y40968D01*
X423052Y41067D01*
X423069Y41167D01*
X423082Y41268D01*
X423091Y41369D01*
X423097Y41470D01*
X423099Y41571D01*
X423099Y46087D01*
X423097Y46206D01*
X423091Y46326D01*
X423081Y46445D01*
X423067Y46563D01*
X423050Y46682D01*
X423028Y46799D01*
X423003Y46916D01*
X422973Y47031D01*
X422940Y47146D01*
X422903Y47260D01*
X422863Y47372D01*
X422818Y47483D01*
X422770Y47592D01*
X422719Y47700D01*
X422664Y47806D01*
X422605Y47910D01*
X422543Y48012D01*
X422478Y48112D01*
X422409Y48210D01*
X422337Y48306D01*
X422262Y48399D01*
X422185Y48489D01*
X422104Y48577D01*
X422020Y48662D01*
X421933Y48744D01*
X421844Y48824D01*
X421752Y48900D01*
X421658Y48974D01*
X421561Y49044D01*
X421463Y49111D01*
X421362Y49175D01*
X421258Y49235D01*
X421153Y49292D01*
X421046Y49345D01*
X420938Y49395D01*
X420828Y49441D01*
X420716Y49483D01*
X420603Y49522D01*
X420489Y49557D01*
X420374Y49588D01*
X420257Y49616D01*
X420140Y49639D01*
X420023Y49659D01*
X419904Y49675D01*
X419785Y49687D01*
X419666Y49695D01*
X419547Y49699D01*
X419427Y49699D01*
X419308Y49695D01*
X419189Y49687D01*
X419070Y49675D01*
X418951Y49659D01*
X418834Y49639D01*
X418717Y49616D01*
X418600Y49588D01*
X418485Y49557D01*
X418371Y49522D01*
X418258Y49483D01*
X418146Y49441D01*
X418036Y49395D01*
X417928Y49345D01*
X417821Y49292D01*
X417716Y49235D01*
X417612Y49175D01*
X417511Y49111D01*
X417413Y49044D01*
X417316Y48974D01*
X417222Y48900D01*
X417130Y48824D01*
X417041Y48744D01*
X416954Y48662D01*
X416870Y48577D01*
X416789Y48489D01*
X416712Y48399D01*
X416637Y48306D01*
X416565Y48210D01*
X416496Y48112D01*
X416431Y48012D01*
X416369Y47910D01*
X416310Y47806D01*
X416255Y47700D01*
X416204Y47592D01*
X416156Y47483D01*
X416111Y47372D01*
X416071Y47260D01*
X416034Y47146D01*
X416001Y47031D01*
X415971Y46916D01*
X415946Y46799D01*
X415924Y46682D01*
X415907Y46563D01*
X415893Y46445D01*
X415883Y46326D01*
X415877Y46206D01*
X415875Y46087D01*
X415875Y44281D01*
X423099Y44281D01*
X408946Y38862D02*
X408946Y49699D01*
X403528Y49699D01*
X403528Y47893D01*
X398645Y49699D02*
X398645Y38862D01*
X399097Y54215D02*
X399097Y55118D01*
X398194Y55118D01*
X398194Y54215D01*
X399097Y54215D01*
X389649Y38862D02*
X385133Y38862D01*
X389649Y38862D02*
X389750Y38864D01*
X389851Y38870D01*
X389952Y38879D01*
X390053Y38892D01*
X390153Y38909D01*
X390252Y38930D01*
X390350Y38954D01*
X390447Y38982D01*
X390544Y39014D01*
X390639Y39049D01*
X390732Y39088D01*
X390824Y39130D01*
X390915Y39176D01*
X391004Y39225D01*
X391090Y39277D01*
X391175Y39333D01*
X391258Y39391D01*
X391338Y39453D01*
X391416Y39518D01*
X391492Y39585D01*
X391565Y39655D01*
X391635Y39728D01*
X391702Y39804D01*
X391767Y39882D01*
X391829Y39962D01*
X391887Y40045D01*
X391943Y40130D01*
X391995Y40216D01*
X392044Y40305D01*
X392090Y40396D01*
X392132Y40488D01*
X392171Y40581D01*
X392206Y40676D01*
X392238Y40773D01*
X392266Y40870D01*
X392290Y40968D01*
X392311Y41067D01*
X392328Y41167D01*
X392341Y41268D01*
X392350Y41369D01*
X392356Y41470D01*
X392358Y41571D01*
X392358Y46087D01*
X392356Y46206D01*
X392350Y46326D01*
X392340Y46445D01*
X392326Y46563D01*
X392309Y46682D01*
X392287Y46799D01*
X392262Y46916D01*
X392232Y47031D01*
X392199Y47146D01*
X392162Y47260D01*
X392122Y47372D01*
X392077Y47483D01*
X392029Y47592D01*
X391978Y47700D01*
X391923Y47806D01*
X391864Y47910D01*
X391802Y48012D01*
X391737Y48112D01*
X391668Y48210D01*
X391596Y48306D01*
X391521Y48399D01*
X391444Y48489D01*
X391363Y48577D01*
X391279Y48662D01*
X391192Y48744D01*
X391103Y48824D01*
X391011Y48900D01*
X390917Y48974D01*
X390820Y49044D01*
X390722Y49111D01*
X390621Y49175D01*
X390517Y49235D01*
X390412Y49292D01*
X390305Y49345D01*
X390197Y49395D01*
X390087Y49441D01*
X389975Y49483D01*
X389862Y49522D01*
X389748Y49557D01*
X389633Y49588D01*
X389516Y49616D01*
X389399Y49639D01*
X389282Y49659D01*
X389163Y49675D01*
X389044Y49687D01*
X388925Y49695D01*
X388806Y49699D01*
X388686Y49699D01*
X388567Y49695D01*
X388448Y49687D01*
X388329Y49675D01*
X388210Y49659D01*
X388093Y49639D01*
X387976Y49616D01*
X387859Y49588D01*
X387744Y49557D01*
X387630Y49522D01*
X387517Y49483D01*
X387405Y49441D01*
X387295Y49395D01*
X387187Y49345D01*
X387080Y49292D01*
X386975Y49235D01*
X386871Y49175D01*
X386770Y49111D01*
X386672Y49044D01*
X386575Y48974D01*
X386481Y48900D01*
X386389Y48824D01*
X386300Y48744D01*
X386213Y48662D01*
X386129Y48577D01*
X386048Y48489D01*
X385971Y48399D01*
X385896Y48306D01*
X385824Y48210D01*
X385755Y48112D01*
X385690Y48012D01*
X385628Y47910D01*
X385569Y47806D01*
X385514Y47700D01*
X385463Y47592D01*
X385415Y47483D01*
X385370Y47372D01*
X385330Y47260D01*
X385293Y47146D01*
X385260Y47031D01*
X385230Y46916D01*
X385205Y46799D01*
X385183Y46682D01*
X385166Y46563D01*
X385152Y46445D01*
X385142Y46326D01*
X385136Y46206D01*
X385134Y46087D01*
X385133Y46087D02*
X385133Y44281D01*
X392358Y44281D01*
X481838Y20122D02*
X481838Y12898D01*
X481838Y20122D02*
X481836Y20255D01*
X481830Y20387D01*
X481820Y20519D01*
X481807Y20651D01*
X481789Y20783D01*
X481768Y20913D01*
X481743Y21044D01*
X481714Y21173D01*
X481681Y21301D01*
X481645Y21429D01*
X481605Y21555D01*
X481561Y21680D01*
X481513Y21804D01*
X481462Y21926D01*
X481407Y22047D01*
X481349Y22166D01*
X481287Y22284D01*
X481222Y22399D01*
X481153Y22513D01*
X481082Y22624D01*
X481006Y22733D01*
X480928Y22840D01*
X480847Y22945D01*
X480762Y23047D01*
X480675Y23147D01*
X480585Y23244D01*
X480492Y23339D01*
X480396Y23430D01*
X480298Y23519D01*
X480197Y23605D01*
X480093Y23688D01*
X479987Y23768D01*
X479879Y23844D01*
X479769Y23918D01*
X479656Y23988D01*
X479542Y24055D01*
X479425Y24118D01*
X479307Y24178D01*
X479187Y24235D01*
X479065Y24288D01*
X478942Y24337D01*
X478818Y24383D01*
X478692Y24425D01*
X478565Y24463D01*
X478437Y24498D01*
X478308Y24529D01*
X478179Y24556D01*
X478048Y24579D01*
X477917Y24599D01*
X477785Y24614D01*
X477653Y24626D01*
X477521Y24634D01*
X477388Y24638D01*
X477256Y24638D01*
X477123Y24634D01*
X476991Y24626D01*
X476859Y24614D01*
X476727Y24599D01*
X476596Y24579D01*
X476465Y24556D01*
X476336Y24529D01*
X476207Y24498D01*
X476079Y24463D01*
X475952Y24425D01*
X475826Y24383D01*
X475702Y24337D01*
X475579Y24288D01*
X475457Y24235D01*
X475337Y24178D01*
X475219Y24118D01*
X475102Y24055D01*
X474988Y23988D01*
X474875Y23918D01*
X474765Y23844D01*
X474657Y23768D01*
X474551Y23688D01*
X474447Y23605D01*
X474346Y23519D01*
X474248Y23430D01*
X474152Y23339D01*
X474059Y23244D01*
X473969Y23147D01*
X473882Y23047D01*
X473797Y22945D01*
X473716Y22840D01*
X473638Y22733D01*
X473562Y22624D01*
X473491Y22513D01*
X473422Y22399D01*
X473357Y22284D01*
X473295Y22166D01*
X473237Y22047D01*
X473182Y21926D01*
X473131Y21804D01*
X473083Y21680D01*
X473039Y21555D01*
X472999Y21429D01*
X472963Y21301D01*
X472930Y21173D01*
X472901Y21044D01*
X472876Y20913D01*
X472855Y20783D01*
X472837Y20651D01*
X472824Y20519D01*
X472814Y20387D01*
X472808Y20255D01*
X472806Y20122D01*
X472807Y20122D02*
X472807Y12898D01*
X472806Y12898D02*
X472808Y12765D01*
X472814Y12633D01*
X472824Y12501D01*
X472837Y12369D01*
X472855Y12237D01*
X472876Y12107D01*
X472901Y11976D01*
X472930Y11847D01*
X472963Y11719D01*
X472999Y11591D01*
X473039Y11465D01*
X473083Y11340D01*
X473131Y11216D01*
X473182Y11094D01*
X473237Y10973D01*
X473295Y10854D01*
X473357Y10736D01*
X473422Y10621D01*
X473491Y10507D01*
X473562Y10396D01*
X473638Y10287D01*
X473716Y10180D01*
X473797Y10075D01*
X473882Y9973D01*
X473969Y9873D01*
X474059Y9776D01*
X474152Y9681D01*
X474248Y9590D01*
X474346Y9501D01*
X474447Y9415D01*
X474551Y9332D01*
X474657Y9252D01*
X474765Y9176D01*
X474875Y9102D01*
X474988Y9032D01*
X475102Y8965D01*
X475219Y8902D01*
X475337Y8842D01*
X475457Y8785D01*
X475579Y8732D01*
X475702Y8683D01*
X475826Y8637D01*
X475952Y8595D01*
X476079Y8557D01*
X476207Y8522D01*
X476336Y8491D01*
X476465Y8464D01*
X476596Y8441D01*
X476727Y8421D01*
X476859Y8406D01*
X476991Y8394D01*
X477123Y8386D01*
X477256Y8382D01*
X477388Y8382D01*
X477521Y8386D01*
X477653Y8394D01*
X477785Y8406D01*
X477917Y8421D01*
X478048Y8441D01*
X478179Y8464D01*
X478308Y8491D01*
X478437Y8522D01*
X478565Y8557D01*
X478692Y8595D01*
X478818Y8637D01*
X478942Y8683D01*
X479065Y8732D01*
X479187Y8785D01*
X479307Y8842D01*
X479425Y8902D01*
X479542Y8965D01*
X479656Y9032D01*
X479769Y9102D01*
X479879Y9176D01*
X479987Y9252D01*
X480093Y9332D01*
X480197Y9415D01*
X480298Y9501D01*
X480396Y9590D01*
X480492Y9681D01*
X480585Y9776D01*
X480675Y9873D01*
X480762Y9973D01*
X480847Y10075D01*
X480928Y10180D01*
X481006Y10287D01*
X481082Y10396D01*
X481153Y10507D01*
X481222Y10621D01*
X481287Y10736D01*
X481349Y10854D01*
X481407Y10973D01*
X481462Y11094D01*
X481513Y11216D01*
X481561Y11340D01*
X481605Y11465D01*
X481645Y11591D01*
X481681Y11719D01*
X481714Y11847D01*
X481743Y11976D01*
X481768Y12107D01*
X481789Y12237D01*
X481807Y12369D01*
X481820Y12501D01*
X481830Y12633D01*
X481836Y12765D01*
X481838Y12898D01*
X474613Y11994D02*
X471001Y8382D01*
X462949Y8382D02*
X459337Y8382D01*
X462949Y8382D02*
X463067Y8384D01*
X463185Y8390D01*
X463303Y8399D01*
X463420Y8413D01*
X463537Y8430D01*
X463654Y8451D01*
X463769Y8476D01*
X463884Y8505D01*
X463998Y8538D01*
X464110Y8574D01*
X464221Y8614D01*
X464331Y8657D01*
X464440Y8704D01*
X464547Y8754D01*
X464652Y8809D01*
X464755Y8866D01*
X464856Y8927D01*
X464956Y8991D01*
X465053Y9058D01*
X465148Y9128D01*
X465240Y9202D01*
X465331Y9278D01*
X465418Y9358D01*
X465503Y9440D01*
X465585Y9525D01*
X465665Y9612D01*
X465741Y9703D01*
X465815Y9795D01*
X465885Y9890D01*
X465952Y9987D01*
X466016Y10087D01*
X466077Y10188D01*
X466134Y10291D01*
X466189Y10396D01*
X466239Y10503D01*
X466286Y10612D01*
X466329Y10722D01*
X466369Y10833D01*
X466405Y10945D01*
X466438Y11059D01*
X466467Y11174D01*
X466492Y11289D01*
X466513Y11406D01*
X466530Y11523D01*
X466544Y11640D01*
X466553Y11758D01*
X466559Y11876D01*
X466561Y11994D01*
X466562Y11994D02*
X466562Y21026D01*
X466561Y21026D02*
X466559Y21144D01*
X466553Y21262D01*
X466544Y21380D01*
X466530Y21497D01*
X466513Y21614D01*
X466492Y21731D01*
X466467Y21846D01*
X466438Y21961D01*
X466405Y22075D01*
X466369Y22187D01*
X466329Y22298D01*
X466286Y22408D01*
X466239Y22517D01*
X466189Y22624D01*
X466134Y22729D01*
X466077Y22832D01*
X466016Y22933D01*
X465952Y23033D01*
X465885Y23130D01*
X465815Y23225D01*
X465741Y23317D01*
X465665Y23408D01*
X465585Y23495D01*
X465503Y23580D01*
X465418Y23662D01*
X465331Y23742D01*
X465240Y23818D01*
X465148Y23892D01*
X465053Y23962D01*
X464956Y24029D01*
X464856Y24093D01*
X464755Y24154D01*
X464652Y24211D01*
X464547Y24266D01*
X464440Y24316D01*
X464331Y24363D01*
X464221Y24406D01*
X464110Y24446D01*
X463998Y24482D01*
X463884Y24515D01*
X463769Y24544D01*
X463654Y24569D01*
X463537Y24590D01*
X463420Y24607D01*
X463303Y24621D01*
X463185Y24630D01*
X463067Y24636D01*
X462949Y24638D01*
X459337Y24638D01*
D11*
X323850Y50800D03*
X323850Y12700D03*
M02*
