G04 EAGLE Gerber X2 export*
%TF.Part,Single*%
%TF.FileFunction,Soldermask,Bot,1*%
%TF.FilePolarity,Negative*%
%TF.GenerationSoftware,Autodesk,EAGLE,8.7.0*%
%TF.CreationDate,2019-01-30T20:35:29Z*%
G75*
%MOMM*%
%FSLAX34Y34*%
%LPD*%
%AMOC8*
5,1,8,0,0,1.08239X$1,22.5*%
G01*
%ADD10C,4.203191*%
%ADD11P,2.309387X8X202.500000*%
%ADD12C,1.993900*%
%ADD13P,2.144431X8X112.500000*%
%ADD14C,1.981200*%
%ADD15P,1.951982X8X292.500000*%
%ADD16P,2.144431X8X292.500000*%
%ADD17P,1.951982X8X112.500000*%
%ADD18C,1.524000*%
%ADD19C,2.184400*%
%ADD20P,2.034460X8X202.500000*%
%ADD21P,1.649562X8X112.500000*%
%ADD22P,1.649562X8X292.500000*%
%ADD23P,1.649562X8X202.500000*%
%ADD24C,1.727200*%
%ADD25P,1.649562X8X22.500000*%
%ADD26R,2.703200X2.703200*%
%ADD27C,3.203200*%
%ADD28C,1.603200*%
%ADD29C,1.511200*%
%ADD30C,1.661200*%
%ADD31C,3.519200*%
%ADD32P,2.034460X8X112.500000*%
%ADD33C,0.959600*%


D10*
X238760Y35560D03*
X237490Y525780D03*
X817880Y525780D03*
X817880Y35560D03*
D11*
X673100Y635000D03*
X774700Y635000D03*
X723900Y635000D03*
D12*
X59754Y444100D02*
X41847Y444100D01*
X41847Y394100D02*
X59754Y394100D01*
X59754Y215500D02*
X41847Y215500D01*
X41847Y165500D02*
X59754Y165500D01*
D13*
X508000Y431800D03*
D14*
X508000Y406400D03*
D15*
X508000Y355600D03*
X508000Y330200D03*
D16*
X1016000Y406400D03*
D14*
X1016000Y431800D03*
D17*
X1016000Y330200D03*
X1016000Y355600D03*
D18*
X1016000Y133604D02*
X1016000Y120396D01*
X1016000Y196596D02*
X1016000Y209804D01*
D11*
X825500Y635000D03*
D19*
X923544Y165100D02*
X943356Y165100D01*
X923036Y224790D02*
X903224Y224790D01*
X903224Y105410D02*
X923036Y105410D01*
X801116Y105410D02*
X781304Y105410D01*
X781304Y224790D02*
X801116Y224790D01*
D12*
X1134047Y63900D02*
X1151954Y63900D01*
X1151954Y113900D02*
X1134047Y113900D01*
D20*
X1155700Y330200D03*
X1130300Y330200D03*
D12*
X1134047Y178200D02*
X1151954Y178200D01*
X1151954Y228200D02*
X1134047Y228200D01*
D18*
X330200Y127000D02*
X316992Y127000D01*
X316992Y101600D02*
X330200Y101600D01*
X406400Y101600D02*
X419608Y101600D01*
X419608Y127000D02*
X406400Y127000D01*
X330200Y76200D02*
X316992Y76200D01*
X406400Y76200D02*
X419608Y76200D01*
X330200Y241300D02*
X316992Y241300D01*
X316992Y215900D02*
X330200Y215900D01*
X406400Y215900D02*
X419608Y215900D01*
X419608Y241300D02*
X406400Y241300D01*
X330200Y190500D02*
X316992Y190500D01*
X406400Y190500D02*
X419608Y190500D01*
X330200Y355600D02*
X316992Y355600D01*
X316992Y330200D02*
X330200Y330200D01*
X406400Y330200D02*
X419608Y330200D01*
X419608Y355600D02*
X406400Y355600D01*
X330200Y304800D02*
X316992Y304800D01*
X406400Y304800D02*
X419608Y304800D01*
X330200Y469900D02*
X316992Y469900D01*
X316992Y444500D02*
X330200Y444500D01*
X406400Y444500D02*
X419608Y444500D01*
X419608Y469900D02*
X406400Y469900D01*
X330200Y419100D02*
X316992Y419100D01*
X406400Y419100D02*
X419608Y419100D01*
D12*
X1137857Y533800D02*
X1155764Y533800D01*
X1155764Y583800D02*
X1137857Y583800D01*
D21*
X292100Y76200D03*
X292100Y152400D03*
X292100Y419100D03*
X292100Y495300D03*
D22*
X444500Y495300D03*
X444500Y419100D03*
D23*
X546100Y520700D03*
X469900Y520700D03*
D22*
X444500Y152400D03*
X444500Y76200D03*
D21*
X292100Y190500D03*
X292100Y266700D03*
D22*
X444500Y266700D03*
X444500Y190500D03*
D21*
X292100Y304800D03*
X292100Y381000D03*
D22*
X444500Y381000D03*
X444500Y304800D03*
D23*
X736600Y520700D03*
X660400Y520700D03*
D12*
X59754Y329800D02*
X41847Y329800D01*
X41847Y279800D02*
X59754Y279800D01*
X59754Y101200D02*
X41847Y101200D01*
X41847Y51200D02*
X59754Y51200D01*
D24*
X444500Y614680D02*
X444500Y629920D01*
X469900Y629920D02*
X469900Y614680D01*
X495300Y614680D02*
X495300Y629920D01*
X520700Y629920D02*
X520700Y614680D01*
X546100Y614680D02*
X546100Y629920D01*
X571500Y629920D02*
X571500Y614680D01*
D25*
X609600Y152400D03*
X635000Y152400D03*
X635000Y177800D03*
D26*
X960120Y294640D03*
X960120Y467360D03*
X563880Y467360D03*
X563880Y294640D03*
D27*
X906780Y304800D03*
X609600Y457200D03*
D28*
X1109710Y602720D02*
X1123710Y602720D01*
D29*
X1052710Y582260D02*
X1052710Y569180D01*
X1080710Y554260D02*
X1080710Y541180D01*
D28*
X1093710Y602720D02*
X1107710Y602720D01*
D29*
X1052710Y566260D02*
X1052710Y553180D01*
X1080710Y538260D02*
X1080710Y525180D01*
D24*
X205232Y53594D02*
X189992Y53594D01*
X189992Y98806D02*
X205232Y98806D01*
X140208Y53594D02*
X124968Y53594D01*
X124968Y98806D02*
X140208Y98806D01*
X189992Y167894D02*
X205232Y167894D01*
X205232Y213106D02*
X189992Y213106D01*
X140208Y167894D02*
X124968Y167894D01*
X124968Y213106D02*
X140208Y213106D01*
X191262Y280924D02*
X206502Y280924D01*
X206502Y326136D02*
X191262Y326136D01*
X141478Y280924D02*
X126238Y280924D01*
X126238Y326136D02*
X141478Y326136D01*
X189992Y396494D02*
X205232Y396494D01*
X205232Y441706D02*
X189992Y441706D01*
X140208Y396494D02*
X124968Y396494D01*
X124968Y441706D02*
X140208Y441706D01*
D30*
X586900Y97890D02*
X586900Y83310D01*
X606900Y83310D02*
X606900Y97890D01*
X561900Y97890D02*
X561900Y83310D01*
X631900Y83310D02*
X631900Y97890D01*
D31*
X531200Y63500D03*
X662600Y63500D03*
D23*
X942238Y63906D03*
X866038Y63906D03*
D32*
X1005434Y36068D03*
X1005434Y61468D03*
D33*
X889000Y596900D03*
X571500Y241300D03*
X571500Y177800D03*
X482600Y520700D03*
X495300Y571500D03*
X520700Y577850D03*
X495300Y469900D03*
X469900Y558800D03*
X508000Y533400D03*
X520700Y368300D03*
X508000Y190500D03*
X1016000Y495300D03*
X533400Y254000D03*
X482600Y304800D03*
X469900Y469900D03*
X558800Y584200D03*
X393700Y546100D03*
X25400Y571500D03*
X25400Y482600D03*
X76200Y571500D03*
X76200Y482600D03*
X127000Y571500D03*
X127000Y482600D03*
X190500Y571500D03*
X190500Y482600D03*
M02*
