G04 EAGLE Gerber X2 export*
%TF.Part,Single*%
%TF.FileFunction,Copper,L1,Top,Mixed*%
%TF.FilePolarity,Positive*%
%TF.GenerationSoftware,Autodesk,EAGLE,8.7.0*%
%TF.CreationDate,2018-11-07T17:36:19Z*%
G75*
%MOMM*%
%FSLAX34Y34*%
%LPD*%
%AMOC8*
5,1,8,0,0,1.08239X$1,22.5*%
G01*
%ADD10P,2.089446X8X202.500000*%
%ADD11C,1.790700*%
%ADD12P,1.924489X8X112.500000*%
%ADD13C,1.778000*%
%ADD14P,1.732040X8X292.500000*%
%ADD15P,1.732040X8X112.500000*%
%ADD16C,1.320800*%
%ADD17C,1.981200*%
%ADD18P,1.814519X8X202.500000*%
%ADD19P,1.429621X8X112.500000*%
%ADD20P,1.429621X8X292.500000*%
%ADD21P,1.429621X8X22.500000*%
%ADD22P,1.429621X8X202.500000*%
%ADD23C,1.524000*%
%ADD24R,2.500000X2.500000*%
%ADD25C,1.458000*%
%ADD26C,1.400000*%
%ADD27C,1.308000*%
%ADD28C,1.016000*%
%ADD29C,0.956400*%
%ADD30C,0.508000*%

G36*
X673174Y12337D02*
X673174Y12337D01*
X673249Y12350D01*
X673259Y12357D01*
X673269Y12359D01*
X673298Y12383D01*
X673369Y12431D01*
X698708Y37770D01*
X698748Y37835D01*
X698792Y37897D01*
X698794Y37909D01*
X698799Y37917D01*
X698803Y37954D01*
X698819Y38039D01*
X698819Y39531D01*
X698867Y39710D01*
X698869Y39748D01*
X698880Y39808D01*
X698880Y63500D01*
X698863Y63574D01*
X698850Y63649D01*
X698843Y63659D01*
X698841Y63669D01*
X698817Y63698D01*
X698769Y63769D01*
X673369Y89169D01*
X673304Y89209D01*
X673242Y89253D01*
X673230Y89255D01*
X673222Y89260D01*
X673185Y89264D01*
X673100Y89280D01*
X558958Y89280D01*
X546369Y101869D01*
X546304Y101909D01*
X546242Y101953D01*
X546230Y101955D01*
X546222Y101960D01*
X546185Y101964D01*
X546100Y101980D01*
X508000Y101980D01*
X507950Y101969D01*
X507899Y101967D01*
X507867Y101949D01*
X507831Y101941D01*
X507792Y101908D01*
X507747Y101884D01*
X507726Y101854D01*
X507698Y101831D01*
X507677Y101784D01*
X507647Y101742D01*
X507639Y101700D01*
X507627Y101672D01*
X507628Y101642D01*
X507620Y101600D01*
X507620Y38100D01*
X507637Y38026D01*
X507650Y37951D01*
X507657Y37941D01*
X507659Y37931D01*
X507683Y37902D01*
X507731Y37831D01*
X533131Y12431D01*
X533196Y12391D01*
X533258Y12347D01*
X533270Y12345D01*
X533278Y12340D01*
X533315Y12336D01*
X533400Y12320D01*
X673100Y12320D01*
X673174Y12337D01*
G37*
D10*
X584200Y596900D03*
X660400Y596900D03*
X622300Y596900D03*
D11*
X59754Y444100D02*
X41847Y444100D01*
X41847Y394100D02*
X59754Y394100D01*
X59754Y215500D02*
X41847Y215500D01*
X41847Y165500D02*
X59754Y165500D01*
D12*
X342900Y355600D03*
D13*
X342900Y330200D03*
D14*
X342900Y431800D03*
X342900Y406400D03*
D12*
X863600Y393700D03*
D13*
X863600Y368300D03*
D15*
X863600Y304800D03*
X863600Y330200D03*
D16*
X825500Y146304D02*
X825500Y133096D01*
X825500Y209296D02*
X825500Y222504D01*
D10*
X698500Y596900D03*
D17*
X733044Y165100D02*
X752856Y165100D01*
X732536Y224790D02*
X712724Y224790D01*
X712724Y105410D02*
X732536Y105410D01*
X610616Y105410D02*
X590804Y105410D01*
X590804Y224790D02*
X610616Y224790D01*
D11*
X930847Y63900D02*
X948754Y63900D01*
X948754Y113900D02*
X930847Y113900D01*
D18*
X952500Y368300D03*
X927100Y368300D03*
D11*
X930847Y178200D02*
X948754Y178200D01*
X948754Y228200D02*
X930847Y228200D01*
D16*
X165100Y127000D02*
X151892Y127000D01*
X151892Y101600D02*
X165100Y101600D01*
X241300Y101600D02*
X254508Y101600D01*
X254508Y127000D02*
X241300Y127000D01*
X165100Y76200D02*
X151892Y76200D01*
X241300Y76200D02*
X254508Y76200D01*
X165100Y241300D02*
X151892Y241300D01*
X151892Y215900D02*
X165100Y215900D01*
X241300Y215900D02*
X254508Y215900D01*
X254508Y241300D02*
X241300Y241300D01*
X165100Y190500D02*
X151892Y190500D01*
X241300Y190500D02*
X254508Y190500D01*
X165100Y355600D02*
X151892Y355600D01*
X151892Y330200D02*
X165100Y330200D01*
X241300Y330200D02*
X254508Y330200D01*
X254508Y355600D02*
X241300Y355600D01*
X165100Y304800D02*
X151892Y304800D01*
X241300Y304800D02*
X254508Y304800D01*
X165100Y469900D02*
X151892Y469900D01*
X151892Y444500D02*
X165100Y444500D01*
X241300Y444500D02*
X254508Y444500D01*
X254508Y469900D02*
X241300Y469900D01*
X165100Y419100D02*
X151892Y419100D01*
X241300Y419100D02*
X254508Y419100D01*
D11*
X930847Y508400D02*
X948754Y508400D01*
X948754Y558400D02*
X930847Y558400D01*
D19*
X129540Y77470D03*
X129540Y153670D03*
X127000Y419100D03*
X127000Y495300D03*
D20*
X279400Y495300D03*
X279400Y419100D03*
D21*
X393700Y520700D03*
X469900Y520700D03*
D20*
X279400Y152400D03*
X279400Y76200D03*
D19*
X130810Y191770D03*
X130810Y267970D03*
D20*
X279400Y266700D03*
X279400Y190500D03*
D19*
X127000Y304800D03*
X127000Y381000D03*
D20*
X279400Y381000D03*
X279400Y304800D03*
D22*
X660400Y520700D03*
X584200Y520700D03*
D11*
X59754Y329800D02*
X41847Y329800D01*
X41847Y279800D02*
X59754Y279800D01*
X59754Y101200D02*
X41847Y101200D01*
X41847Y51200D02*
X59754Y51200D01*
D23*
X495300Y563880D02*
X495300Y579120D01*
X469900Y579120D02*
X469900Y563880D01*
X444500Y563880D02*
X444500Y579120D01*
X419100Y579120D02*
X419100Y563880D01*
X393700Y563880D02*
X393700Y579120D01*
X368300Y579120D02*
X368300Y563880D01*
D22*
X482600Y190500D03*
X457200Y190500D03*
X457200Y165100D03*
D24*
X795020Y294640D03*
X795020Y467360D03*
X398780Y467360D03*
X398780Y294640D03*
D25*
X409100Y85190D02*
X409100Y70610D01*
X429100Y70610D02*
X429100Y85190D01*
X384100Y85190D02*
X384100Y70610D01*
X454100Y70610D02*
X454100Y85190D01*
D26*
X902700Y595100D02*
X916700Y595100D01*
D27*
X845700Y574640D02*
X845700Y561560D01*
X873700Y546640D02*
X873700Y533560D01*
D26*
X886700Y595100D02*
X900700Y595100D01*
D27*
X845700Y558640D02*
X845700Y545560D01*
X873700Y530640D02*
X873700Y517560D01*
D28*
X103270Y51200D02*
X50800Y51200D01*
X103270Y51200D02*
X129540Y77470D01*
X15240Y408540D02*
X50800Y444100D01*
X15240Y365360D02*
X50800Y329800D01*
X15240Y365360D02*
X15240Y408540D01*
X50800Y329800D02*
X15240Y294240D01*
X15240Y241300D01*
X41040Y215500D01*
X50800Y215500D01*
X15240Y179940D01*
X15240Y136760D02*
X50800Y101200D01*
X15240Y136760D02*
X15240Y179940D01*
X50800Y444100D02*
X50800Y520700D01*
X98960Y568860D01*
X264060Y568860D02*
X302260Y607060D01*
X264060Y568860D02*
X98960Y568860D01*
X546100Y596900D02*
X584200Y596900D01*
X546100Y596900D02*
X535940Y607060D01*
X302260Y607060D01*
X863600Y368300D02*
X889000Y342900D01*
X889000Y330200D01*
X863600Y304800D01*
X853440Y294640D02*
X795020Y294640D01*
X853440Y294640D02*
X863600Y304800D01*
X756920Y139700D02*
X722630Y105410D01*
X756920Y139700D02*
X825500Y139700D01*
X914000Y139700D02*
X939800Y113900D01*
X914000Y139700D02*
X825500Y139700D01*
D29*
X596900Y546100D03*
D28*
X584200Y558800D01*
X584200Y596900D01*
D29*
X876300Y469900D03*
D28*
X673100Y154940D02*
X722630Y105410D01*
X673100Y154940D02*
X673100Y228600D01*
D29*
X673100Y228600D03*
D28*
X876300Y469900D02*
X800100Y546100D01*
X800100Y561020D01*
D29*
X800100Y561020D03*
D28*
X165100Y127000D02*
X156210Y127000D01*
X129540Y153670D01*
X165100Y101600D02*
X190500Y127000D01*
X190500Y241300D01*
X165100Y215900D01*
X190500Y241300D02*
X190500Y355600D01*
X165100Y330200D01*
X190500Y508000D02*
X215900Y533400D01*
X190500Y469900D02*
X190500Y355600D01*
X190500Y469900D02*
X190500Y508000D01*
X190500Y469900D02*
X165100Y444500D01*
X215900Y533400D02*
X266700Y533400D01*
X279400Y520700D01*
X279400Y495300D01*
X304800Y355600D02*
X342900Y355600D01*
X279400Y152400D02*
X304800Y127000D01*
X304800Y25400D01*
X314960Y15240D01*
X454100Y27380D02*
X454100Y77900D01*
X441960Y15240D02*
X314960Y15240D01*
X441960Y15240D02*
X454100Y27380D01*
X251460Y15240D02*
X165100Y101600D01*
X251460Y15240D02*
X314960Y15240D01*
X304800Y241300D02*
X279400Y266700D01*
X304800Y241300D02*
X304800Y177800D01*
X279400Y152400D01*
X304800Y355600D02*
X279400Y381000D01*
X304800Y355600D02*
X304800Y292100D01*
X279400Y266700D01*
X342900Y355600D02*
X342900Y406400D01*
X398780Y424180D02*
X398780Y467360D01*
X398780Y424180D02*
X381000Y406400D01*
X342900Y406400D01*
X482600Y190500D02*
X482600Y106400D01*
X454100Y77900D01*
X927100Y368300D02*
X939800Y381000D01*
X939800Y508400D01*
X901700Y393700D02*
X927100Y368300D01*
X901700Y393700D02*
X863600Y393700D01*
X840740Y467360D02*
X795020Y467360D01*
X863600Y444500D02*
X863600Y393700D01*
X863600Y444500D02*
X840740Y467360D01*
X850900Y330200D02*
X863600Y330200D01*
X850900Y330200D02*
X838200Y342900D01*
X838200Y381000D01*
X850900Y393700D01*
X863600Y393700D01*
X939800Y63900D02*
X940200Y63900D01*
X975426Y99126D01*
X975428Y101602D01*
X975428Y256472D01*
X927100Y304800D02*
X927100Y368300D01*
X927100Y304800D02*
X975428Y256472D01*
X525100Y63900D02*
X482600Y106400D01*
X750477Y63900D02*
X939800Y63900D01*
X750477Y63900D02*
X743577Y70800D01*
X714383Y70800D01*
X707483Y63900D01*
X525100Y63900D01*
X812800Y596900D02*
X816900Y596900D01*
X810000Y596900D02*
X698500Y596900D01*
X904416Y543784D02*
X939800Y508400D01*
X870016Y543784D02*
X858844Y554956D01*
X858844Y564084D01*
X851144Y571784D01*
X845700Y571784D01*
X870016Y543784D02*
X904416Y543784D01*
X845700Y568100D02*
X816900Y596900D01*
X812800Y596900D02*
X810000Y596900D01*
X398780Y294640D02*
X353060Y294640D01*
X342900Y304800D01*
X342900Y330200D01*
X384100Y279960D02*
X384100Y77900D01*
X384100Y279960D02*
X398780Y294640D01*
X622300Y584200D02*
X622300Y596900D01*
X622300Y584200D02*
X622300Y558800D01*
D29*
X520700Y368300D03*
D28*
X476250Y368300D01*
D29*
X476250Y368300D03*
D28*
X622300Y533400D02*
X622300Y558800D01*
X622300Y533400D02*
X609600Y520700D01*
X584200Y520700D01*
X279400Y304800D02*
X241300Y304800D01*
D30*
X266700Y317500D02*
X279400Y304800D01*
X266700Y317500D02*
X266700Y393700D01*
X271780Y398780D01*
X297180Y398780D01*
X304800Y406400D01*
X304800Y457200D01*
X342900Y495300D01*
X393700Y495300D02*
X419100Y520700D01*
X419100Y571500D01*
X393700Y495300D02*
X342900Y495300D01*
D28*
X104540Y165500D02*
X50800Y165500D01*
X104540Y165500D02*
X130810Y191770D01*
X157480Y241300D02*
X165100Y241300D01*
X157480Y241300D02*
X130810Y267970D01*
X102000Y279800D02*
X50800Y279800D01*
X102000Y279800D02*
X127000Y304800D01*
X152400Y355600D02*
X165100Y355600D01*
X152400Y355600D02*
X127000Y381000D01*
X241300Y76200D02*
X279400Y76200D01*
X279400Y190500D02*
X241300Y190500D01*
D30*
X393700Y520700D02*
X393700Y571500D01*
D28*
X102000Y394100D02*
X50800Y394100D01*
X102000Y394100D02*
X127000Y419100D01*
X152400Y469900D02*
X165100Y469900D01*
X152400Y469900D02*
X127000Y495300D01*
X731520Y215900D02*
X825500Y215900D01*
X731520Y215900D02*
X722630Y224790D01*
X457200Y508000D02*
X469900Y520700D01*
X457200Y427134D02*
X457200Y190500D01*
X457200Y427134D02*
X474740Y444674D01*
X474740Y469726D01*
X457200Y487266D01*
X457200Y508000D01*
X864000Y228200D02*
X939800Y228200D01*
X864000Y228200D02*
X838200Y254000D01*
X629920Y254000D02*
X600710Y224790D01*
X629920Y254000D02*
X838200Y254000D01*
X756050Y178200D02*
X742950Y165100D01*
X756050Y178200D02*
X939800Y178200D01*
X279400Y419100D02*
X241300Y419100D01*
D30*
X279400Y419100D02*
X279400Y469900D01*
X342900Y533400D02*
X342900Y546100D01*
X368300Y571500D01*
X342900Y533400D02*
X279400Y469900D01*
D28*
X241300Y444500D02*
X215900Y419100D01*
X215900Y127000D02*
X241300Y101600D01*
X215900Y127000D02*
X215900Y228600D01*
X215900Y342900D01*
X215900Y419100D01*
X228600Y215900D02*
X241300Y215900D01*
X228600Y215900D02*
X215900Y228600D01*
X228600Y330200D02*
X241300Y330200D01*
X228600Y330200D02*
X215900Y342900D01*
M02*
