M48
;GenerationSoftware,Autodesk,EAGLE,8.7.0*%
;CreationDate,2018-11-07T17:36:19Z*%
FMAT,2
ICI,OFF
METRIC,TZ,000.000
T11C0.550
T10C0.800
T9C0.813
T8C0.950
T7C1.016
T6C1.194
T5C1.321
T4C1.500
T3C2.300
T2C3.000
T1C4.000
%
G90
M71
T1
X14986Y3556
X14859Y52578
X72898Y52578
X72898Y3556
T2
X74168Y30480
X44450Y45720
T3
X35340Y5080
X48480Y5080
T4
X39878Y46736
X79502Y29464
X79502Y46736
X39878Y29464
T5
X60071Y22479
X60071Y10541
X72263Y10541
X72263Y22479
X74295Y16510
T6
X5080Y32980
X93980Y55840
X5080Y39410
X5080Y21550
X5080Y16550
X5080Y44410
X93980Y6390
X93980Y11390
X93980Y50840
X93980Y17820
X93980Y22820
X5080Y5120
X5080Y10120
X5080Y27980
T7
X49530Y57150
X46990Y57150
X44450Y57150
X58420Y59690
X39370Y57150
X36830Y57150
X69850Y59690
X62230Y59690
X41910Y57150
X66040Y59690
T8
X40910Y7790
X42910Y7790
X38410Y7790
X45410Y7790
T9
X24130Y10160
X24130Y12700
X16510Y7620
X24130Y7620
X16510Y24130
X16510Y21590
X24130Y21590
X24130Y24130
X16510Y19050
X24130Y19050
X16510Y35560
X16510Y33020
X24130Y33020
X24130Y35560
X16510Y30480
X24130Y30480
X16510Y46990
X16510Y44450
X24130Y44450
X24130Y46990
X16510Y41910
X24130Y41910
X12954Y7747
X12954Y15367
X12700Y41910
X12700Y49530
X27940Y49530
X27940Y41910
X39370Y52070
X46990Y52070
X27940Y15240
X27940Y7620
X13081Y19177
X13081Y26797
X27940Y26670
X27940Y19050
X12700Y30480
X12700Y38100
X27940Y38100
X27940Y30480
X66040Y52070
X58420Y52070
X86360Y33020
X34290Y35560
X34290Y33020
X34290Y43180
X34290Y40640
X86360Y39370
X48260Y19050
X45720Y19050
X45720Y16510
X86360Y36830
X86360Y30480
X82550Y13970
X82550Y21590
X95250Y36830
X92710Y36830
X16510Y12700
X16510Y10160
T10
X90970Y59510
X84570Y56810
X87370Y54010
X89370Y59510
X84570Y55210
X87370Y52410
T11
X87630Y46990
X59690Y54610
X47625Y36830
X52070Y36830
X80010Y56102
X67310Y22860
M30