G04 EAGLE Gerber X2 export*
%TF.Part,Single*%
%TF.FileFunction,Profile,NP*%
%TF.FilePolarity,Positive*%
%TF.GenerationSoftware,Autodesk,EAGLE,8.7.0*%
%TF.CreationDate,2018-11-07T17:36:19Z*%
G75*
%MOMM*%
%FSLAX34Y34*%
%LPD*%
%AMOC8*
5,1,8,0,0,1.08239X$1,22.5*%
G01*
%ADD10C,0.254000*%


D10*
X0Y25400D02*
X97Y23186D01*
X386Y20989D01*
X865Y18826D01*
X1532Y16713D01*
X2380Y14666D01*
X3403Y12700D01*
X4594Y10831D01*
X5942Y9073D01*
X7440Y7440D01*
X9073Y5942D01*
X10831Y4594D01*
X12700Y3403D01*
X14666Y2380D01*
X16713Y1532D01*
X18826Y865D01*
X20989Y386D01*
X23186Y97D01*
X25400Y0D01*
X965710Y0D01*
X967901Y118D01*
X970073Y426D01*
X972209Y923D01*
X974295Y1604D01*
X976313Y2464D01*
X978248Y3496D01*
X980086Y4694D01*
X981813Y6047D01*
X983416Y7545D01*
X984881Y9177D01*
X986199Y10931D01*
X987359Y12793D01*
X988352Y14749D01*
X989171Y16785D01*
X989809Y18883D01*
X990262Y21030D01*
X990527Y23208D01*
X990600Y25400D01*
X991110Y595530D01*
X990932Y597933D01*
X990545Y600312D01*
X989952Y602647D01*
X989158Y604923D01*
X988168Y607120D01*
X986991Y609222D01*
X985635Y611215D01*
X984111Y613081D01*
X982429Y614807D01*
X980604Y616380D01*
X978648Y617789D01*
X976578Y619021D01*
X974407Y620068D01*
X972154Y620922D01*
X969835Y621577D01*
X967467Y622026D01*
X965070Y622268D01*
X962660Y622300D01*
X241300Y622300D01*
X203100Y584100D01*
X25400Y584100D01*
X23190Y584008D01*
X20997Y583724D01*
X18837Y583249D01*
X16727Y582588D01*
X14682Y581746D01*
X12718Y580729D01*
X10851Y579544D01*
X9094Y578201D01*
X7460Y576711D01*
X5963Y575083D01*
X4613Y573331D01*
X3421Y571468D01*
X2396Y569509D01*
X1546Y567467D01*
X877Y565359D01*
X394Y563201D01*
X101Y561009D01*
X0Y558800D01*
X0Y25400D01*
X841700Y545100D02*
X849700Y545100D01*
X849700Y575100D01*
X841700Y575100D01*
X841700Y545100D01*
X884200Y591100D02*
X919200Y591100D01*
X919200Y599100D01*
X884200Y599100D01*
X884200Y591100D01*
X869700Y517100D02*
X877700Y517100D01*
X877700Y547100D01*
X869700Y547100D01*
X869700Y517100D01*
X169860Y34956D02*
X169787Y33749D01*
X169641Y32549D01*
X169423Y31360D01*
X169134Y30187D01*
X168775Y29033D01*
X168346Y27903D01*
X167850Y26801D01*
X167288Y25730D01*
X166663Y24696D01*
X165976Y23701D01*
X165231Y22750D01*
X164429Y21845D01*
X163575Y20991D01*
X162670Y20189D01*
X161719Y19444D01*
X160724Y18757D01*
X159690Y18132D01*
X158619Y17570D01*
X157517Y17074D01*
X156387Y16645D01*
X155233Y16286D01*
X154060Y15997D01*
X152871Y15779D01*
X151671Y15633D01*
X150464Y15560D01*
X149256Y15560D01*
X148049Y15633D01*
X146849Y15779D01*
X145660Y15997D01*
X144487Y16286D01*
X143333Y16645D01*
X142203Y17074D01*
X141101Y17570D01*
X140030Y18132D01*
X138996Y18757D01*
X138001Y19444D01*
X137050Y20189D01*
X136145Y20991D01*
X135291Y21845D01*
X134489Y22750D01*
X133744Y23701D01*
X133057Y24696D01*
X132432Y25730D01*
X131870Y26801D01*
X131374Y27903D01*
X130945Y29033D01*
X130586Y30187D01*
X130297Y31360D01*
X130079Y32549D01*
X129933Y33749D01*
X129860Y34956D01*
X129860Y36164D01*
X129933Y37371D01*
X130079Y38571D01*
X130297Y39760D01*
X130586Y40933D01*
X130945Y42087D01*
X131374Y43217D01*
X131870Y44319D01*
X132432Y45390D01*
X133057Y46424D01*
X133744Y47419D01*
X134489Y48370D01*
X135291Y49275D01*
X136145Y50129D01*
X137050Y50931D01*
X138001Y51676D01*
X138996Y52363D01*
X140030Y52988D01*
X141101Y53550D01*
X142203Y54046D01*
X143333Y54475D01*
X144487Y54834D01*
X145660Y55123D01*
X146849Y55341D01*
X148049Y55487D01*
X149256Y55560D01*
X150464Y55560D01*
X151671Y55487D01*
X152871Y55341D01*
X154060Y55123D01*
X155233Y54834D01*
X156387Y54475D01*
X157517Y54046D01*
X158619Y53550D01*
X159690Y52988D01*
X160724Y52363D01*
X161719Y51676D01*
X162670Y50931D01*
X163575Y50129D01*
X164429Y49275D01*
X165231Y48370D01*
X165976Y47419D01*
X166663Y46424D01*
X167288Y45390D01*
X167850Y44319D01*
X168346Y43217D01*
X168775Y42087D01*
X169134Y40933D01*
X169423Y39760D01*
X169641Y38571D01*
X169787Y37371D01*
X169860Y36164D01*
X169860Y34956D01*
X168590Y525176D02*
X168517Y523969D01*
X168371Y522769D01*
X168153Y521580D01*
X167864Y520407D01*
X167505Y519253D01*
X167076Y518123D01*
X166580Y517021D01*
X166018Y515950D01*
X165393Y514916D01*
X164706Y513921D01*
X163961Y512970D01*
X163159Y512065D01*
X162305Y511211D01*
X161400Y510409D01*
X160449Y509664D01*
X159454Y508977D01*
X158420Y508352D01*
X157349Y507790D01*
X156247Y507294D01*
X155117Y506865D01*
X153963Y506506D01*
X152790Y506217D01*
X151601Y505999D01*
X150401Y505853D01*
X149194Y505780D01*
X147986Y505780D01*
X146779Y505853D01*
X145579Y505999D01*
X144390Y506217D01*
X143217Y506506D01*
X142063Y506865D01*
X140933Y507294D01*
X139831Y507790D01*
X138760Y508352D01*
X137726Y508977D01*
X136731Y509664D01*
X135780Y510409D01*
X134875Y511211D01*
X134021Y512065D01*
X133219Y512970D01*
X132474Y513921D01*
X131787Y514916D01*
X131162Y515950D01*
X130600Y517021D01*
X130104Y518123D01*
X129675Y519253D01*
X129316Y520407D01*
X129027Y521580D01*
X128809Y522769D01*
X128663Y523969D01*
X128590Y525176D01*
X128590Y526384D01*
X128663Y527591D01*
X128809Y528791D01*
X129027Y529980D01*
X129316Y531153D01*
X129675Y532307D01*
X130104Y533437D01*
X130600Y534539D01*
X131162Y535610D01*
X131787Y536644D01*
X132474Y537639D01*
X133219Y538590D01*
X134021Y539495D01*
X134875Y540349D01*
X135780Y541151D01*
X136731Y541896D01*
X137726Y542583D01*
X138760Y543208D01*
X139831Y543770D01*
X140933Y544266D01*
X142063Y544695D01*
X143217Y545054D01*
X144390Y545343D01*
X145579Y545561D01*
X146779Y545707D01*
X147986Y545780D01*
X149194Y545780D01*
X150401Y545707D01*
X151601Y545561D01*
X152790Y545343D01*
X153963Y545054D01*
X155117Y544695D01*
X156247Y544266D01*
X157349Y543770D01*
X158420Y543208D01*
X159454Y542583D01*
X160449Y541896D01*
X161400Y541151D01*
X162305Y540349D01*
X163159Y539495D01*
X163961Y538590D01*
X164706Y537639D01*
X165393Y536644D01*
X166018Y535610D01*
X166580Y534539D01*
X167076Y533437D01*
X167505Y532307D01*
X167864Y531153D01*
X168153Y529980D01*
X168371Y528791D01*
X168517Y527591D01*
X168590Y526384D01*
X168590Y525176D01*
X748980Y525176D02*
X748907Y523969D01*
X748761Y522769D01*
X748543Y521580D01*
X748254Y520407D01*
X747895Y519253D01*
X747466Y518123D01*
X746970Y517021D01*
X746408Y515950D01*
X745783Y514916D01*
X745096Y513921D01*
X744351Y512970D01*
X743549Y512065D01*
X742695Y511211D01*
X741790Y510409D01*
X740839Y509664D01*
X739844Y508977D01*
X738810Y508352D01*
X737739Y507790D01*
X736637Y507294D01*
X735507Y506865D01*
X734353Y506506D01*
X733180Y506217D01*
X731991Y505999D01*
X730791Y505853D01*
X729584Y505780D01*
X728376Y505780D01*
X727169Y505853D01*
X725969Y505999D01*
X724780Y506217D01*
X723607Y506506D01*
X722453Y506865D01*
X721323Y507294D01*
X720221Y507790D01*
X719150Y508352D01*
X718116Y508977D01*
X717121Y509664D01*
X716170Y510409D01*
X715265Y511211D01*
X714411Y512065D01*
X713609Y512970D01*
X712864Y513921D01*
X712177Y514916D01*
X711552Y515950D01*
X710990Y517021D01*
X710494Y518123D01*
X710065Y519253D01*
X709706Y520407D01*
X709417Y521580D01*
X709199Y522769D01*
X709053Y523969D01*
X708980Y525176D01*
X708980Y526384D01*
X709053Y527591D01*
X709199Y528791D01*
X709417Y529980D01*
X709706Y531153D01*
X710065Y532307D01*
X710494Y533437D01*
X710990Y534539D01*
X711552Y535610D01*
X712177Y536644D01*
X712864Y537639D01*
X713609Y538590D01*
X714411Y539495D01*
X715265Y540349D01*
X716170Y541151D01*
X717121Y541896D01*
X718116Y542583D01*
X719150Y543208D01*
X720221Y543770D01*
X721323Y544266D01*
X722453Y544695D01*
X723607Y545054D01*
X724780Y545343D01*
X725969Y545561D01*
X727169Y545707D01*
X728376Y545780D01*
X729584Y545780D01*
X730791Y545707D01*
X731991Y545561D01*
X733180Y545343D01*
X734353Y545054D01*
X735507Y544695D01*
X736637Y544266D01*
X737739Y543770D01*
X738810Y543208D01*
X739844Y542583D01*
X740839Y541896D01*
X741790Y541151D01*
X742695Y540349D01*
X743549Y539495D01*
X744351Y538590D01*
X745096Y537639D01*
X745783Y536644D01*
X746408Y535610D01*
X746970Y534539D01*
X747466Y533437D01*
X747895Y532307D01*
X748254Y531153D01*
X748543Y529980D01*
X748761Y528791D01*
X748907Y527591D01*
X748980Y526384D01*
X748980Y525176D01*
X748980Y34956D02*
X748907Y33749D01*
X748761Y32549D01*
X748543Y31360D01*
X748254Y30187D01*
X747895Y29033D01*
X747466Y27903D01*
X746970Y26801D01*
X746408Y25730D01*
X745783Y24696D01*
X745096Y23701D01*
X744351Y22750D01*
X743549Y21845D01*
X742695Y20991D01*
X741790Y20189D01*
X740839Y19444D01*
X739844Y18757D01*
X738810Y18132D01*
X737739Y17570D01*
X736637Y17074D01*
X735507Y16645D01*
X734353Y16286D01*
X733180Y15997D01*
X731991Y15779D01*
X730791Y15633D01*
X729584Y15560D01*
X728376Y15560D01*
X727169Y15633D01*
X725969Y15779D01*
X724780Y15997D01*
X723607Y16286D01*
X722453Y16645D01*
X721323Y17074D01*
X720221Y17570D01*
X719150Y18132D01*
X718116Y18757D01*
X717121Y19444D01*
X716170Y20189D01*
X715265Y20991D01*
X714411Y21845D01*
X713609Y22750D01*
X712864Y23701D01*
X712177Y24696D01*
X711552Y25730D01*
X710990Y26801D01*
X710494Y27903D01*
X710065Y29033D01*
X709706Y30187D01*
X709417Y31360D01*
X709199Y32549D01*
X709053Y33749D01*
X708980Y34956D01*
X708980Y36164D01*
X709053Y37371D01*
X709199Y38571D01*
X709417Y39760D01*
X709706Y40933D01*
X710065Y42087D01*
X710494Y43217D01*
X710990Y44319D01*
X711552Y45390D01*
X712177Y46424D01*
X712864Y47419D01*
X713609Y48370D01*
X714411Y49275D01*
X715265Y50129D01*
X716170Y50931D01*
X717121Y51676D01*
X718116Y52363D01*
X719150Y52988D01*
X720221Y53550D01*
X721323Y54046D01*
X722453Y54475D01*
X723607Y54834D01*
X724780Y55123D01*
X725969Y55341D01*
X727169Y55487D01*
X728376Y55560D01*
X729584Y55560D01*
X730791Y55487D01*
X731991Y55341D01*
X733180Y55123D01*
X734353Y54834D01*
X735507Y54475D01*
X736637Y54046D01*
X737739Y53550D01*
X738810Y52988D01*
X739844Y52363D01*
X740839Y51676D01*
X741790Y50931D01*
X742695Y50129D01*
X743549Y49275D01*
X744351Y48370D01*
X745096Y47419D01*
X745783Y46424D01*
X746408Y45390D01*
X746970Y44319D01*
X747466Y43217D01*
X747895Y42087D01*
X748254Y40933D01*
X748543Y39760D01*
X748761Y38571D01*
X748907Y37371D01*
X748980Y36164D01*
X748980Y34956D01*
X169860Y34956D02*
X169787Y33749D01*
X169641Y32549D01*
X169423Y31360D01*
X169134Y30187D01*
X168775Y29033D01*
X168346Y27903D01*
X167850Y26801D01*
X167288Y25730D01*
X166663Y24696D01*
X165976Y23701D01*
X165231Y22750D01*
X164429Y21845D01*
X163575Y20991D01*
X162670Y20189D01*
X161719Y19444D01*
X160724Y18757D01*
X159690Y18132D01*
X158619Y17570D01*
X157517Y17074D01*
X156387Y16645D01*
X155233Y16286D01*
X154060Y15997D01*
X152871Y15779D01*
X151671Y15633D01*
X150464Y15560D01*
X149256Y15560D01*
X148049Y15633D01*
X146849Y15779D01*
X145660Y15997D01*
X144487Y16286D01*
X143333Y16645D01*
X142203Y17074D01*
X141101Y17570D01*
X140030Y18132D01*
X138996Y18757D01*
X138001Y19444D01*
X137050Y20189D01*
X136145Y20991D01*
X135291Y21845D01*
X134489Y22750D01*
X133744Y23701D01*
X133057Y24696D01*
X132432Y25730D01*
X131870Y26801D01*
X131374Y27903D01*
X130945Y29033D01*
X130586Y30187D01*
X130297Y31360D01*
X130079Y32549D01*
X129933Y33749D01*
X129860Y34956D01*
X129860Y36164D01*
X129933Y37371D01*
X130079Y38571D01*
X130297Y39760D01*
X130586Y40933D01*
X130945Y42087D01*
X131374Y43217D01*
X131870Y44319D01*
X132432Y45390D01*
X133057Y46424D01*
X133744Y47419D01*
X134489Y48370D01*
X135291Y49275D01*
X136145Y50129D01*
X137050Y50931D01*
X138001Y51676D01*
X138996Y52363D01*
X140030Y52988D01*
X141101Y53550D01*
X142203Y54046D01*
X143333Y54475D01*
X144487Y54834D01*
X145660Y55123D01*
X146849Y55341D01*
X148049Y55487D01*
X149256Y55560D01*
X150464Y55560D01*
X151671Y55487D01*
X152871Y55341D01*
X154060Y55123D01*
X155233Y54834D01*
X156387Y54475D01*
X157517Y54046D01*
X158619Y53550D01*
X159690Y52988D01*
X160724Y52363D01*
X161719Y51676D01*
X162670Y50931D01*
X163575Y50129D01*
X164429Y49275D01*
X165231Y48370D01*
X165976Y47419D01*
X166663Y46424D01*
X167288Y45390D01*
X167850Y44319D01*
X168346Y43217D01*
X168775Y42087D01*
X169134Y40933D01*
X169423Y39760D01*
X169641Y38571D01*
X169787Y37371D01*
X169860Y36164D01*
X169860Y34956D01*
X168590Y525176D02*
X168517Y523969D01*
X168371Y522769D01*
X168153Y521580D01*
X167864Y520407D01*
X167505Y519253D01*
X167076Y518123D01*
X166580Y517021D01*
X166018Y515950D01*
X165393Y514916D01*
X164706Y513921D01*
X163961Y512970D01*
X163159Y512065D01*
X162305Y511211D01*
X161400Y510409D01*
X160449Y509664D01*
X159454Y508977D01*
X158420Y508352D01*
X157349Y507790D01*
X156247Y507294D01*
X155117Y506865D01*
X153963Y506506D01*
X152790Y506217D01*
X151601Y505999D01*
X150401Y505853D01*
X149194Y505780D01*
X147986Y505780D01*
X146779Y505853D01*
X145579Y505999D01*
X144390Y506217D01*
X143217Y506506D01*
X142063Y506865D01*
X140933Y507294D01*
X139831Y507790D01*
X138760Y508352D01*
X137726Y508977D01*
X136731Y509664D01*
X135780Y510409D01*
X134875Y511211D01*
X134021Y512065D01*
X133219Y512970D01*
X132474Y513921D01*
X131787Y514916D01*
X131162Y515950D01*
X130600Y517021D01*
X130104Y518123D01*
X129675Y519253D01*
X129316Y520407D01*
X129027Y521580D01*
X128809Y522769D01*
X128663Y523969D01*
X128590Y525176D01*
X128590Y526384D01*
X128663Y527591D01*
X128809Y528791D01*
X129027Y529980D01*
X129316Y531153D01*
X129675Y532307D01*
X130104Y533437D01*
X130600Y534539D01*
X131162Y535610D01*
X131787Y536644D01*
X132474Y537639D01*
X133219Y538590D01*
X134021Y539495D01*
X134875Y540349D01*
X135780Y541151D01*
X136731Y541896D01*
X137726Y542583D01*
X138760Y543208D01*
X139831Y543770D01*
X140933Y544266D01*
X142063Y544695D01*
X143217Y545054D01*
X144390Y545343D01*
X145579Y545561D01*
X146779Y545707D01*
X147986Y545780D01*
X149194Y545780D01*
X150401Y545707D01*
X151601Y545561D01*
X152790Y545343D01*
X153963Y545054D01*
X155117Y544695D01*
X156247Y544266D01*
X157349Y543770D01*
X158420Y543208D01*
X159454Y542583D01*
X160449Y541896D01*
X161400Y541151D01*
X162305Y540349D01*
X163159Y539495D01*
X163961Y538590D01*
X164706Y537639D01*
X165393Y536644D01*
X166018Y535610D01*
X166580Y534539D01*
X167076Y533437D01*
X167505Y532307D01*
X167864Y531153D01*
X168153Y529980D01*
X168371Y528791D01*
X168517Y527591D01*
X168590Y526384D01*
X168590Y525176D01*
X748980Y525176D02*
X748907Y523969D01*
X748761Y522769D01*
X748543Y521580D01*
X748254Y520407D01*
X747895Y519253D01*
X747466Y518123D01*
X746970Y517021D01*
X746408Y515950D01*
X745783Y514916D01*
X745096Y513921D01*
X744351Y512970D01*
X743549Y512065D01*
X742695Y511211D01*
X741790Y510409D01*
X740839Y509664D01*
X739844Y508977D01*
X738810Y508352D01*
X737739Y507790D01*
X736637Y507294D01*
X735507Y506865D01*
X734353Y506506D01*
X733180Y506217D01*
X731991Y505999D01*
X730791Y505853D01*
X729584Y505780D01*
X728376Y505780D01*
X727169Y505853D01*
X725969Y505999D01*
X724780Y506217D01*
X723607Y506506D01*
X722453Y506865D01*
X721323Y507294D01*
X720221Y507790D01*
X719150Y508352D01*
X718116Y508977D01*
X717121Y509664D01*
X716170Y510409D01*
X715265Y511211D01*
X714411Y512065D01*
X713609Y512970D01*
X712864Y513921D01*
X712177Y514916D01*
X711552Y515950D01*
X710990Y517021D01*
X710494Y518123D01*
X710065Y519253D01*
X709706Y520407D01*
X709417Y521580D01*
X709199Y522769D01*
X709053Y523969D01*
X708980Y525176D01*
X708980Y526384D01*
X709053Y527591D01*
X709199Y528791D01*
X709417Y529980D01*
X709706Y531153D01*
X710065Y532307D01*
X710494Y533437D01*
X710990Y534539D01*
X711552Y535610D01*
X712177Y536644D01*
X712864Y537639D01*
X713609Y538590D01*
X714411Y539495D01*
X715265Y540349D01*
X716170Y541151D01*
X717121Y541896D01*
X718116Y542583D01*
X719150Y543208D01*
X720221Y543770D01*
X721323Y544266D01*
X722453Y544695D01*
X723607Y545054D01*
X724780Y545343D01*
X725969Y545561D01*
X727169Y545707D01*
X728376Y545780D01*
X729584Y545780D01*
X730791Y545707D01*
X731991Y545561D01*
X733180Y545343D01*
X734353Y545054D01*
X735507Y544695D01*
X736637Y544266D01*
X737739Y543770D01*
X738810Y543208D01*
X739844Y542583D01*
X740839Y541896D01*
X741790Y541151D01*
X742695Y540349D01*
X743549Y539495D01*
X744351Y538590D01*
X745096Y537639D01*
X745783Y536644D01*
X746408Y535610D01*
X746970Y534539D01*
X747466Y533437D01*
X747895Y532307D01*
X748254Y531153D01*
X748543Y529980D01*
X748761Y528791D01*
X748907Y527591D01*
X748980Y526384D01*
X748980Y525176D01*
X748980Y34956D02*
X748907Y33749D01*
X748761Y32549D01*
X748543Y31360D01*
X748254Y30187D01*
X747895Y29033D01*
X747466Y27903D01*
X746970Y26801D01*
X746408Y25730D01*
X745783Y24696D01*
X745096Y23701D01*
X744351Y22750D01*
X743549Y21845D01*
X742695Y20991D01*
X741790Y20189D01*
X740839Y19444D01*
X739844Y18757D01*
X738810Y18132D01*
X737739Y17570D01*
X736637Y17074D01*
X735507Y16645D01*
X734353Y16286D01*
X733180Y15997D01*
X731991Y15779D01*
X730791Y15633D01*
X729584Y15560D01*
X728376Y15560D01*
X727169Y15633D01*
X725969Y15779D01*
X724780Y15997D01*
X723607Y16286D01*
X722453Y16645D01*
X721323Y17074D01*
X720221Y17570D01*
X719150Y18132D01*
X718116Y18757D01*
X717121Y19444D01*
X716170Y20189D01*
X715265Y20991D01*
X714411Y21845D01*
X713609Y22750D01*
X712864Y23701D01*
X712177Y24696D01*
X711552Y25730D01*
X710990Y26801D01*
X710494Y27903D01*
X710065Y29033D01*
X709706Y30187D01*
X709417Y31360D01*
X709199Y32549D01*
X709053Y33749D01*
X708980Y34956D01*
X708980Y36164D01*
X709053Y37371D01*
X709199Y38571D01*
X709417Y39760D01*
X709706Y40933D01*
X710065Y42087D01*
X710494Y43217D01*
X710990Y44319D01*
X711552Y45390D01*
X712177Y46424D01*
X712864Y47419D01*
X713609Y48370D01*
X714411Y49275D01*
X715265Y50129D01*
X716170Y50931D01*
X717121Y51676D01*
X718116Y52363D01*
X719150Y52988D01*
X720221Y53550D01*
X721323Y54046D01*
X722453Y54475D01*
X723607Y54834D01*
X724780Y55123D01*
X725969Y55341D01*
X727169Y55487D01*
X728376Y55560D01*
X729584Y55560D01*
X730791Y55487D01*
X731991Y55341D01*
X733180Y55123D01*
X734353Y54834D01*
X735507Y54475D01*
X736637Y54046D01*
X737739Y53550D01*
X738810Y52988D01*
X739844Y52363D01*
X740839Y51676D01*
X741790Y50931D01*
X742695Y50129D01*
X743549Y49275D01*
X744351Y48370D01*
X745096Y47419D01*
X745783Y46424D01*
X746408Y45390D01*
X746970Y44319D01*
X747466Y43217D01*
X747895Y42087D01*
X748254Y40933D01*
X748543Y39760D01*
X748761Y38571D01*
X748907Y37371D01*
X748980Y36164D01*
X748980Y34956D01*
X726680Y305336D02*
X726756Y306404D01*
X726909Y307465D01*
X727137Y308512D01*
X727439Y309540D01*
X727813Y310544D01*
X728258Y311519D01*
X728772Y312459D01*
X729351Y313360D01*
X729993Y314218D01*
X730695Y315028D01*
X731452Y315785D01*
X732262Y316487D01*
X733120Y317129D01*
X734021Y317708D01*
X734961Y318222D01*
X735936Y318667D01*
X736940Y319041D01*
X737968Y319343D01*
X739015Y319571D01*
X740076Y319724D01*
X741144Y319800D01*
X742216Y319800D01*
X743284Y319724D01*
X744345Y319571D01*
X745392Y319343D01*
X746420Y319041D01*
X747424Y318667D01*
X748399Y318222D01*
X749339Y317708D01*
X750240Y317129D01*
X751098Y316487D01*
X751908Y315785D01*
X752665Y315028D01*
X753367Y314218D01*
X754009Y313360D01*
X754588Y312459D01*
X755102Y311519D01*
X755547Y310544D01*
X755921Y309540D01*
X756223Y308512D01*
X756451Y307465D01*
X756604Y306404D01*
X756680Y305336D01*
X756680Y304264D01*
X756604Y303196D01*
X756451Y302135D01*
X756223Y301088D01*
X755921Y300060D01*
X755547Y299056D01*
X755102Y298081D01*
X754588Y297141D01*
X754009Y296240D01*
X753367Y295382D01*
X752665Y294572D01*
X751908Y293815D01*
X751098Y293113D01*
X750240Y292471D01*
X749339Y291892D01*
X748399Y291378D01*
X747424Y290933D01*
X746420Y290559D01*
X745392Y290257D01*
X744345Y290029D01*
X743284Y289876D01*
X742216Y289800D01*
X741144Y289800D01*
X740076Y289876D01*
X739015Y290029D01*
X737968Y290257D01*
X736940Y290559D01*
X735936Y290933D01*
X734961Y291378D01*
X734021Y291892D01*
X733120Y292471D01*
X732262Y293113D01*
X731452Y293815D01*
X730695Y294572D01*
X729993Y295382D01*
X729351Y296240D01*
X728772Y297141D01*
X728258Y298081D01*
X727813Y299056D01*
X727439Y300060D01*
X727137Y301088D01*
X726909Y302135D01*
X726756Y303196D01*
X726680Y304264D01*
X726680Y305336D01*
X429500Y457736D02*
X429576Y458804D01*
X429729Y459865D01*
X429957Y460912D01*
X430259Y461940D01*
X430633Y462944D01*
X431078Y463919D01*
X431592Y464859D01*
X432171Y465760D01*
X432813Y466618D01*
X433515Y467428D01*
X434272Y468185D01*
X435082Y468887D01*
X435940Y469529D01*
X436841Y470108D01*
X437781Y470622D01*
X438756Y471067D01*
X439760Y471441D01*
X440788Y471743D01*
X441835Y471971D01*
X442896Y472124D01*
X443964Y472200D01*
X445036Y472200D01*
X446104Y472124D01*
X447165Y471971D01*
X448212Y471743D01*
X449240Y471441D01*
X450244Y471067D01*
X451219Y470622D01*
X452159Y470108D01*
X453060Y469529D01*
X453918Y468887D01*
X454728Y468185D01*
X455485Y467428D01*
X456187Y466618D01*
X456829Y465760D01*
X457408Y464859D01*
X457922Y463919D01*
X458367Y462944D01*
X458741Y461940D01*
X459043Y460912D01*
X459271Y459865D01*
X459424Y458804D01*
X459500Y457736D01*
X459500Y456664D01*
X459424Y455596D01*
X459271Y454535D01*
X459043Y453488D01*
X458741Y452460D01*
X458367Y451456D01*
X457922Y450481D01*
X457408Y449541D01*
X456829Y448640D01*
X456187Y447782D01*
X455485Y446972D01*
X454728Y446215D01*
X453918Y445513D01*
X453060Y444871D01*
X452159Y444292D01*
X451219Y443778D01*
X450244Y443333D01*
X449240Y442959D01*
X448212Y442657D01*
X447165Y442429D01*
X446104Y442276D01*
X445036Y442200D01*
X443964Y442200D01*
X442896Y442276D01*
X441835Y442429D01*
X440788Y442657D01*
X439760Y442959D01*
X438756Y443333D01*
X437781Y443778D01*
X436841Y444292D01*
X435940Y444871D01*
X435082Y445513D01*
X434272Y446215D01*
X433515Y446972D01*
X432813Y447782D01*
X432171Y448640D01*
X431592Y449541D01*
X431078Y450481D01*
X430633Y451456D01*
X430259Y452460D01*
X429957Y453488D01*
X429729Y454535D01*
X429576Y455596D01*
X429500Y456664D01*
X429500Y457736D01*
X364900Y50348D02*
X364829Y49447D01*
X364688Y48555D01*
X364477Y47676D01*
X364198Y46817D01*
X363852Y45982D01*
X363441Y45177D01*
X362969Y44406D01*
X362438Y43675D01*
X361851Y42988D01*
X361212Y42349D01*
X360525Y41762D01*
X359794Y41231D01*
X359023Y40759D01*
X358218Y40348D01*
X357383Y40002D01*
X356524Y39723D01*
X355645Y39512D01*
X354753Y39371D01*
X353852Y39300D01*
X352948Y39300D01*
X352047Y39371D01*
X351155Y39512D01*
X350276Y39723D01*
X349417Y40002D01*
X348582Y40348D01*
X347777Y40759D01*
X347006Y41231D01*
X346275Y41762D01*
X345588Y42349D01*
X344949Y42988D01*
X344362Y43675D01*
X343831Y44406D01*
X343359Y45177D01*
X342948Y45982D01*
X342602Y46817D01*
X342323Y47676D01*
X342112Y48555D01*
X341971Y49447D01*
X341900Y50348D01*
X341900Y51252D01*
X341971Y52153D01*
X342112Y53045D01*
X342323Y53924D01*
X342602Y54783D01*
X342948Y55618D01*
X343359Y56423D01*
X343831Y57194D01*
X344362Y57925D01*
X344949Y58612D01*
X345588Y59251D01*
X346275Y59838D01*
X347006Y60369D01*
X347777Y60841D01*
X348582Y61252D01*
X349417Y61598D01*
X350276Y61877D01*
X351155Y62088D01*
X352047Y62229D01*
X352948Y62300D01*
X353852Y62300D01*
X354753Y62229D01*
X355645Y62088D01*
X356524Y61877D01*
X357383Y61598D01*
X358218Y61252D01*
X359023Y60841D01*
X359794Y60369D01*
X360525Y59838D01*
X361212Y59251D01*
X361851Y58612D01*
X362438Y57925D01*
X362969Y57194D01*
X363441Y56423D01*
X363852Y55618D01*
X364198Y54783D01*
X364477Y53924D01*
X364688Y53045D01*
X364829Y52153D01*
X364900Y51252D01*
X364900Y50348D01*
X496300Y50348D02*
X496229Y49447D01*
X496088Y48555D01*
X495877Y47676D01*
X495598Y46817D01*
X495252Y45982D01*
X494841Y45177D01*
X494369Y44406D01*
X493838Y43675D01*
X493251Y42988D01*
X492612Y42349D01*
X491925Y41762D01*
X491194Y41231D01*
X490423Y40759D01*
X489618Y40348D01*
X488783Y40002D01*
X487924Y39723D01*
X487045Y39512D01*
X486153Y39371D01*
X485252Y39300D01*
X484348Y39300D01*
X483447Y39371D01*
X482555Y39512D01*
X481676Y39723D01*
X480817Y40002D01*
X479982Y40348D01*
X479177Y40759D01*
X478406Y41231D01*
X477675Y41762D01*
X476988Y42349D01*
X476349Y42988D01*
X475762Y43675D01*
X475231Y44406D01*
X474759Y45177D01*
X474348Y45982D01*
X474002Y46817D01*
X473723Y47676D01*
X473512Y48555D01*
X473371Y49447D01*
X473300Y50348D01*
X473300Y51252D01*
X473371Y52153D01*
X473512Y53045D01*
X473723Y53924D01*
X474002Y54783D01*
X474348Y55618D01*
X474759Y56423D01*
X475231Y57194D01*
X475762Y57925D01*
X476349Y58612D01*
X476988Y59251D01*
X477675Y59838D01*
X478406Y60369D01*
X479177Y60841D01*
X479982Y61252D01*
X480817Y61598D01*
X481676Y61877D01*
X482555Y62088D01*
X483447Y62229D01*
X484348Y62300D01*
X485252Y62300D01*
X486153Y62229D01*
X487045Y62088D01*
X487924Y61877D01*
X488783Y61598D01*
X489618Y61252D01*
X490423Y60841D01*
X491194Y60369D01*
X491925Y59838D01*
X492612Y59251D01*
X493251Y58612D01*
X493838Y57925D01*
X494369Y57194D01*
X494841Y56423D01*
X495252Y55618D01*
X495598Y54783D01*
X495877Y53924D01*
X496088Y53045D01*
X496229Y52153D01*
X496300Y51252D01*
X496300Y50348D01*
M02*
